<svg width="200" height="200" viewBox="0 0 200 200" fill="none" xmlns="http://www.w3.org/2000/svg">
<rect width="200" height="200" fill="white"/>
<path d="M129.527 136.361L129.67 135.768L122.929 134.137L122.843 134.501C122.843 147.917 116.343 157.339 110.066 163.309C103.593 169.467 93.3052 168.951 87.5068 162.153C82.6579 156.471 77.8297 147.673 76.7973 134.425L76.7593 134.224L70.814 135.46L71.0057 136.361C72.4251 148.348 66.038 166.729 62.9511 172.837H98.5448H137.581C134.494 166.729 128.107 148.348 129.527 136.361Z" fill="#F35B5A"/>
<path d="M134.491 79.8586C134.491 84.3746 131.817 88.0466 128.508 88.0466C127.598 88.0466 126.735 87.7693 125.957 87.2613C121.009 102.047 109.666 114.071 99.2724 114.071C90.0473 114.071 77.8896 102.085 72.3183 87.3946C71.5995 87.8173 70.8027 88.0466 69.9693 88.0466C66.6604 88.0466 63.9849 84.3746 63.9849 79.8586C63.9849 75.6493 66.3063 72.188 69.288 71.7173C69.3364 46.2773 82.3479 36.44 98.4667 36.44C114.461 36.44 128.259 51.2547 128.499 71.6693H128.508C131.817 71.6693 134.491 75.332 134.491 79.8586Z" stroke="#1F1F20" stroke-width="2.40211" stroke-miterlimit="10" stroke-linecap="round" stroke-linejoin="round"/>
<path d="M98.2609 75.7653C98.2609 76.908 98.1839 77.9986 98.1437 79.1266C98.0797 80.8773 98.3989 81.5599 96.986 82.7133C96.0995 83.4359 94.3479 84.42 94.5943 85.468C94.8973 86.7586 96.8156 88.0879 97.9068 88.6373" stroke="#1F1F20" stroke-width="2.40211" stroke-miterlimit="10" stroke-linecap="round" stroke-linejoin="round"/>
<path d="M86.3104 69.86C86.2541 72.304 86.5459 74.8094 86.5459 77.3" stroke="#1F1F20" stroke-width="3.60316" stroke-miterlimit="10" stroke-linecap="round" stroke-linejoin="round"/>
<path d="M110.279 69.86C110.223 72.304 110.516 74.8094 110.516 77.3" stroke="#1F1F20" stroke-width="3.60316" stroke-miterlimit="10" stroke-linecap="round" stroke-linejoin="round"/>
<path d="M165.656 169.339C158.353 152.277 147.71 139.583 130.541 135.417L121.331 133.181C117.658 132.291 114.72 129.553 113.551 125.957C112.986 124.219 112.426 122.345 111.975 119.737C111.405 116.453 112.118 113.021 112.118 109.66" stroke="#1F1F20" stroke-width="2.40211" stroke-miterlimit="10" stroke-linecap="round" stroke-linejoin="round"/>
<path d="M33.201 169.339C40.5042 152.277 51.1473 139.583 68.3167 135.417L77.5735 133.489C80.6516 132.848 83.1656 130.639 84.1917 127.667C84.9625 125.433 85.8167 122.895 86.3287 121.165C87.4563 117.364 87.6527 112.999 87.5031 109.679" stroke="#1F1F20" stroke-width="2.40211" stroke-miterlimit="10" stroke-linecap="round" stroke-linejoin="round"/>
<path d="M97.2177 96.712C100.514 96.524 104.567 95.6106 106.487 92.3773" stroke="#1F1F20" stroke-width="2.40211" stroke-miterlimit="10" stroke-linecap="round" stroke-linejoin="round"/>
<path d="M116.706 82.856C114.915 82.416 108.845 81.936 108.448 84.392C107.944 87.5013 116.996 87.112 118.784 85.832C121.616 83.8027 116.706 82.856 116.706 82.856Z" fill="#F35B5A"/>
<path d="M85.6229 82.856C83.8312 82.416 77.762 81.936 77.3651 84.392C76.8609 87.5013 85.9131 87.112 87.7011 85.832C90.5328 83.8027 85.6229 82.856 85.6229 82.856Z" fill="#F35B5A"/>
<path d="M76.7932 133.864C77.9547 148.773 83.9276 158.045 89.3235 163.584C94.3964 168.793 102.619 169.199 108.145 164.473C114.936 158.664 122.842 148.728 122.842 133.939" stroke="#1F1F20" stroke-width="2.40211" stroke-miterlimit="10" stroke-linecap="round" stroke-linejoin="round"/>
<path d="M76.7932 133.864C76.8948 135.155 77.0303 136.403 77.1995 137.611C81.0251 164.917 121.731 163.093 122.81 135.54C122.831 135.013 122.842 134.48 122.842 133.939" stroke="#1F1F20" stroke-width="2.40211" stroke-miterlimit="10" stroke-linecap="round" stroke-linejoin="round"/>
<path d="M129.53 135.795C128.111 147.779 134.491 166.161 137.58 172.277" stroke="#1F1F20" stroke-width="2.40211" stroke-miterlimit="10" stroke-linecap="round" stroke-linejoin="round"/>
<path d="M71.0041 135.795C72.4235 147.779 66.0432 166.161 62.9547 172.277" stroke="#1F1F20" stroke-width="2.40211" stroke-miterlimit="10" stroke-linecap="round" stroke-linejoin="round"/>
<path d="M85.5901 126.791C94.7375 131.392 103.774 131.552 113.037 127.192C115.832 125.875 113.396 121.732 110.613 123.043C102.983 126.635 95.5303 126.421 88.0161 122.643C85.2609 121.257 82.826 125.4 85.5901 126.791Z" fill="#1F1F20"/>
<path d="M67.2506 84.08C64.9042 87.304 61.9979 94.5414 65.4547 97.9574C66.8938 99.38 69.3052 99.5427 71.085 98.7067C73.4574 97.5933 74.4224 94.804 74.8506 92.4107C75.1203 90.9 72.8063 90.2507 72.5344 91.772C72.2672 93.2627 71.886 95.1307 70.6568 96.148C68.4886 97.9427 66.499 96.0307 66.426 93.7373C66.3323 90.792 67.6151 87.6414 69.3246 85.292C70.235 84.04 68.1516 82.84 67.2506 84.08Z" fill="#1F1F20"/>
<path d="M128.154 85.9839C129.864 88.3346 131.146 91.4866 131.053 94.4293C130.986 96.5253 129.555 98.2839 127.351 97.1186C125.714 96.2533 125.246 94.1506 124.944 92.4653C124.673 90.9453 122.357 91.5893 122.628 93.1026C123.06 95.5213 124.024 98.2546 126.394 99.3986C128.162 100.252 130.595 100.061 132.024 98.6493C135.482 95.2319 132.573 87.9959 130.228 84.7719C129.327 83.5333 127.243 84.7306 128.154 85.9839Z" fill="#1F1F20"/>
<path d="M112.607 52.5507C107.03 56.608 101.03 60.0707 94.6995 62.8133C94.7489 60.492 95.2088 58.18 96.0527 56.0173C89.0355 63.604 82.0188 71.1907 75.0016 78.7773C75.1073 76.084 75.5224 73.4027 76.236 70.8027C68.938 77.3987 61.2203 83.5293 53.1448 89.148C56.4521 81.3067 59.7568 73.4667 63.0631 65.6267C60.0292 67.5374 57.2193 69.8054 54.7115 72.3694C59.9407 65.7187 63.9875 58.1427 66.6084 50.1C63.2959 50.4107 59.9823 50.7227 56.6697 51.0334C59.2307 47.5947 61.8183 44.128 65.0459 41.3067C68.2751 38.4867 72.2401 36.324 76.5136 35.9787C74.9364 33.88 73.3599 31.7813 71.7828 29.6813C83.1579 30.2867 94.5708 20.2013 105.869 32.1347C105.746 29.8133 105.624 27.4907 105.502 25.168C113.641 30.9187 120.162 38.9334 124.139 48.0694C125.894 47.12 127.454 45.812 128.696 44.2494C127.883 50.2 137.58 63.0627 134.903 75.5654C134.016 74.1427 133.129 72.72 132.244 71.296C132.066 71.0107 131.866 70.7067 131.551 70.588C131.067 70.4054 130.554 70.736 130.141 71.048C127.17 73.2947 124.199 75.5414 121.228 77.7894C122.343 74.4467 123.41 67.504 123.41 67.504L112.607 52.5507Z" fill="#F8A20D"/>
<path d="M112.607 52.5507C107.03 56.608 101.03 60.0707 94.6995 62.8133C94.7489 60.492 95.2088 58.18 96.0527 56.0173C89.0355 63.604 82.0188 71.1907 75.0016 78.7773C75.1073 76.084 75.5224 73.4027 76.236 70.8027C68.938 77.3987 61.2203 83.5293 53.1448 89.148C56.4521 81.3067 59.7568 73.4667 63.0631 65.6267C60.0292 67.5374 57.2193 69.8054 54.7115 72.3694C59.9407 65.7187 63.9875 58.1427 66.6084 50.1C63.2959 50.4107 59.9823 50.7227 56.6697 51.0334C59.2307 47.5947 61.8183 44.128 65.0459 41.3067C68.2751 38.4867 72.2401 36.324 76.5136 35.9787C74.9364 33.88 73.3599 31.7813 71.7828 29.6813C83.1579 30.2867 94.5708 20.2013 105.869 32.1347C105.746 29.8133 105.624 27.4907 105.502 25.168C113.641 30.9187 120.162 38.9334 124.139 48.0694C125.894 47.12 127.454 45.812 128.696 44.2494C127.883 50.2 137.58 63.0627 134.903 75.5654C134.016 74.1427 133.129 72.72 132.244 71.296C132.066 71.0107 131.866 70.7067 131.551 70.588C131.067 70.4054 130.554 70.736 130.141 71.048C127.17 73.2947 124.199 75.5414 121.228 77.7894C122.343 74.4467 123.41 67.504 123.41 67.504L112.607 52.5507Z" stroke="#1F1F20" stroke-width="2.40211" stroke-miterlimit="10" stroke-linecap="round" stroke-linejoin="round"/>
</svg>
