<svg width="163" height="163" viewBox="0 0 163 163" fill="none" xmlns="http://www.w3.org/2000/svg">
<path d="M162.277 81.2453C162.277 98.4646 156.906 114.432 147.734 127.551C142.677 134.831 136.421 141.243 129.281 146.472C129.246 146.524 129.194 146.542 129.159 146.577C128.69 146.924 128.221 147.272 127.733 147.585C118.941 153.77 108.865 158.236 97.9873 160.512C92.601 161.659 87.0056 162.249 81.2724 162.249C73.1237 162.249 65.2693 161.051 57.8673 158.809C57.2767 158.635 56.7033 158.461 56.1297 158.27C52.1857 156.984 48.3806 155.404 44.7311 153.545C38.3898 150.347 32.5338 146.334 27.2866 141.642C24.4727 139.105 21.8133 136.394 19.3638 133.493C15.3506 128.749 11.8755 123.554 9.02542 117.976C3.413 106.943 0.250854 94.4683 0.250854 81.2453C0.250854 36.5037 36.5308 0.223907 81.2724 0.223907C125.995 0.223907 162.277 36.5037 162.277 81.2453Z" fill="#F7F5FF"/>
<path d="M147.734 127.557C142.643 134.872 136.353 141.318 129.159 146.585C120.037 153.29 109.456 158.121 97.9887 160.518C98.0581 145.49 98.8921 133.554 98.8921 133.554C98.8921 133.554 124.152 97.1412 124.503 97.4296C127.227 99.6627 137.555 108.641 147.734 127.557Z" fill="#8758E7"/>
<path d="M129.159 146.585C120.037 153.29 109.456 158.121 97.9887 160.518C92.6016 161.665 87.0069 162.255 81.2731 162.255C68.1194 162.255 55.7142 159.128 44.7325 153.551C38.3905 150.355 32.5358 146.34 27.2887 141.65C24.4733 139.114 21.8147 136.401 19.3651 133.499C24.3164 116.682 35.176 103.892 38.4251 100.208C39.2424 99.2696 40.181 98.4186 41.1876 97.6388C41.2051 97.6021 41.2406 97.6021 41.2574 97.5844C45.4798 94.302 51.1268 92.181 56.704 90.791C56.7568 90.791 56.7915 90.7755 56.8084 90.7755C63.6193 89.1071 70.2743 88.5336 74.0793 88.3409C76.1128 88.2384 77.329 88.2384 77.329 88.2384C77.329 88.2384 87.7888 89.262 99.0828 91.0341C109.178 92.6154 119.933 94.7873 124.468 97.3936C124.694 97.5321 124.885 97.7582 125.076 98.0534C127.63 102.191 128.76 122.657 129.159 146.585Z" fill="#8758E7"/>
<path d="M56.8294 51.0917C56.8294 51.0917 57.5041 63.2456 62.9766 63.8035C68.4478 64.3608 76.4982 57.4473 76.4982 57.4473L72.7265 43.7678L56.8294 51.0917Z" fill="black"/>
<path d="M72.6146 73.7991L72.871 92.8741C72.871 92.8741 76.5457 98.3406 88.2368 99.1951C96.9469 99.831 99.978 97.9387 99.978 97.9387L98.6342 88.2839L97.3114 78.8678L76.1623 74.5308L72.6146 73.7991Z" fill="#FC8165"/>
<path d="M77.3276 74.6354C77.3799 75.1546 77.5836 75.7681 77.897 76.4701C82.249 85.9551 93.9307 87.9045 98.7332 88.2921L97.5076 78.887L77.3276 74.6354Z" fill="black"/>
<path d="M101.373 35.3895C101.373 35.3895 111.591 59.2059 107.765 72.5226C103.938 85.839 91.7967 83.6584 84.5412 81.0311C77.2849 78.4036 73.9388 73.9214 73.9388 73.9214C73.9388 73.9214 67.1304 76.1802 62.6277 69.8327C58.1251 63.4853 60.9717 56.2488 64.8615 54.6117C68.7514 52.9767 73.3456 55.8076 73.3456 55.8076L69.7768 48.8811C69.7768 48.8811 85.2192 13.9083 101.373 35.3895Z" fill="#FC8165"/>
<path d="M72.7246 66.2172C72.5515 66.2172 72.3771 66.1649 72.2243 66.057L63.5801 59.9546C63.1878 59.6783 63.0948 59.1381 63.3711 58.7458C63.6485 58.3507 64.1882 58.257 64.5825 58.5368L73.2267 64.6392C73.6191 64.9155 73.712 65.4557 73.4357 65.8487C73.2662 66.0902 72.9981 66.2172 72.7246 66.2172Z" fill="black"/>
<path d="M64.8947 66.1785C64.5112 66.1785 64.1604 65.9233 64.0565 65.5337C63.9323 65.0715 64.2072 64.5937 64.6714 64.4709L70.3151 62.9641C70.7766 62.848 71.2544 63.1168 71.3787 63.579C71.5022 64.0433 71.2273 64.519 70.7631 64.6446L65.1194 66.1507C65.0448 66.1683 64.9694 66.1785 64.8947 66.1785Z" fill="black"/>
<path d="M84.8906 46.9163C84.74 46.9163 84.5858 46.8782 84.4468 46.7946C84.0347 46.5477 83.8997 46.0162 84.1447 45.6044C86.3458 41.9087 89.9112 42.1068 91.4879 42.7288C91.9344 42.906 92.153 43.4099 91.9766 43.8565C91.8022 44.3013 91.2985 44.5185 90.854 44.3464C90.7114 44.2943 87.6184 43.1649 85.6386 46.492C85.4751 46.7649 85.1865 46.9163 84.8906 46.9163Z" fill="black"/>
<path d="M103.969 44.6366C103.777 44.6366 103.583 44.574 103.423 44.4437C101.436 42.8296 99.3617 44.0476 99.3414 44.0615C98.9322 44.303 98.3967 44.1761 98.1496 43.7643C97.9018 43.3543 98.0342 42.8191 98.4462 42.5707C98.573 42.4942 101.596 40.7271 104.517 43.0919C104.889 43.3943 104.947 43.9416 104.644 44.3134C104.472 44.5254 104.221 44.6366 103.969 44.6366Z" fill="black"/>
<path d="M100.626 64.912C100.551 64.912 100.474 64.9017 100.399 64.8807C99.9353 64.7572 99.6604 64.2814 99.7853 63.8172C100.989 59.3397 97.8374 52.5944 97.8054 52.5266C97.6013 52.0923 97.7858 51.5743 98.2195 51.3695C98.6539 51.1665 99.1704 51.3489 99.3755 51.7833C99.5186 52.082 102.833 59.1693 101.464 64.2693C101.359 64.6548 101.008 64.912 100.626 64.912Z" fill="black"/>
<path d="M102.227 53.7971C101.849 53.7971 101.5 53.5488 101.393 53.1647L100.161 48.8017C100.03 48.3409 100.298 47.8596 100.76 47.7293C101.215 47.6011 101.701 47.8664 101.832 48.3307L103.064 52.6936C103.195 53.1537 102.926 53.6357 102.464 53.766C102.385 53.7863 102.306 53.7971 102.227 53.7971Z" fill="black"/>
<path d="M89.3587 54.1414C88.9799 54.1414 88.6312 53.8908 88.5238 53.5066L87.2921 49.1473C87.1611 48.685 87.4292 48.2059 87.8921 48.0735C88.3475 47.9453 88.8335 48.2106 88.9631 48.6749L90.195 53.0356C90.326 53.4966 90.0579 53.9777 89.5949 54.108C89.5161 54.1304 89.4374 54.1414 89.3587 54.1414Z" fill="black"/>
<path d="M102.734 38.8471C102.734 38.8471 101.323 36.9427 96.5667 36.9532C91.8102 36.9636 89.0628 40.3362 89.0628 40.3362C89.0628 40.3362 88.6644 48.9597 82.2341 53.2725C75.8052 57.5844 73.3456 55.8075 73.3456 55.8075L68.64 54.1758L65.1378 47.3525L78.5785 32.6058L94.7322 25.7113L102.734 34.6092V38.8471Z" fill="black"/>
<path d="M95.814 70.4544C94.456 70.4544 90.911 70.088 89.17 66.4581C88.9624 66.0272 89.145 65.5099 89.5773 65.2995C90.0089 65.0925 90.5276 65.2752 90.7366 65.7095C92.3329 69.0366 96.0204 68.7136 96.1753 68.7033C96.6585 68.6512 97.0786 69.0041 97.1254 69.4819C97.1743 69.9563 96.8295 70.3818 96.3537 70.4322C96.3157 70.4355 96.1202 70.4544 95.814 70.4544Z" fill="black"/>
<path d="M59.4908 62.2968C56.1494 58.893 53.391 50.5026 54.0617 45.78L54.1974 44.8278C54.1974 44.8278 48.6658 44.2266 50.5091 36.849C52.3534 29.4749 61.759 19.6404 76.433 15.9534C91.1079 12.2646 102.734 34.6093 102.734 34.6093C102.734 34.6093 90.461 33.9665 81.2411 40.9409C72.0214 47.9154 68.64 54.1759 68.64 54.1759L59.4908 62.2968Z" fill="#FFAF45"/>
<path d="M91.8849 99.8276C80.3174 99.8276 71.5707 94.0054 71.1241 93.7028C70.7271 93.4333 70.6232 92.8931 70.892 92.4974C71.1622 92.099 71.703 91.9998 72.0987 92.2639C72.2276 92.3515 85.0956 100.898 99.7589 97.0963C100.221 96.9798 100.698 97.2559 100.818 97.7215C100.939 98.1837 100.659 98.6601 100.195 98.7797C97.3215 99.5235 94.5299 99.8276 91.8849 99.8276Z" fill="#FFAF45"/>
<path d="M54.061 46.6488C53.915 46.6488 53.7663 46.6121 53.6306 46.534C53.2139 46.2957 53.0687 45.7642 53.3076 45.3489L56.0753 40.5099C56.313 40.0947 56.8443 39.9487 57.2612 40.1867C57.6771 40.4248 57.8224 40.9565 57.5842 41.3717L54.8156 46.2109C54.6556 46.4905 54.3616 46.6488 54.061 46.6488Z" fill="#8758E7"/>
<path d="M129.281 146.479C129.246 146.531 129.194 146.548 129.159 146.585C128.69 146.933 128.221 147.278 127.735 147.593L123.287 125.42C123.2 124.951 123.495 124.482 123.964 124.395C124.433 124.292 124.902 124.603 124.989 125.074L129.281 146.479Z" fill="#FFAF45"/>
<path d="M56.7269 155.321C56.5531 155.321 56.3775 155.269 56.2248 155.159L20.3827 129.68C19.991 129.402 19.8993 128.86 20.1769 128.469C20.4546 128.078 20.9976 127.988 21.3885 128.266L57.2313 153.746C57.6223 154.023 57.7138 154.563 57.4362 154.956C57.2666 155.195 56.9985 155.321 56.7269 155.321Z" fill="#FFAF45"/>
<path d="M127.855 142.582C127.655 142.582 127.451 142.512 127.288 142.372C126.925 142.057 126.883 141.51 127.196 141.146L144.022 121.611C144.335 121.245 144.884 121.206 145.247 121.519C145.612 121.834 145.652 122.381 145.339 122.744L128.513 142.279C128.341 142.479 128.098 142.582 127.855 142.582Z" fill="#FFAF45"/>
<path d="M58.0933 144.908L57.8672 158.808C57.2766 158.634 56.7033 158.461 56.1297 158.27L56.3557 144.891C56.3557 144.404 56.7385 144.039 57.2245 144.039C57.711 144.039 58.0933 144.439 58.0933 144.908Z" fill="#FFAF45"/>
</svg>
