<svg width="163" height="163" viewBox="0 0 163 163" fill="none" xmlns="http://www.w3.org/2000/svg">
<path d="M162.902 81.3342C162.902 102.793 154.564 122.305 140.924 136.796C126.155 152.521 105.166 162.338 81.8985 162.338C63.9498 162.338 47.3563 156.5 33.9268 146.613C33.3013 146.162 32.6932 145.693 32.0833 145.206C26.2278 140.636 21.0153 135.285 16.621 129.308C6.71706 115.876 0.877136 99.2829 0.877136 81.3342C0.877136 36.5926 37.157 0.330166 81.8985 0.330166C126.624 0.330166 162.902 36.5926 162.902 81.3342Z" fill="#F7F5FF"/>
<path d="M75.7164 34.5145C75.7164 34.5145 86.616 19.2641 114.507 34.3598C142.396 49.4573 130.565 118.789 130.565 118.789L78.0725 112.033L75.7164 34.5145Z" fill="black"/>
<path d="M84.8524 75.0113L86.0895 94.9721C86.0895 94.9721 82.9845 100.916 71.8191 102.539C63.4997 103.748 60.5738 99.4411 60.5738 99.4411L61.5155 81.8537L81.4989 75.9982L84.8524 75.0113Z" fill="#FC8165"/>
<path d="M84.7464 73.7967C84.7307 74.3441 84.5726 74.9991 84.3085 75.7567C80.6336 85.9838 65.7794 91.0401 60.9768 91.7802L61.5155 81.8537L84.7464 73.7967Z" fill="black"/>
<path d="M54.4142 36.6169C54.4142 36.6169 45.8951 62.2473 50.7289 75.9113C55.561 89.5771 67.6126 86.4478 74.7174 83.1933C81.8187 79.9389 84.8559 75.0165 84.8559 75.0165C84.8559 75.0165 91.8703 76.9035 95.9292 69.9498C99.9881 62.9945 96.5912 55.6221 92.5584 54.1817C88.5239 52.7413 84.1122 56.0235 84.1122 56.0235L87.1911 48.5295C87.1911 48.5295 69.0738 13.0177 54.4142 36.6169Z" fill="#FC8165"/>
<path d="M57.8787 68.1654C57.5312 68.1654 57.2029 67.9551 57.0691 67.6111C55.0414 62.4141 58.1984 56.6959 58.334 56.4544C58.5685 56.0356 59.0967 55.8862 59.5154 56.1225C59.9342 56.3571 60.082 56.8853 59.8491 57.304C59.8196 57.3562 56.963 62.5566 58.6884 66.9804C58.8639 67.4286 58.6433 67.9308 58.195 68.1045C58.0907 68.1462 57.9847 68.1654 57.8787 68.1654Z" fill="black"/>
<path d="M86.0322 67.658C85.848 67.658 85.6621 67.5989 85.5057 67.479C85.1234 67.1854 85.0522 66.6415 85.3442 66.2593L91.2274 58.5759C91.5176 58.1954 92.0649 58.1224 92.4454 58.4143C92.8259 58.7062 92.8972 59.2518 92.6053 59.634L86.722 67.3174C86.5517 67.5398 86.2946 67.658 86.0322 67.658Z" fill="black"/>
<path d="M92.7356 65.1716C92.6713 65.1699 88.1277 64.8363 88.1277 64.8363C87.6498 64.8015 87.2901 64.3845 87.3231 63.9067C87.3596 63.4271 87.808 63.0588 88.2545 63.1039L92.7964 63.4358C93.2742 63.4723 93.6339 63.8876 93.6009 64.3654C93.5662 64.8224 93.1839 65.1716 92.7356 65.1716Z" fill="black"/>
<path d="M51.5333 48.2393C51.1493 48.2393 50.8 47.9839 50.694 47.5981C50.5689 47.1342 50.8417 46.6581 51.3056 46.5313L55.4757 45.4002C55.9466 45.2733 56.4158 45.5496 56.5426 46.0118C56.6677 46.474 56.3949 46.9518 55.931 47.0769L51.7609 48.208C51.6844 48.2289 51.608 48.2393 51.5333 48.2393Z" fill="black"/>
<path d="M69.3918 49.612C69.3205 49.612 69.2475 49.6051 69.1746 49.5842L63.2686 48.0552C62.803 47.9353 62.5232 47.4609 62.6431 46.997C62.7647 46.5331 63.2321 46.2499 63.703 46.3732L69.6089 47.9022C70.0746 48.0221 70.3543 48.4965 70.2327 48.9622C70.1319 49.3531 69.7792 49.612 69.3918 49.612Z" fill="black"/>
<path d="M52.4143 58.4247C52.3552 58.4247 52.2961 58.4195 52.2388 58.4074C51.7696 58.3118 51.4656 57.8531 51.5594 57.3822L52.409 53.2278L51.2466 51.9871C50.9182 51.6379 50.9374 51.0871 51.2866 50.7587C51.6376 50.4303 52.1884 50.4512 52.5151 50.8004L53.9833 52.3677C54.1744 52.5744 54.2561 52.8611 54.2005 53.1357L53.2639 57.7297C53.1788 58.1415 52.8174 58.4247 52.4143 58.4247Z" fill="black"/>
<path d="M65.5778 58.5881C65.5205 58.5881 65.4597 58.5829 65.4024 58.5707C64.9333 58.4752 64.6291 58.0182 64.7247 57.5456L65.5692 53.4033L63.8716 51.6744C63.5363 51.3304 63.5432 50.7813 63.8855 50.446C64.2261 50.1089 64.7768 50.1176 65.1139 50.4582L67.133 52.5171C67.3363 52.7239 67.4214 53.0158 67.3641 53.299L66.4275 57.8931C66.3424 58.3066 65.9809 58.5881 65.5778 58.5881Z" fill="black"/>
<path d="M60.3323 103.026C60.3323 103.026 58.1864 92.4214 60.9769 91.7803C63.7691 91.1391 67.0791 92.9618 73.6001 91.3407C80.121 89.7213 83.5249 87.2835 85.6048 87.1619C87.6863 87.042 87.0417 100.395 87.0417 100.395L70.9382 107.203L60.3323 103.026Z" fill="#F74D76"/>
<path d="M93.6981 54.7794C93.6981 54.7794 90.5602 53.657 88.2162 54.1157C85.8549 54.5587 84.1121 56.0287 84.1121 56.0287L81.2331 60.0337L82.8507 51.8308C82.8507 51.8308 80.7552 50.6927 77.6207 49.4226L78.698 42.3473L75.8207 48.7172C72.8286 47.5999 69.2354 46.5365 65.6665 46.1473C63.7413 45.9284 62.0107 45.8398 60.5251 45.8224L61.4721 38.1164L58.5808 45.8241C54.7426 45.9353 52.793 46.4879 52.793 46.4879L50.1972 54.4284C50.1972 54.4284 49.5613 33.0237 58.8397 27.1456C68.1199 21.2693 85.0122 21.2397 92.8155 31.3609C100.615 41.482 93.6981 54.7794 93.6981 54.7794Z" fill="black"/>
<path d="M64.4918 73.4701C64.054 73.4701 63.6769 73.1399 63.63 72.6934C63.5779 72.2208 63.9202 71.7933 64.3928 71.7377C64.5145 71.7221 66.8792 71.3659 68.622 68.0263C68.8444 67.6006 69.3674 67.4391 69.7948 67.658C70.2205 67.8804 70.3838 68.4052 70.1614 68.8308C67.9565 73.0548 64.7229 73.4509 64.5857 73.4648C64.5544 73.4683 64.5231 73.4701 64.4918 73.4701Z" fill="black"/>
<path d="M140.93 136.789C126.161 152.514 105.171 162.331 81.9056 162.331C55.111 162.331 31.3588 149.334 16.6263 129.301C23.9239 120.265 39.7007 103.811 60.5686 99.448C87.8479 93.7332 126.558 99.9362 140.93 136.789Z" fill="#F74D76"/>
<path d="M75.4227 99.5731C74.9414 99.5731 74.554 99.1839 74.554 98.7044C74.554 98.2248 74.9414 97.8356 75.4227 97.8356C75.4662 97.8356 80.0342 97.8026 84.5257 95.7054C84.9584 95.5055 85.4779 95.688 85.6812 96.1258C85.8844 96.5602 85.6968 97.0763 85.2624 97.2796C80.4077 99.5453 75.6243 99.5731 75.4227 99.5731Z" fill="white"/>
<path d="M99.696 141.948C101.138 145.408 105.058 153.287 110.373 152.337C111.412 152.153 112.191 151.616 112.75 150.697C114.622 147.63 113.569 141.06 112.625 137.222L110.446 140.72C110.311 140.937 110.085 141.085 109.833 141.121C109.567 141.159 109.322 141.081 109.129 140.909L104.745 136.998L104.693 142.202C104.69 142.471 104.561 142.723 104.346 142.886C104.13 143.048 103.852 143.102 103.592 143.029L99.696 141.948ZM109.475 154.154C101.972 154.154 97.6284 141.491 97.439 140.925C97.3348 140.619 97.4095 140.284 97.6302 140.049C97.8508 139.816 98.1879 139.724 98.4937 139.811L102.966 141.052L103.029 135.069C103.03 134.727 103.234 134.421 103.545 134.282C103.861 134.148 104.221 134.202 104.476 134.428L109.517 138.925L112.201 134.617C112.382 134.329 112.717 134.176 113.051 134.214C113.386 134.26 113.669 134.496 113.768 134.821C113.916 135.295 117.332 146.521 114.234 151.602C113.411 152.952 112.213 153.776 110.676 154.047C110.269 154.12 109.868 154.154 109.475 154.154Z" fill="white"/>
<path d="M40.8127 133.127C39.9822 136.782 38.6008 145.463 43.4937 147.783C44.4493 148.235 45.3946 148.247 46.3815 147.824C49.9191 146.309 52.8156 139.964 54.0805 136.775L50.2858 138.36C50.0495 138.459 49.7802 138.447 49.5543 138.331C49.3249 138.212 49.1615 138 49.1042 137.752L47.7976 132.023L44.7396 136.232C44.5815 136.449 44.3295 136.581 44.0602 136.59C43.77 136.586 43.532 136.478 43.3617 136.268L40.8127 133.127ZM44.9689 149.873C44.2218 149.873 43.4798 149.698 42.7501 149.352C35.1883 145.767 39.3862 131.587 39.5669 130.984C39.6607 130.677 39.9144 130.446 40.2306 130.385C40.5469 130.322 40.8701 130.44 41.0734 130.691L43.9993 134.294L47.5162 129.454C47.716 129.177 48.0513 129.045 48.3936 129.113C48.7272 129.181 48.9913 129.44 49.066 129.771L50.569 136.358L55.2534 134.404C55.5627 134.273 55.9275 134.336 56.1795 134.567C56.428 134.798 56.52 135.154 56.4123 135.478C56.2577 135.95 52.5358 147.077 47.0661 149.421C46.3641 149.722 45.6657 149.873 44.9689 149.873Z" fill="white"/>
<path d="M68.8531 114.332C69.185 118.066 70.5298 126.753 75.8988 127.461C76.9413 127.598 77.8466 127.322 78.6598 126.614C81.5632 124.086 82.3729 117.159 82.5988 113.738L79.4747 116.406C79.2801 116.573 79.0142 116.644 78.7692 116.603C78.5156 116.561 78.2932 116.41 78.1629 116.189L75.1604 111.138L73.5427 116.081C73.4576 116.339 73.2596 116.542 73.0041 116.63C72.7522 116.721 72.4689 116.688 72.243 116.538L68.8531 114.332ZM76.4149 129.233C76.1699 129.233 75.9249 129.215 75.6712 129.182C67.3762 128.09 67.0218 113.305 67.0096 112.676C67.0044 112.354 67.1765 112.057 67.4579 111.901C67.7377 111.746 68.0834 111.76 68.351 111.934L72.243 114.466L74.104 108.78C74.2117 108.455 74.4967 108.224 74.8355 108.186C75.1709 108.155 75.5027 108.313 75.6765 108.607L79.1307 114.415L82.9862 111.119C83.2451 110.898 83.6083 110.844 83.9176 110.99C84.2269 111.135 84.4232 111.444 84.4215 111.785C84.418 112.281 84.2876 124.015 79.8013 127.924C78.804 128.793 77.6677 129.233 76.4149 129.233Z" fill="white"/>
<path d="M42.6319 118.413C42.5259 118.552 32.2588 130.003 33.9268 146.596C33.3013 146.162 32.6932 145.693 32.0833 145.206C31.112 128.665 41.2418 117.388 41.3617 117.249C41.6762 116.902 42.2305 116.867 42.578 117.197C42.9429 117.51 42.9603 118.066 42.6319 118.413Z" fill="white"/>
</svg>
