<svg width="163" height="163" viewBox="0 0 163 163" fill="none" xmlns="http://www.w3.org/2000/svg">
<path d="M162.543 81.7946C162.543 101.689 155.367 119.914 143.482 134.006C141.988 135.778 140.407 137.498 138.774 139.132C136.133 141.773 133.301 144.24 130.295 146.481C128.835 147.595 127.323 148.653 125.777 149.661C125.603 149.783 125.429 149.887 125.238 149.991C123.049 151.416 120.773 152.738 118.427 153.918C117.889 154.196 117.35 154.476 116.794 154.735C114.274 155.953 111.686 157.046 109.044 158.001C105.535 159.27 101.921 160.312 98.2022 161.077C92.8159 162.206 87.2558 162.799 81.5393 162.799C79.0893 162.799 76.6568 162.693 74.259 162.468C71.7569 162.241 69.2896 161.911 66.8571 161.442C65.5018 161.2 64.1639 160.92 62.8433 160.608C58.986 159.704 55.2503 158.524 51.6362 157.063C48.4218 155.795 45.3116 154.318 42.3057 152.65C41.9581 152.459 41.6107 152.267 41.2805 152.059C39.2302 150.912 37.2494 149.678 35.3382 148.323C33.6875 147.196 32.0716 145.977 30.5078 144.693C30.3167 144.554 30.1429 144.414 29.9518 144.259C27.7451 142.417 25.6253 140.47 23.6098 138.419C23.0364 137.846 22.4804 137.255 21.9417 136.666C20.3953 134.998 18.9184 133.26 17.5284 131.469C16.1557 129.697 14.8526 127.872 13.6363 125.996C5.34824 113.277 0.517883 98.1101 0.517883 81.7946C0.517883 37.053 36.7977 0.78889 81.5393 0.78889C126.281 0.78889 162.543 37.053 162.543 81.7946Z" fill="#F7F5FF"/>
<path d="M143.482 134.006C141.988 135.778 140.407 137.498 138.774 139.132C136.133 141.773 133.301 144.24 130.295 146.481C128.835 147.595 127.323 148.653 125.777 149.661C125.603 149.783 125.429 149.887 125.238 149.991L125.725 114.373C125.725 114.373 134.117 122.191 143.482 134.006Z" fill="#FFAF45"/>
<path d="M118.427 153.918C117.889 154.196 117.35 154.476 116.794 154.735C110.956 157.567 104.718 159.723 98.2022 161.077C92.8159 162.206 87.2558 162.799 81.5393 162.799C79.0893 162.799 76.6568 162.693 74.259 162.468C71.7569 162.241 69.2896 161.911 66.8571 161.442C65.5018 161.2 64.1639 160.92 62.8433 160.608C58.986 159.704 55.2503 158.524 51.6362 157.063L68.5251 99.7938C68.5251 99.7938 81.6957 97.813 96.6211 99.3767C106.369 100.402 114.17 132.042 118.427 153.918Z" fill="#80BAFF"/>
<path d="M96.6211 99.3767L70.9403 100.993C70.9403 100.993 68.3687 127.683 66.8571 161.442C65.5018 161.2 64.1639 160.92 62.8434 160.608C55.5631 158.889 48.6824 156.194 42.3057 152.65C41.9582 152.459 41.6107 152.267 41.2805 152.059C39.2302 150.912 37.2495 149.678 35.3382 148.323C33.6875 147.196 32.0716 145.977 30.5078 144.693C30.3167 144.554 30.1429 144.414 29.9518 144.259C27.7451 142.417 25.6253 140.47 23.6098 138.419C23.0364 137.846 22.4804 137.255 21.9417 136.666C22.4283 125.631 23.9399 117.414 27.0153 114.547C40.6724 101.844 74.5544 97.6062 74.5544 97.6062L90.4007 97.3786C90.4007 97.3786 92.9028 98.1101 96.6211 99.3767Z" fill="#FFAF45"/>
<path d="M130.295 146.481C128.835 147.595 127.323 148.653 125.777 149.661C123.414 151.209 120.964 152.632 118.427 153.918C117.889 154.196 117.35 154.476 116.794 154.735C114.274 155.953 111.686 157.046 109.044 158.001C109.027 157.793 109.01 157.586 108.992 157.376C104.44 110.08 97.125 100.002 96.6732 99.3941C106.456 102.748 124.63 109.889 127.966 117.588C129.235 120.523 129.947 131.747 130.295 146.481Z" fill="#FFAF45"/>
<path d="M80.4898 38.6672C80.4898 38.6672 63.799 1.40746 44.7469 20.3379C28.8085 36.1738 53.5285 60.5776 67.8232 53.6187C82.1179 46.6581 80.4898 38.6672 80.4898 38.6672Z" fill="black"/>
<path d="M105.917 69.0723C105.917 69.0723 112.784 61.2691 110.608 49.3565C109.131 41.2804 105.493 38.7106 105.493 38.7106C105.493 38.7106 110.827 27.5852 94.5013 28.4817C78.1772 29.38 68.678 37.5343 68.678 37.5343C68.678 37.5343 61.1597 33.9706 57.9331 42.7243C54.7065 51.478 58.2337 64.2733 58.2337 64.2733L105.917 69.0723Z" fill="black"/>
<path d="M70.247 83.0318L71.0254 102.965C71.0254 102.965 74.8445 108.554 86.5416 109.046C95.2571 109.413 97.8322 104.845 97.8322 104.845L95.0469 87.4851L73.8107 83.6764L70.247 83.0318Z" fill="#FC8165"/>
<path d="M70.2296 81.8155C70.3026 82.3594 70.5337 82.9918 70.8846 83.7181C75.7341 93.4987 91.5909 97.0294 96.6263 97.2831L95.0468 87.4851L70.2296 81.8155Z" fill="black"/>
<path d="M97.7158 41.8782C97.7158 41.8782 109.154 66.4609 105.573 80.5054C101.992 94.5516 89.2262 92.656 81.555 90.1366C73.8855 87.6189 70.2453 83.037 70.2453 83.037C70.2453 83.037 63.1961 85.6138 58.2876 79.1188C53.3808 72.6222 56.1279 64.9666 60.1433 63.1318C64.1587 61.2969 69.0534 64.1135 69.0534 64.1135L65.1022 56.9843C65.1022 56.9843 80.1458 19.9262 97.7158 41.8782Z" fill="#FC8165"/>
<path d="M69.0533 64.1134C69.0533 64.1134 79.7652 66.1185 87.0195 54.1278C94.2754 42.137 93.5265 37.2632 93.5265 37.2632L101.092 49.433C101.092 49.433 102.624 40.8999 99.1457 35.5222C95.6672 30.1463 92.1504 31.3209 92.1504 31.3209L68.678 37.5343L62.7391 56.5012L69.0533 64.1134Z" fill="black"/>
<path d="M97.3005 73.5413C97.2205 73.5413 97.1389 73.5308 97.0572 73.5065C96.5968 73.3727 96.3309 72.8897 96.4647 72.4293C97.7887 67.8839 94.3084 63.017 94.2737 62.9684C93.9922 62.5809 94.0756 62.0371 94.4648 61.7556C94.8523 61.4724 95.3926 61.5575 95.6776 61.9449C95.8427 62.1708 99.6983 67.5398 98.1345 72.9158C98.025 73.2946 97.6775 73.5413 97.3005 73.5413Z" fill="black"/>
<path d="M68.1794 75.8592C67.9535 75.8592 67.7276 75.7723 67.5591 75.5968L60.6906 68.5598C60.3535 68.2175 60.3605 67.6667 60.7028 67.3313C61.0503 66.9977 61.5993 67.0029 61.9312 67.347L68.8014 74.384C69.1368 74.7263 69.1298 75.2771 68.7875 75.6124C68.6173 75.7775 68.3983 75.8592 68.1794 75.8592Z" fill="black"/>
<path d="M61.0033 74.0626C60.588 74.0626 60.2196 73.762 60.1484 73.338C60.0685 72.8654 60.3882 72.4171 60.8608 72.3372L65.5157 71.5518C65.9796 71.4806 66.4366 71.7899 66.5165 72.2642C66.5964 72.7368 66.2767 73.1851 65.8041 73.2651L61.1492 74.0504C61.1006 74.0591 61.0537 74.0626 61.0033 74.0626Z" fill="black"/>
<path d="M101.801 53.1288C101.754 53.1288 101.709 53.1253 101.662 53.1183L97.2379 52.4129C96.7636 52.3382 96.4421 51.8934 96.5168 51.419C96.5933 50.9447 97.0329 50.618 97.5124 50.698L101.936 51.4034C102.409 51.4781 102.732 51.9247 102.657 52.3973C102.588 52.8247 102.219 53.1288 101.801 53.1288Z" fill="black"/>
<path d="M83.501 56.2824C83.1899 56.2824 82.8876 56.1138 82.7329 55.8167C82.5088 55.3927 82.6739 54.868 83.0978 54.6456L90.2808 50.8786C90.7031 50.6614 91.2313 50.8178 91.4537 51.2452C91.6778 51.6692 91.5127 52.1957 91.0888 52.4181L83.9058 56.1833C83.7772 56.2511 83.64 56.2824 83.501 56.2824Z" fill="black"/>
<path d="M101.941 63.3263C101.575 63.3263 101.234 63.0935 101.114 62.7251L99.6739 58.2597C99.5835 57.9834 99.6409 57.6794 99.8199 57.4535L101.173 55.7489C101.474 55.3719 102.023 55.3146 102.395 55.6082C102.77 55.9071 102.833 56.4544 102.536 56.8297L101.469 58.1693L102.767 62.1917C102.914 62.6487 102.664 63.1369 102.207 63.2864C102.119 63.3142 102.03 63.3263 101.941 63.3263Z" fill="black"/>
<path d="M87.6711 64.7077C87.3044 64.7077 86.9639 64.4731 86.844 64.1047L85.4036 59.641C85.3115 59.3561 85.3723 59.0468 85.5634 58.8174L87.4347 56.5708C87.744 56.2007 88.2896 56.1555 88.658 56.4578C89.0263 56.7654 89.075 57.3127 88.7692 57.6828L87.2037 59.5628L88.4964 63.5713C88.6441 64.0283 88.3939 64.5183 87.9369 64.666C87.8483 64.6938 87.7597 64.7077 87.6711 64.7077Z" fill="black"/>
<path d="M93.7924 80.1371C90.677 80.1371 87.2436 76.8236 86.7918 76.3718C86.4513 76.0347 86.4513 75.4857 86.7884 75.1451C87.1272 74.8028 87.678 74.8063 88.0168 75.1416C89.1566 76.2728 92.8385 79.2561 94.7793 78.158C95.1893 77.9235 95.7245 78.0659 95.9626 78.4864C96.1989 78.9034 96.0512 79.4334 95.6341 79.6697C95.0538 79.9998 94.4301 80.1371 93.7924 80.1371Z" fill="black"/>
<path d="M35.3382 148.323C33.6875 147.196 32.0716 145.977 30.5078 144.693C30.3167 144.554 30.1429 144.414 29.9518 144.259C27.7451 142.417 25.6253 140.47 23.6098 138.419C21.4552 136.213 19.4223 133.902 17.5284 131.469C16.1557 129.697 14.8526 127.872 13.6363 125.996C24.548 115.555 33.5832 109.819 33.5832 109.819L35.3382 148.323Z" fill="#FFAF45"/>
<path d="M88.3052 109.998C87.7197 109.998 87.1081 109.971 86.4635 109.911C78.6359 109.19 70.8603 103.905 70.5337 103.681C70.1375 103.41 70.0367 102.869 70.3095 102.473C70.5789 102.082 71.1193 101.974 71.5172 102.249C71.5936 102.301 79.2527 107.502 86.6216 108.181C94.3588 108.892 96.9721 104.593 97.0798 104.409C97.3248 103.997 97.8513 103.858 98.2683 104.096C98.6801 104.337 98.8226 104.862 98.5845 105.277C98.4664 105.484 95.7836 109.998 88.3052 109.998Z" fill="#8758E7"/>
<path d="M63.3334 129.94C63.3003 129.94 63.2673 129.938 63.2326 129.935C62.7565 129.881 62.4142 129.45 62.4681 128.974L63.3421 121.338C63.3959 120.86 63.8373 120.512 64.3047 120.573C64.7807 120.629 65.123 121.059 65.0692 121.536L64.1952 129.17C64.1448 129.613 63.7677 129.94 63.3334 129.94Z" fill="#8758E7"/>
<path d="M61.5229 154.667C61.4899 154.667 61.4568 154.665 61.4221 154.662C60.946 154.608 60.6037 154.177 60.6576 153.701L61.5316 146.064C61.5854 145.587 62.0233 145.239 62.4941 145.3C62.9702 145.354 63.3125 145.786 63.2587 146.261L62.3847 153.897C62.3343 154.34 61.9573 154.667 61.5229 154.667Z" fill="#8758E7"/>
</svg>
