<svg width="163" height="163" viewBox="0 0 163 163" fill="none" xmlns="http://www.w3.org/2000/svg">
<path d="M162.311 81.6178C162.311 92.4948 160.173 102.868 156.281 112.337C153.745 118.506 150.478 124.292 146.551 129.591C146.084 130.251 145.578 130.913 145.074 131.555C134.579 144.953 119.949 154.961 103.095 159.652C96.1625 161.597 88.8475 162.624 81.3066 162.624C78.4397 162.624 75.6075 162.485 72.81 162.189C70.9856 161.996 69.1786 161.736 67.3889 161.423C65.4081 161.075 63.462 160.658 61.5334 160.174C61.1685 160.087 60.7862 159.998 60.4214 159.894C60.0912 159.809 59.7784 159.722 59.4483 159.633C56.6856 158.87 53.9751 157.948 51.3515 156.888C46.1753 154.838 41.239 152.249 36.6519 149.208C35.8196 148.654 35.0012 148.096 34.1845 147.507C33.5938 147.106 33.0204 146.69 32.4644 146.256C29.7538 144.204 27.1823 141.999 24.7498 139.619C23.9679 138.871 23.2224 138.09 22.4736 137.306C17.6606 132.25 13.5253 126.551 10.1544 120.382C3.86455 108.862 0.285217 95.6589 0.285217 81.6178C0.285217 36.8762 36.565 0.615566 81.3066 0.615566C126.048 0.615566 162.311 36.8762 162.311 81.6178Z" fill="#F7F5FF"/>
<path d="M57.697 40.7196C57.697 40.7196 48.832 48.5976 48.071 56.5938C47.3117 64.5917 47.3117 64.5917 47.3117 64.5917C47.3117 64.5917 36.6207 68.1102 33.5279 81.8506C29.33 100.503 41.3989 107.144 41.3989 107.144L134.698 118.895C134.698 118.895 145.538 108.822 143.172 92.4096C140.802 75.9951 131.72 70.6783 131.72 70.6783C131.72 70.6783 133.094 60.1592 127.989 49.5185C122.102 37.2376 110.278 36.9822 110.278 36.9822L57.697 40.7196Z" fill="black"/>
<path d="M146.551 129.591C146.084 130.251 145.578 130.913 145.074 131.555C134.579 144.953 119.949 154.961 103.095 159.652C96.1625 161.597 88.8475 162.624 81.3066 162.624C78.4397 162.624 75.6075 162.485 72.8101 162.189C70.9856 161.996 69.1786 161.736 67.3889 161.423C65.4081 161.075 63.462 160.658 61.5334 160.174C61.1685 160.087 60.7863 159.998 60.4214 159.894C57.3286 159.079 54.2879 158.071 51.3515 156.888C46.1754 154.838 41.239 152.249 36.6519 149.208C35.8196 148.654 35.0012 148.096 34.1846 147.507C34.2888 146.065 34.3757 145.299 34.3757 145.299L48.2065 101.671L49.5618 97.3599C50.3784 94.7901 52.0291 92.6355 54.2184 91.209C55.3304 90.4636 56.6006 89.9059 57.9732 89.6105C60.51 89.0197 63.6532 88.3768 67.2499 87.7704C68.362 87.614 69.4913 87.4229 70.6728 87.2666C74.3912 86.7453 78.4744 86.3439 82.6792 86.1528C85.216 86.0485 87.7528 86.0329 90.307 86.1198C91.4364 86.1528 92.5832 86.2049 93.73 86.2918C95.0505 86.3978 96.3536 86.5177 97.6741 86.6758C99.1511 86.8478 100.593 87.0737 102.053 87.3691C105.354 87.9963 108.586 88.8807 111.661 90.0622C119.793 93.2419 126.865 99.7942 132.703 107.125C138.715 114.702 143.389 123.128 146.551 129.591Z" fill="#F74D76"/>
<path d="M93.9837 82.1947C93.9837 82.1947 99.9835 84.1616 101.803 86.9521C103.843 90.0831 100.029 98.3242 89.176 104.734C81.2459 109.417 74.5546 111.073 74.5546 111.073C74.5546 111.073 67.6496 101.525 66.3256 95.7197C65.0016 89.9163 69.8615 82.3024 69.8615 82.3024L93.9837 82.1947Z" fill="#80BAFF"/>
<path d="M62.2162 54.5852C62.2162 54.5852 55.0003 43.564 55.0559 38.1585C55.1132 32.753 73.1367 13.7044 91.989 19.0004C110.84 24.2947 115.79 47.1294 113.401 57.301C107.25 83.4926 84.2656 75.6667 84.2656 75.6667C84.2656 75.6667 48.9084 70.9198 62.2162 54.5852Z" fill="black"/>
<path d="M69.8006 81.8246L69.8615 82.3024L71.3592 91.2716L72.5042 98.3086C72.5042 98.3086 72.0976 100.025 80.2658 98.4928C91.2071 96.3973 94.1853 91.2264 94.1853 91.2264L92.6458 74.5929L89.3774 75.6355L69.8006 81.8246Z" fill="#FC8165"/>
<path d="M69.8615 82.3025L71.3593 91.2717C76.6396 89.9703 86.1161 86.4656 89.0334 77.5538C89.2524 76.8327 89.3793 76.1916 89.3827 75.6703L69.8789 82.1618L69.8615 82.3025Z" fill="black"/>
<path d="M61.1269 39.5642C61.1269 39.5642 53.7162 64.2911 59.014 77.0342C64.3117 89.7773 76.0784 86.2414 82.959 82.8184C89.8414 79.3955 92.6458 74.5808 92.6458 74.5808C92.6458 74.5808 99.6376 76.0438 103.372 69.2518C107.109 62.4597 103.471 55.6225 99.4361 54.4444C95.4015 53.2664 91.1758 56.5886 91.1758 56.5886L93.9229 49.3309C93.9229 49.3309 74.6744 16.4758 61.1269 39.5642Z" fill="#FC8165"/>
<path d="M65.7348 69.389C65.4064 69.389 65.0902 69.2014 64.9442 68.8817C62.7271 64.0114 65.634 58.4078 65.7574 58.1715C65.9832 57.7458 66.5063 57.5877 66.932 57.8101C67.3542 58.0325 67.5175 58.559 67.2951 58.9829C67.2673 59.0333 64.6645 64.0757 66.5254 68.1606C66.7252 68.5968 66.5323 69.111 66.0944 69.3109C65.978 69.3647 65.8564 69.389 65.7348 69.389Z" fill="black"/>
<path d="M93.4885 67.5855C93.3095 67.5855 93.1323 67.5317 92.9777 67.4187C92.5885 67.1372 92.505 66.5934 92.7865 66.2059L98.2928 58.6355C98.576 58.2462 99.1181 58.1646 99.5056 58.4443C99.8948 58.7258 99.9782 59.2696 99.6967 59.6571L94.1905 67.2276C94.0219 67.4621 93.7561 67.5855 93.4885 67.5855Z" fill="black"/>
<path d="M100.003 64.9114C99.9818 64.9114 95.4867 64.809 95.4867 64.809C95.0089 64.7985 94.6284 64.4006 94.6389 63.9211C94.651 63.4398 95.0455 63.0905 95.5285 63.0714L100.023 63.1739C100.501 63.1843 100.882 63.5822 100.871 64.0618C100.861 64.5361 100.475 64.9114 100.003 64.9114Z" fill="black"/>
<path d="M68.9597 74.2507C69.4114 75.1091 70.1082 76.0804 70.8084 76.2993C71.0135 76.3618 71.3036 76.4 71.7397 76.1099C73.0359 75.2394 74.214 73.0935 74.9855 71.3525L68.9597 74.2507ZM71.0812 78.0803C70.8154 78.0803 70.5495 78.0385 70.2854 77.9551C68.2855 77.3262 67.1283 74.4749 67.0049 74.1517C66.8399 73.7294 67.0276 73.2516 67.4376 73.0553L76.2208 68.8313C76.5371 68.6802 76.9089 68.7323 77.1678 68.9616C77.4319 69.1893 77.5292 69.5542 77.4232 69.8843C77.345 70.1206 75.5015 75.6772 72.7075 77.552C72.1845 77.903 71.6337 78.0803 71.0812 78.0803Z" fill="black"/>
<path d="M77.1418 50.3735C76.8672 50.3735 76.5928 50.2432 76.426 49.9964C75.1506 48.1425 72.4539 49.0495 72.3375 49.0877C71.8927 49.2458 71.3888 49.0078 71.2325 48.5543C71.0743 48.1043 71.3089 47.609 71.7607 47.4492C71.9275 47.3901 75.8213 46.0505 77.8577 49.013C78.1287 49.4091 78.0297 49.9495 77.6335 50.2206C77.4841 50.3248 77.3103 50.3735 77.1418 50.3735Z" fill="black"/>
<path d="M58.1644 50.2813C57.9611 50.2813 57.756 50.2101 57.591 50.0659C57.2313 49.7479 57.1948 49.2006 57.511 48.8409C57.5823 48.7592 59.3112 46.8114 61.4258 46.8028C62.4718 46.8028 63.4308 47.2667 64.211 48.1441C64.5307 48.5021 64.4994 49.0511 64.1415 49.3708C63.7801 49.6871 63.2328 49.6558 62.9148 49.2996C62.4613 48.7888 61.9783 48.5403 61.4414 48.5403C60.3363 48.542 59.1722 49.5863 58.816 49.9877C58.644 50.1805 58.4059 50.2813 58.1644 50.2813Z" fill="black"/>
<path d="M91.1759 56.5885C91.1759 56.5885 80.2659 52.6512 75.6163 45.7532C70.9666 38.8517 70.3567 35.1716 70.3567 35.1716C70.3567 35.1716 69.4758 40.2 65.8877 41.816C62.3015 43.4336 59.9975 43.8593 59.9975 43.8593L58.4946 51.0406L57.9455 34.4488C57.9455 34.4488 67.3699 27.7454 68.7235 27.5734C70.077 27.3996 87.5566 28.2736 88.6756 29.1754C89.7963 30.0772 96.882 42.6569 96.882 42.6569L98.0235 48.6045L91.1759 56.5885Z" fill="black"/>
<path d="M93.4573 83.3711C93.4573 83.3711 81.7775 94.3818 74.9368 94.4461C68.0961 94.5104 69.0552 88.82 69.0552 88.82L70.1846 101.945L76.226 103.926L91.3322 97.8378L99.8114 88.3491L93.4573 83.3711Z" fill="#80BAFF"/>
<path d="M81.1017 104.588C81.1017 104.588 86.2239 111.597 87.2664 122.591C88.3072 133.582 81.9253 145.938 81.9253 145.938C81.9253 145.938 71.6912 134.335 70.3359 125.574C68.9823 116.813 73.6685 104.376 73.6685 104.376C73.6685 104.376 69.031 114.928 67.8842 121.383C66.7375 127.84 65.1546 136.142 65.1546 136.142C65.1546 136.142 58.9463 127.908 59.3181 118.136C59.6882 108.364 70.1847 101.945 70.1847 101.945L81.1017 104.588Z" fill="#80BAFF"/>
<path d="M72.6311 95.3861C72.2419 95.3861 72.0872 95.5233 71.9865 95.6623C71.1941 96.757 71.9899 100.298 73.0429 103.334C73.9256 100.621 74.6049 97.2991 73.7865 95.9594C73.5728 95.605 73.2635 95.4313 72.7909 95.3913C72.7336 95.3878 72.6797 95.3861 72.6311 95.3861ZM79.7898 107.768C76.9749 107.768 73.3452 106.784 72.8309 106.642C72.7701 106.623 72.7319 106.609 72.6919 106.591C72.5042 106.503 72.3479 106.348 72.261 106.143C71.6442 104.685 68.666 97.2887 70.5773 94.6441C70.944 94.1368 71.6546 93.5599 72.9334 93.6607C73.9586 93.7441 74.7683 94.2289 75.2722 95.0559C76.8064 97.5788 75.0636 102.97 74.2279 105.208C76.2087 105.684 79.6403 106.334 81.2354 105.877C82.9086 105.394 83.8625 99.6708 83.197 96.4407C83.1015 95.9699 83.4038 95.5112 83.8747 95.4139C84.3316 95.3183 84.8043 95.6189 84.9016 96.0915C85.4923 98.9775 85.1136 106.567 81.7184 107.547C81.1711 107.703 80.5056 107.768 79.7898 107.768Z" fill="white"/>
<path d="M78.6951 110.725C78.0731 114.659 77.7708 119.253 78.8741 120.626C79.0427 120.834 79.2182 120.924 79.4649 120.924C79.7151 120.923 79.8263 120.838 79.9218 120.699C80.8149 119.418 79.9131 114.812 78.6951 110.725ZM79.4649 122.662C78.6882 122.662 78.0175 122.334 77.5188 121.713C75.0932 118.693 77.3555 108.247 77.6214 107.066C77.7048 106.689 78.0297 106.414 78.4119 106.39C78.7855 106.353 79.1521 106.597 79.2842 106.96C79.9896 108.901 83.4091 118.733 81.3484 121.691C80.9088 122.321 80.2607 122.658 79.4753 122.662C79.4718 122.662 79.4684 122.662 79.4649 122.662Z" fill="white"/>
<path d="M59.4484 159.633C56.6857 158.87 53.9752 157.948 51.3515 156.888C46.1754 154.838 41.239 152.249 36.6519 149.208C35.8196 148.654 35.0012 148.096 34.1846 147.507C33.5938 147.106 33.0205 146.69 32.4644 146.256C29.7539 144.204 27.1823 141.999 24.7498 139.619C23.9679 138.871 23.2225 138.09 22.4736 137.306C27.3561 118.612 35.5225 106.847 42.3684 99.7942C48.8147 93.1551 54.9829 90.6877 55.3669 90.5487C55.2609 90.7746 54.2879 90.9675 54.2184 91.209C53.5061 93.8518 53.1759 97.6223 53.1411 102.192C53.089 116.874 56.2165 139.773 59.4484 159.633Z" fill="#F74D76"/>
<path d="M74.5963 60.015C74.1167 60.015 73.7275 59.6258 73.7275 59.1462V55.6764L71.6685 54.0587C71.2915 53.7616 71.2255 53.216 71.5209 52.839C71.818 52.4602 72.367 52.3977 72.7423 52.6931L75.1332 54.5696C75.3434 54.7347 75.4651 54.9866 75.4651 55.2524V59.1462C75.4651 59.6258 75.0758 60.015 74.5963 60.015Z" fill="black"/>
<path d="M61.3823 60.015C60.9028 60.015 60.5135 59.6258 60.5135 59.1462V55.6764L58.4562 54.0587C58.0775 53.7616 58.0132 53.216 58.3086 52.839C58.6075 52.4602 59.1531 52.3977 59.5284 52.6931L61.9192 54.5696C62.1294 54.7347 62.2511 54.9866 62.2511 55.2524V59.1462C62.2511 59.6258 61.8636 60.015 61.3823 60.015Z" fill="black"/>
</svg>
