<svg width="163" height="164" viewBox="0 0 163 164" fill="none" xmlns="http://www.w3.org/2000/svg">
<path d="M0.484985 82.011C0.484985 95.929 3.99658 109.028 10.1996 120.463C11.64 123.173 13.2733 125.797 15.0282 128.316C20.0844 135.595 26.3413 142.008 33.4808 147.238C33.5173 147.29 33.5677 147.308 33.6042 147.342C34.0716 147.688 34.5425 148.037 35.029 148.35C43.8192 154.536 53.8969 159.001 64.7739 161.277C70.162 162.424 75.7551 163.015 81.489 163.015C94.6422 163.015 107.048 159.887 118.029 154.31C124.373 151.113 130.227 147.1 135.474 142.408C138.291 139.869 140.949 137.16 143.397 134.259C144.511 132.955 145.569 131.616 146.577 130.245C149.272 126.631 151.67 122.791 153.736 118.742C159.35 107.709 162.51 95.234 162.51 82.011C162.51 37.2694 126.231 0.989654 81.489 0.989654C36.7665 0.989654 0.484985 37.2694 0.484985 82.011Z" fill="#F7F5FF"/>
<path d="M56.9602 62.7869C58.2269 57.1243 62.503 53.2602 66.5097 54.1548L68.5948 54.4678C68.8485 54.4888 69.1004 54.5248 69.3523 54.5804C73.3573 55.4769 75.5797 60.7955 74.3113 66.458C73.0446 72.1227 68.7685 75.9866 64.7618 75.0901L62.6749 74.7792C62.423 74.7603 62.1711 74.7222 61.9174 74.6666C57.9141 73.768 55.6918 68.4515 56.9602 62.7869Z" fill="#FFAF45"/>
<path d="M10.1996 120.463C11.64 123.173 13.2733 125.797 15.0282 128.316C20.0844 135.595 26.3413 142.008 33.4808 147.238C33.5173 147.29 33.5677 147.308 33.6042 147.342C34.0716 147.688 34.5425 148.037 35.029 148.35C43.8192 154.536 53.8969 159.001 64.7739 161.277C70.162 162.424 75.7551 163.015 81.489 163.015C94.6422 163.015 107.048 159.887 118.029 154.31C124.373 151.113 130.227 147.1 135.474 142.408C138.291 139.869 140.949 137.16 143.397 134.259C144.511 132.955 145.569 131.616 146.577 130.245C133.702 114.745 122.373 111.618 122.373 111.618C122.738 111.219 126.717 106.528 122.373 98.0832C116.657 86.9284 98.9009 80.0306 98.9009 80.0306L67.5557 78.1709C67.5557 78.1709 54.3678 79.1252 44.6028 90.3491C36.5215 99.5947 37.9636 105.468 38.7299 107.258C38.8689 107.64 39.0062 107.831 39.0062 107.831C39.0062 107.831 25.4725 112.279 10.1996 120.463Z" fill="#8758E7"/>
<path d="M38.7248 107.254C45.2284 111.367 55.6449 116.517 70.3427 119.743C97.8288 125.813 122.373 111.618 122.373 111.618C122.742 111.215 126.721 106.535 122.373 98.0744C116.655 86.923 98.9009 80.0339 98.9009 80.0339L67.5505 78.1784C67.5505 78.1784 54.3747 79.1298 44.5941 90.3491C36.518 99.5968 37.955 105.466 38.7248 107.254Z" fill="#ADA4F7"/>
<path d="M94.3485 100.625C94.3485 100.625 106.768 94.1439 106.026 90.3526C105.283 86.562 93.2295 84.0195 85.5096 85.4773C77.788 86.9331 59.53 87.1592 59.53 93.8039C59.53 99.6762 67.9084 105.329 67.9084 105.329L85.5096 100.25L94.3485 100.625Z" fill="#8758E7"/>
<path d="M94.7812 81.1892L94.3485 100.625C94.3485 100.625 90.7206 106.135 79.3275 106.808C70.8414 107.308 67.9084 105.329 67.9084 105.329L69.3071 95.5082L70.685 85.934L91.3183 81.8753L94.7812 81.1892Z" fill="#FC8165"/>
<path d="M91.3183 81.8753C91.2574 82.4034 91.042 83.0279 90.7119 83.7385C86.1474 93.3499 74.2104 95.1797 69.3071 95.5082L70.685 85.9341L91.3183 81.8753Z" fill="black"/>
<path d="M67.3368 41.5351C67.3368 41.5351 56.5936 65.6782 60.3154 79.3077C64.0337 92.9365 76.4432 90.8778 83.8764 88.2995C91.3096 85.7168 94.7829 81.1945 94.7829 81.1945C94.7829 81.1945 101.693 83.5884 106.371 77.1772C111.048 70.7672 108.245 63.3516 104.299 61.6295C100.357 59.9076 95.6343 62.7332 95.6343 62.7332L99.3665 55.7207C99.3665 55.7207 84.0971 19.8541 67.3368 41.5351Z" fill="#FC8165"/>
<path d="M68.2473 72.4057C67.8754 72.4057 67.5331 72.1682 67.4167 71.7941C65.8008 66.5714 69.4757 61.2665 69.6321 61.0424C69.9083 60.6528 70.4487 60.5559 70.8414 60.8321C71.2341 61.1082 71.3279 61.6505 71.0534 62.0415C71.0204 62.0905 67.7156 66.8822 69.0778 71.2817C69.2203 71.7385 68.9614 72.2272 68.5027 72.3676C68.4193 72.3935 68.3324 72.4057 68.2473 72.4057Z" fill="black"/>
<path d="M96.663 74.154C96.4562 74.154 96.2494 74.0774 96.0878 73.9246C95.7525 73.6098 95.7368 73.0804 96.0548 72.7443L102.633 65.7739C102.949 65.4385 103.478 65.4229 103.815 65.7393C104.15 66.0548 104.166 66.5849 103.848 66.9203L97.2693 73.8915C97.1042 74.0652 96.8836 74.154 96.663 74.154Z" fill="black"/>
<path d="M103.627 72.2876C103.585 72.2876 103.542 72.2843 103.5 72.2775L98.9494 71.5872C98.4924 71.5181 98.1797 71.0904 98.2492 70.6355C98.317 70.1768 98.7444 69.8571 99.1996 69.9331L103.752 70.6248C104.207 70.6946 104.522 71.1202 104.452 71.577C104.39 71.9903 104.033 72.2876 103.627 72.2876Z" fill="black"/>
<path d="M95.6342 62.7332C95.6342 62.7332 93.1339 64.3729 91.3182 61.5305C89.5007 58.69 93.4762 50.2921 93.4762 50.2921C93.4762 50.2921 85.9787 51.993 81.3447 49.5137C76.709 47.0342 74.4362 40.2111 74.4362 40.2111C74.4362 40.2111 71.0255 47.3193 60.7897 44.1918C50.5556 41.0642 48.6043 27.1361 59.53 24.2918C70.4574 21.4491 76.4257 26.2812 76.4257 26.2812C76.4257 26.2812 77.8106 16.1722 91.3182 21.1642C103.625 25.7131 105.707 41.1302 105.707 41.1302C105.707 41.1302 113.098 41.476 114.52 49.5137C115.939 57.5519 106.534 63.3691 106.534 63.3691C106.534 63.3691 101.196 60.2362 95.6342 62.7332Z" fill="black"/>
<path d="M79.2198 63.3738C79.1833 63.3738 79.1451 63.3726 79.1086 63.3671C78.6342 63.3068 78.2954 62.8724 78.3562 62.396L78.9313 57.8837C78.9939 57.4073 79.4335 57.0598 79.9044 57.131C80.3787 57.192 80.7176 57.6264 80.6568 58.1042L80.0816 62.6164C80.0243 63.0529 79.6507 63.3738 79.2198 63.3738Z" fill="black"/>
<path d="M65.8251 62.2988C65.7834 62.2988 65.7417 62.2953 65.6982 62.29C65.2239 62.2187 64.8937 61.7776 64.9632 61.3044L65.6252 56.8046C65.6964 56.3288 66.1534 56.0124 66.6122 56.0694C67.0865 56.1408 67.4167 56.582 67.3454 57.0549L66.6851 61.555C66.6191 61.9873 66.249 62.2988 65.8251 62.2988Z" fill="black"/>
<path d="M83.4212 54.7263C83.1085 54.7263 82.8026 54.5546 82.6497 54.2538C81.5776 52.1709 78.6325 52.7837 78.5978 52.7858C78.1269 52.8883 77.6647 52.5889 77.5657 52.12C77.4649 51.6529 77.762 51.1888 78.2312 51.0896C78.4084 51.0515 82.5229 50.1998 84.1944 53.4598C84.415 53.8874 84.2465 54.41 83.819 54.6291C83.6922 54.695 83.5567 54.7263 83.4212 54.7263Z" fill="black"/>
<path d="M70.3427 51.9374C70.0665 51.9374 69.7954 51.8057 69.6268 51.5586C69.2255 50.9736 68.7598 50.6574 68.2073 50.5875C66.8433 50.4171 65.3612 51.7046 65.3455 51.7188C64.9876 52.0385 64.4386 52.0072 64.1206 51.6443C63.8009 51.2858 63.8356 50.7368 64.1952 50.4191C64.2787 50.3444 66.2838 48.598 68.4192 48.8621C69.4826 48.9945 70.3705 49.5714 71.0585 50.5793C71.3296 50.9736 71.2306 51.5152 70.8327 51.7847C70.6832 51.8893 70.513 51.9374 70.3427 51.9374Z" fill="black"/>
<path d="M80.9191 122.772C80.4604 122.772 80.0782 122.414 80.0521 121.952C80.0243 121.472 80.3909 121.062 80.8705 121.036C106.075 119.623 116.106 113.743 116.205 113.684C116.617 113.438 117.15 113.568 117.397 113.978C117.645 114.388 117.515 114.922 117.105 115.172C116.692 115.422 106.683 121.332 80.9678 122.77C80.9522 122.772 80.9347 122.772 80.9191 122.772Z" fill="#50447E"/>
<path d="M46.2048 145.77C46.0554 145.77 45.9025 145.73 45.7635 145.65C45.3499 145.405 45.2127 144.872 45.4577 144.458L55.8604 126.867C56.1071 126.455 56.6388 126.322 57.0523 126.561C57.4641 126.806 57.6014 127.34 57.3564 127.754L46.9537 145.344C46.7904 145.617 46.5019 145.77 46.2048 145.77Z" fill="#50447E"/>
<path d="M80.0624 150.765C79.6697 150.765 79.3152 150.501 79.2179 150.104L74.339 130.257C74.2226 129.793 74.5092 129.321 74.9749 129.208C75.451 129.093 75.9115 129.377 76.0261 129.844L80.9051 149.69C81.0215 150.154 80.7366 150.626 80.2692 150.739C80.1997 150.757 80.1302 150.765 80.0624 150.765Z" fill="#50447E"/>
<path d="M46.2048 112.48C46.0675 112.48 45.9303 112.447 45.8 112.38L38.603 108.59C38.1791 108.368 38.0175 107.843 38.2399 107.417C38.4658 106.992 38.9854 106.833 39.4146 107.054L46.6114 110.842C47.0354 111.066 47.1987 111.59 46.9745 112.017C46.8182 112.312 46.5175 112.48 46.2048 112.48Z" fill="#50447E"/>
<path d="M90.2931 69.8761C89.5564 75.6344 92.2582 80.7214 96.331 81.2448C100.404 81.766 104.303 77.5226 105.04 71.7663C105.778 66.01 103.074 60.9191 99.0016 60.3978C94.9306 59.8751 91.0315 64.1198 90.2931 69.8761Z" fill="#FFAF45"/>
<path d="M99.0017 60.3978L101.82 60.9658L99.1476 81.8129L96.331 81.2447L93.2556 77.9367L92.3607 66.3785L99.0017 60.3978Z" fill="#FFAF45"/>
<path d="M93.1114 70.4443C92.3746 76.2025 95.0765 81.2917 99.1476 81.813C103.22 82.3362 107.119 78.0928 107.858 72.3346C108.596 66.5783 105.893 61.4892 101.82 60.9659C97.7489 60.4446 93.8481 64.6894 93.1114 70.4443Z" fill="#80BAFF"/>
<path d="M103.863 34.5711C103.863 34.5711 106.972 38.2929 107.846 41.5734C108.72 44.8556 103.625 65.5703 103.625 65.5703L97.1946 64.1111L103.863 34.5711Z" fill="#80BAFF"/>
<path d="M74.0071 79.231C73.4893 79.231 72.9472 79.1651 72.3825 79.0172C71.9168 78.897 71.6388 78.4213 71.7604 77.9591C71.8821 77.4969 72.3478 77.2071 72.8204 77.3367C76.3389 78.2543 78.3874 74.9184 78.4725 74.7759C78.7158 74.3638 79.251 74.2267 79.6628 74.4751C80.0746 74.7188 80.2101 75.2503 79.9668 75.6622C79.1589 77.0245 77.0026 79.231 74.0071 79.231Z" fill="black"/>
</svg>
