<svg width="163" height="163" viewBox="0 0 163 163" fill="none" xmlns="http://www.w3.org/2000/svg">
<path d="M162.727 81.004C162.727 95.5472 158.886 109.204 152.163 121.019C150.217 124.442 148.026 127.709 145.595 130.802C142.172 135.215 138.28 139.246 134.006 142.86C131.608 144.893 129.071 146.805 126.43 148.559C124.206 150.036 121.912 151.392 119.532 152.66C119.011 152.938 118.488 153.199 117.951 153.459C114.632 155.145 111.174 156.587 107.613 157.786C99.4809 160.514 90.7758 162.008 81.7232 162.008C66.3617 162.008 51.994 157.734 39.7617 150.297C39.2231 149.984 38.6845 149.637 38.1458 149.289C38.0068 149.22 37.8852 149.133 37.7461 149.046C32.6204 145.727 27.8943 141.853 23.6547 137.491C22.8728 136.675 22.0909 135.841 21.3264 134.989C20.4403 134.016 19.5889 133.008 18.7549 131.983C16.3571 129.03 14.1678 125.902 12.2043 122.635C4.90669 110.455 0.701904 96.2248 0.701904 81.004C0.701904 36.2624 36.9816 -1.5534e-05 81.7232 -1.5534e-05C126.447 -1.5534e-05 162.727 36.2624 162.727 81.004Z" fill="#F7F5FF"/>
<path d="M105.62 39.4352C105.62 39.4352 124.074 42.4603 130.786 65.6077C137.497 88.7535 133.53 118.707 133.53 118.707L99.467 108.478L100.947 67.3696L105.62 39.4352Z" fill="#EA366E"/>
<path d="M145.456 130.802C142.033 135.215 138.141 139.246 133.867 142.86C131.469 144.893 128.932 146.805 126.291 148.559C120.488 152.399 114.18 155.527 107.474 157.786C99.3419 160.514 90.6368 162.008 81.5843 162.008C65.3731 162.008 50.2738 157.247 37.6072 149.046C32.4815 145.727 27.7553 141.853 23.5157 137.491C23.9328 134.659 24.4887 131.34 25.2185 127.796C25.5834 126.058 25.983 124.251 26.4348 122.41C27.6163 117.701 29.0932 112.784 30.9872 108.058C31.6474 106.424 32.3598 104.808 33.107 103.245C38.0416 93.0452 45.2002 84.7397 55.4864 83.3497C55.8861 83.2976 56.3031 83.2455 56.7027 83.1934C81.8796 80.0137 107.856 84.3054 114.198 85.4869C115.153 85.6606 115.657 85.7649 115.657 85.7649C115.657 85.7649 125.579 91.3598 134.631 105.555C135.535 106.98 136.438 108.509 137.324 110.108C139.514 114.104 141.599 118.674 143.354 123.834C143.927 125.45 144.448 127.101 144.918 128.838C145.109 129.481 145.282 130.142 145.456 130.802Z" fill="#8758E7"/>
<path d="M89.881 72.9019C89.881 72.9019 100.4 73.3711 106.459 58.6889C112.518 44.0067 104.938 32.5216 104.938 32.5216L91.7315 39.4352L84.5537 65.6616L89.881 72.9019Z" fill="#EA366E"/>
<path d="M126.291 148.559C120.488 152.399 114.18 155.527 107.473 157.786C99.3418 160.514 90.6368 162.008 81.5842 162.008C65.373 162.008 50.2738 157.247 37.6071 149.046C37.6071 124.634 38.3195 96.8678 41.534 91.2555C43.6538 87.5372 49.7351 84.9656 56.7026 83.1934C69.3172 79.9789 84.7812 79.3708 84.7812 79.3708C84.7812 79.3708 101.826 78.7974 114.198 85.4869C116.231 86.5815 118.142 87.8847 119.827 89.4137C125.996 95.0086 126.882 122.913 126.291 148.559Z" fill="#8758E7"/>
<path d="M89.5073 66.5565L90.9721 83.8432C90.9721 83.8432 88.2772 89.0767 78.2325 90.7569C70.7506 92.0062 67.9601 90.5275 67.9601 90.5275L68.2677 81.6835L68.5804 73.0566L86.5014 67.493L89.5073 66.5565Z" fill="#FC907E"/>
<path d="M86.5015 67.4929C86.4963 67.969 86.3642 68.5424 86.14 69.2044C83.0038 78.1666 72.5855 80.9258 68.2678 81.6834L68.5805 73.0565L86.5015 67.4929Z" fill="black"/>
<path d="M61.3854 33.9811C61.3854 33.9811 54.1503 56.4249 58.7478 68.1637C63.3453 79.9025 74.1598 76.8965 80.5087 73.901C86.8594 70.9055 89.5108 66.5599 89.5108 66.5599C89.5108 66.5599 95.8703 68.0264 99.4096 61.8946C102.949 55.7628 99.7571 49.4486 96.0944 48.2966C92.4299 47.1429 88.5101 50.0985 88.5101 50.0985L91.1563 43.5219C91.1563 43.5219 74.1963 13.1515 61.3854 33.9811Z" fill="#FC907E"/>
<path d="M89.881 59.5577C89.636 59.5577 89.391 59.4534 89.2207 59.2536C88.908 58.8887 88.9497 58.3414 89.3146 58.0286L96.6296 51.7683C96.9962 51.459 97.5453 51.499 97.8545 51.8639C98.1673 52.2287 98.1256 52.7761 97.7607 53.0888L90.4457 59.3492C90.2807 59.4882 90.0809 59.5577 89.881 59.5577Z" fill="black"/>
<path d="M96.9736 58.8592C96.9232 58.8592 96.8763 58.8557 96.8277 58.847L91.5856 57.9626C91.1129 57.8827 90.7932 57.4344 90.8731 56.9618C90.9531 56.4874 91.41 56.1799 91.8739 56.2494L97.1161 57.1338C97.5887 57.2137 97.9084 57.662 97.8285 58.1346C97.7572 58.5586 97.3889 58.8592 96.9736 58.8592Z" fill="black"/>
<path d="M76.5802 42.052C76.3474 42.052 76.1128 41.9564 75.9408 41.7705C73.5743 39.1903 71.1052 40.7662 70.9992 40.834C70.5978 41.0946 70.0592 40.9851 69.7968 40.5838C69.5345 40.1824 69.6457 39.6438 70.047 39.3814C71.3554 38.5231 74.5438 37.6734 77.2196 40.5959C77.5463 40.9487 77.5202 41.4994 77.1675 41.8243C77.0006 41.9772 76.7904 42.052 76.5802 42.052Z" fill="black"/>
<path d="M59.7435 42.6618C59.5176 42.6618 59.2917 42.5732 59.1214 42.3995C58.7861 42.0572 58.793 41.5064 59.1353 41.171C61.5418 38.8167 63.3992 39.4196 63.6025 39.496C64.0508 39.6646 64.2802 40.165 64.1134 40.615C63.9466 41.0546 63.46 41.2822 63.0204 41.1328C62.9388 41.1085 61.9137 40.8809 60.3499 42.4134C60.1831 42.5784 59.9624 42.6618 59.7435 42.6618Z" fill="black"/>
<path d="M63.6927 60.3395C63.3 60.3395 62.9438 60.0702 62.8483 59.6706C61.0725 52.1818 65.465 48.5451 65.6527 48.394C66.028 48.0951 66.5736 48.1525 66.8741 48.526C67.1747 48.8996 67.1156 49.4434 66.7455 49.7458C66.5926 49.8709 63.0272 52.8907 64.5389 59.271C64.6484 59.7366 64.3599 60.2058 63.8943 60.3152C63.8248 60.3309 63.7587 60.3395 63.6927 60.3395Z" fill="black"/>
<path d="M60.5271 50.9603C60.475 50.9603 60.421 50.9551 60.3672 50.9464C59.8963 50.8595 59.5836 50.406 59.6705 49.9352L60.3464 46.2672L59.2691 44.9241C58.972 44.5488 59.031 44.0032 59.4064 43.7009C59.7834 43.402 60.329 43.4628 60.6278 43.8381L61.9501 45.4923C62.1083 45.6886 62.1708 45.944 62.1274 46.1925L61.3802 50.2479C61.302 50.6666 60.9372 50.9603 60.5271 50.9603Z" fill="black"/>
<path d="M70.5144 64.4731C70.9557 64.6555 71.4543 64.7563 71.8678 64.5895C72.3961 64.3758 72.8218 63.7242 73.1154 62.7026L70.5144 64.4731ZM71.4127 66.4104C69.8176 66.4104 68.4206 65.2307 68.3493 65.1698C68.146 64.9926 68.0331 64.732 68.0487 64.4627C68.0644 64.1916 68.2034 63.9449 68.4276 63.7937L73.8469 60.1015C74.1267 59.9103 74.4898 59.8999 74.78 60.0719C75.0702 60.2457 75.2353 60.5706 75.1988 60.9077C74.8999 63.8285 73.9964 65.6094 72.5108 66.2037C72.1424 66.3496 71.7723 66.4104 71.4127 66.4104Z" fill="black"/>
<path d="M73.2231 50.2461C73.1693 50.2461 73.1172 50.2427 73.0633 50.2323C72.5907 50.1454 72.2796 49.6919 72.3665 49.221L73.0338 45.5913L71.6229 44.0657C71.2962 43.7148 71.3188 43.1639 71.6698 42.839C72.026 42.5124 72.5733 42.535 72.8982 42.8859L74.6062 44.7312C74.7904 44.9327 74.872 45.209 74.8234 45.4783L74.0763 49.5355C73.9981 49.9542 73.6332 50.2461 73.2231 50.2461Z" fill="black"/>
<path d="M88.5101 50.0985L86.5015 52.4285L87.5041 49.0716C87.5041 49.0716 82.7745 49.0403 76.5802 45.1256C70.3876 41.2109 68.9159 31.7031 68.9159 31.7031C68.9159 31.7031 66.2332 32.9611 63.3002 35.246C60.3655 37.5309 59.7452 39.9756 59.7452 39.9756C59.7452 39.9756 51.9819 18.4683 68.2678 15.6726C84.5538 12.8752 96.1119 26.6817 96.1119 26.6817C96.1119 26.6817 105.434 27.9761 106.365 37.1104C107.298 46.2446 100.914 53.3286 100.914 53.3286C100.914 53.3286 96.753 45.7511 88.5101 50.0985Z" fill="#EA366E"/>
<path d="M67.9602 90.5274L66.9855 98.3011C66.9855 98.3011 88.4493 89.3111 89.881 85.2783C91.3127 81.2438 68.9159 87.5354 68.9159 87.5354L67.9602 90.5274Z" fill="#FC907E"/>
<path d="M66.9855 99.17C66.8117 99.17 66.6414 99.1196 66.4954 99.0171C66.2418 98.8451 66.0993 98.5531 66.1184 98.2491L66.949 84.2671C66.9768 83.7893 67.3764 83.4366 67.8682 83.4522C68.3477 83.48 68.7126 83.8918 68.6831 84.3714L67.9393 96.8956C72.5056 94.7306 87.5196 87.3982 90.2528 83.3567C90.5238 82.9588 91.0625 82.858 91.4604 83.1239C91.8566 83.3914 91.9625 83.9318 91.6932 84.3297C88.2077 89.485 68.1966 98.7009 67.3469 99.0918C67.2305 99.1439 67.1088 99.17 66.9855 99.17Z" fill="white"/>
<path d="M137.324 110.108C134.544 111.255 130.6 112.749 125.805 114.278C114.962 117.77 99.7763 121.437 84.0689 121.437C82.4704 121.437 80.8718 121.384 79.2559 121.315C62.2802 120.464 48.015 115.79 38.4412 111.619C35.4874 110.351 32.9854 109.117 30.9872 108.058C31.6474 106.424 32.3599 104.808 33.107 103.245C34.6708 104.079 36.5995 105.034 38.8409 106.042C47.9803 110.177 62.4018 115.251 79.5166 116.102C96.5097 116.936 113.729 112.679 125.353 108.892C129.089 107.675 132.251 106.511 134.631 105.555C135.535 106.98 136.438 108.509 137.324 110.108Z" fill="#FFAF45"/>
<path d="M144.918 128.839C141.008 130.472 134.44 133.078 126.447 135.667C113.329 139.924 96.3707 144.181 80.9414 144.181C79.6208 144.181 78.3177 144.146 77.0319 144.094C61.5157 143.312 47.737 138.725 37.6941 134.26C32.3772 131.879 28.1202 129.534 25.2185 127.796C25.5834 126.058 25.983 124.251 26.4348 122.41C28.7978 123.852 32.7074 126.111 37.7983 128.491C47.5459 133.061 61.6026 138.1 77.2925 138.881C93.4169 139.698 112.391 134.816 126.413 130.142C133.832 127.692 139.861 125.294 143.354 123.834C143.927 125.45 144.448 127.101 144.918 128.839Z" fill="#FFAF45"/>
<path d="M43.4973 118.813L39.6227 150.297C39.084 149.984 38.5454 149.637 38.0067 149.289L41.7772 118.604C41.8293 118.118 42.2811 117.788 42.7328 117.84C43.2194 117.909 43.5495 118.344 43.4973 118.813Z" fill="#50447E"/>
<path d="M119.393 152.66C118.872 152.938 118.351 153.199 117.812 153.459L114.458 142.669C114.302 142.217 114.563 141.731 115.032 141.592C115.484 141.436 115.97 141.696 116.109 142.165L119.393 152.66Z" fill="#50447E"/>
</svg>
