<svg width="163" height="163" viewBox="0 0 163 163" fill="none" xmlns="http://www.w3.org/2000/svg">
<path d="M162.776 81.1044C162.776 96.5685 158.432 111.027 150.926 123.328C136.695 146.592 111.049 162.108 81.7719 162.108C57.3595 162.108 35.4665 151.301 20.628 134.221C8.25669 120.01 0.767899 101.416 0.767899 81.1044C0.767899 36.3628 37.0303 0.100387 81.7719 0.100387C126.513 0.100387 162.776 36.3628 162.776 81.1044Z" fill="#F7F5FF"/>
<path d="M89.8271 58.6866C89.8271 58.6866 102.885 52.5027 104.318 62.7437C105.979 74.6094 91.7454 75.2731 91.7454 75.2731L89.8271 58.6866Z" fill="#FC907E"/>
<path d="M96.8242 69.2388C96.6869 69.2388 96.5461 69.2057 96.4176 69.138C95.9919 68.9121 95.832 68.3856 96.0579 67.9634L100.195 60.1949C100.419 59.7727 100.947 59.6128 101.37 59.8352C101.794 60.0611 101.955 60.5876 101.729 61.0115L97.5921 68.7783C97.4358 69.0719 97.1352 69.2388 96.8242 69.2388Z" fill="black"/>
<path d="M98.0995 66.8444C97.6286 66.8444 97.2412 66.4673 97.2307 65.9947C97.2203 65.5151 97.6009 65.1172 98.0822 65.1068L101.872 65.0234C102.339 65.0669 102.749 65.3935 102.76 65.8731C102.77 66.3526 102.39 66.7505 101.91 66.761L98.1186 66.8444C98.1134 66.8444 98.1065 66.8444 98.0995 66.8444Z" fill="black"/>
<path d="M150.926 123.328C145.8 131.701 139.197 139.069 131.483 145.047C130.979 145.463 130.475 145.847 129.954 146.212C116.488 156.218 99.8249 162.108 81.7719 162.108C70.947 162.108 60.6087 159.989 51.1738 156.133C50.6352 155.907 50.0966 155.681 49.5579 155.436C38.3682 150.588 28.499 143.291 20.6279 134.221C23.8771 124.128 29.9411 114.535 40.7486 108.453C68.3407 92.9387 109.659 92.9387 128.042 101.659C139.336 107.011 146.791 116.604 150.926 123.328Z" fill="#8758E7"/>
<path d="M95.1857 46.908C95.1857 46.908 103.816 32.9868 102.073 27.0444C100.332 21.102 92.5586 26.9263 92.5586 26.9263C92.5586 26.9263 90.7915 14.1258 81.2559 16.6105C68.5649 19.9188 55.9591 42.2687 55.9591 42.2687C55.9591 42.2687 49.4972 40.6476 47.3096 46.3137C44.7658 52.9094 46.9968 60.3078 51.0731 66.8914C55.1511 73.4749 66.1897 68.0451 66.1897 68.0451L95.1857 46.908Z" fill="black"/>
<path d="M68.3928 87.2048L68.8533 102.452C68.8533 102.452 74.5003 105.4 81.4104 105.249C90.7428 105.048 93.7453 100.942 93.7453 100.942L92.9216 81.1634L68.3928 87.2048Z" fill="#FC907E"/>
<path d="M68.3859 86.8486C68.3859 86.8486 74.2848 98.306 84.8091 96.3147C93.2935 94.7075 92.9477 82.6925 92.9477 82.6925L68.3859 86.8486Z" fill="black"/>
<path d="M95.1857 46.9078C95.1857 46.9078 99.8527 73.4227 95.1283 83.7871C89.8271 95.4129 76.2569 93.8578 71.3901 90.4071C64.8274 85.7539 61.997 78.2322 61.997 78.2322C61.997 78.2322 53.3041 80.3155 50.1053 73.2854C46.7466 65.8991 51.9662 59.6335 56.3343 59.1053C60.7025 58.5789 61.2446 59.3555 61.2446 59.3555L59.6478 51.3907C59.6478 51.3907 85.1375 20.7509 95.1857 46.9078Z" fill="#FC907E"/>
<path d="M61.2446 59.3556C61.2446 59.3556 66.9246 59.5572 73.3361 54.4575C80.8579 48.4752 79.6695 38.6007 79.6695 38.6007C79.6695 38.6007 93.3612 46.4509 96.7633 56.798C100.167 67.1433 100.117 32.0311 84.9741 33.3047C69.8298 34.5766 49.6205 44.4666 61.2446 59.3556Z" fill="black"/>
<path d="M60.2247 71.0579C60.037 71.0579 59.8459 70.9971 59.686 70.8703L52.6994 65.3345C52.3241 65.0356 52.2615 64.4883 52.5587 64.113C52.8593 63.7394 53.4049 63.6751 53.7802 63.9722L60.7651 69.5081C61.1404 69.8069 61.2047 70.3525 60.9075 70.7278C60.7338 70.945 60.4801 71.0579 60.2247 71.0579Z" fill="black"/>
<path d="M54.0234 72.368C53.7697 72.368 53.5195 72.2585 53.3475 72.0483C53.0452 71.6764 53.1008 71.1291 53.4726 70.825L57.3473 67.6697C57.7226 67.3673 58.2682 67.4247 58.5706 67.7948C58.8729 68.1666 58.8173 68.7139 58.4454 69.0163L54.5707 72.1734C54.4092 72.3054 54.2163 72.368 54.0234 72.368Z" fill="black"/>
<path d="M74.7106 63.2895C74.2692 63.2895 73.8904 62.9524 73.847 62.5041L73.43 58.2211C73.3831 57.7432 73.7323 57.3193 74.2101 57.2724C74.6845 57.2237 75.1119 57.5747 75.1589 58.0525L75.5759 62.3356C75.6228 62.8134 75.2735 63.2374 74.7957 63.2843C74.7679 63.2877 74.7384 63.2895 74.7106 63.2895Z" fill="black"/>
<path d="M91.3926 62.6621C90.9513 62.6621 90.5725 62.3268 90.5291 61.8785L90.112 57.5937C90.0651 57.1159 90.4144 56.692 90.8922 56.645C91.3613 56.612 91.794 56.9491 91.8409 57.4269L92.2579 61.7099C92.3048 62.1878 91.9556 62.6117 91.4778 62.6586C91.4499 62.6604 91.4204 62.6621 91.3926 62.6621Z" fill="black"/>
<path d="M85.2782 73.275C85.2348 73.275 85.1897 73.2715 85.1428 73.2645C84.6684 73.1898 84.3452 72.7433 84.4199 72.2707C85.419 65.9252 83.1654 60.7907 83.1428 60.7403C82.9465 60.3025 83.1428 59.7882 83.5807 59.5919C84.0203 59.3955 84.5346 59.5936 84.7292 60.0315C84.8317 60.2573 87.2139 65.6924 86.1366 72.54C86.0689 72.9692 85.7005 73.275 85.2782 73.275Z" fill="black"/>
<path d="M92.8574 53.6982C92.6662 53.6982 92.4751 53.6356 92.3135 53.507C90.8957 52.3689 88.3363 52.4836 88.3085 52.4853C87.8168 52.5027 87.4206 52.1413 87.3963 51.6618C87.372 51.1839 87.7369 50.7756 88.2164 50.7495C88.3467 50.7443 91.4621 50.5932 93.4012 52.1517C93.7765 52.4523 93.8356 52.9997 93.535 53.3732C93.363 53.587 93.1111 53.6982 92.8574 53.6982Z" fill="black"/>
<path d="M73.2962 54.3515C73.0373 54.3515 72.7801 54.2351 72.6081 54.0144C72.3144 53.6356 72.3839 53.0883 72.7627 52.7964C74.7296 51.2708 77.8381 51.4724 77.9719 51.4811C78.4497 51.5158 78.8094 51.9293 78.7763 52.4072C78.7416 52.8867 78.3524 53.2412 77.8502 53.2151C77.8224 53.2082 75.2665 53.0518 73.8278 54.1691C73.6697 54.2907 73.4821 54.3515 73.2962 54.3515Z" fill="black"/>
<path d="M59.2256 59.4772C59.2256 59.4772 62.2837 67.2388 63.2914 66.8791C64.2992 66.5177 62.1012 54.1742 59.1161 53.7885C56.1328 53.4028 59.2256 59.4772 59.2256 59.4772Z" fill="black"/>
<path d="M84.9811 106.377C88.3033 108.097 93.6532 110.069 95.6843 108.815C96.0666 108.578 96.2925 108.246 96.3933 107.77C96.7599 106.04 95.3681 103.19 94.3708 101.51C91.4951 104.391 88.2216 105.824 84.9811 106.377ZM68.8602 103.564C68.8377 105.649 69.0583 109.715 70.9574 111.977C71.7532 112.924 72.7436 113.436 73.986 113.541C79.7824 114.001 82.7015 107.524 83.0802 106.606C76.9884 107.021 71.3015 104.731 68.8602 103.564ZM74.6323 115.306C74.3752 115.306 74.1128 115.294 73.8417 115.271C72.1372 115.131 70.7177 114.396 69.623 113.089C66.5424 109.414 67.1575 102.387 67.1853 102.09C67.2131 101.793 67.3903 101.534 67.6526 101.399C67.9167 101.263 68.2313 101.268 68.4884 101.42C68.6448 101.51 84.2062 110.387 93.8547 99.524C94.0337 99.3224 94.2961 99.2077 94.5602 99.2338C94.8277 99.2494 95.071 99.3884 95.2222 99.6091C95.5888 100.143 98.7754 104.917 98.0925 108.13C97.8927 109.079 97.3889 109.807 96.5966 110.295C93.4082 112.264 86.7951 109.247 84.3574 108.007C83.3322 110.146 80.2724 115.304 74.6323 115.306Z" fill="#FFAF45"/>
<path d="M82.1211 79.9594C79.5635 79.9594 78.1822 78.3886 77.7669 77.3669C77.5862 76.9221 77.7999 76.4148 78.2447 76.2341C78.686 76.0586 79.1899 76.2636 79.3741 76.7049C79.4749 76.9378 80.4358 78.896 83.7023 77.9855C84.1628 77.8587 84.6441 78.1262 84.7726 78.5884C84.9012 79.0506 84.6319 79.5302 84.1697 79.6588C83.4174 79.869 82.7345 79.9594 82.1211 79.9594Z" fill="black"/>
<path d="M53.1373 145.828L51.1738 156.133C50.6352 155.907 50.0966 155.681 49.558 155.436L51.4519 145.499C51.5387 145.028 51.9905 144.716 52.477 144.802C52.9461 144.908 53.2415 145.343 53.1373 145.828Z" fill="#FFAF45"/>
</svg>
