<svg width="163" height="163" viewBox="0 0 163 163" fill="none" xmlns="http://www.w3.org/2000/svg">
<path d="M162.776 81.7946C162.776 96.5793 158.814 110.445 151.882 122.382C151.621 122.835 151.343 123.285 151.065 123.739C150.422 124.814 149.744 125.892 149.032 126.934C148.737 127.368 148.441 127.803 148.111 128.237C137.547 143.371 121.909 154.665 103.7 159.793C103.317 159.897 102.918 159.999 102.535 160.104C95.9154 161.86 88.9479 162.799 81.7719 162.799C53.7802 162.799 29.0898 148.603 14.5813 127.004C13.2087 125.007 11.9403 122.92 10.7761 120.802C4.39935 109.229 0.767899 95.9382 0.767899 81.7946C0.767899 37.053 37.0303 0.78889 81.7719 0.78889C126.513 0.78889 162.776 37.053 162.776 81.7946Z" fill="#F7F5FF"/>
<path d="M47.049 70.7526C47.049 70.7526 38.3699 24.7096 72.0625 16.2808C105.755 7.85029 107.783 55.6708 107.783 55.6708C107.783 55.6708 144.448 62.647 144.686 98.3013C144.985 142.864 101.919 135.372 101.919 135.372L61.1265 118.757C61.1265 118.757 20.2683 96.5064 47.049 70.7526Z" fill="#FFAF45"/>
<path d="M148.111 128.237C137.547 143.371 121.909 154.665 103.7 159.793C103.317 159.897 102.918 159.999 102.535 160.104C95.9154 161.86 88.9479 162.799 81.7719 162.799C53.7802 162.799 29.0898 148.603 14.5813 127.004C25.4583 112.13 39.098 100.871 48.3764 96.8764C62.103 90.9671 83.8743 87.0072 103.978 92.7567C104.03 92.7741 104.099 92.7741 104.169 92.7932C110.215 94.5308 116.088 97.1371 121.561 100.836C133.394 108.829 142.012 118.107 148.111 128.237Z" fill="#F74D76"/>
<path d="M65.8613 78.7748L65.8648 79.2665L66.2783 88.5467L66.5737 95.8217C66.5737 95.8217 65.9516 97.5124 74.4204 96.9633C85.7717 96.1849 89.431 91.3076 89.431 91.3076L89.914 74.2537L86.4719 74.9105L65.8613 78.7748Z" fill="#FC8165"/>
<path d="M65.8647 79.2665L66.2783 88.5467C71.795 87.876 81.8327 85.4886 85.8881 76.8131C86.1991 76.1077 86.4059 75.4735 86.4737 74.9452L65.8995 79.1258L65.8647 79.2665Z" fill="black"/>
<path d="M62.2663 34.8586C62.2663 34.8586 51.7107 59.0173 55.5142 72.5909C59.3177 86.1629 71.6837 84.0274 79.0822 81.4037C86.4806 78.7801 89.9157 74.2416 89.9157 74.2416C89.9157 74.2416 96.8259 76.5855 101.449 70.1584C106.071 63.7312 103.225 56.3519 99.2793 54.6596C95.3333 52.9689 90.6403 55.8185 90.6403 55.8185L94.3186 48.7971C94.3186 48.7971 78.8441 13.1168 62.2663 34.8586Z" fill="#FC8165"/>
<path d="M65.5433 31.281C65.5433 31.281 64.7787 44.1353 77.7095 49.9769C90.6402 55.8185 99.2793 54.6596 99.2793 54.6596L98.44 37.8958L82.2532 20.3137L67.7829 24.9251L65.5433 31.281Z" fill="#FFAF45"/>
<path d="M89.7646 52.1106L89.815 59.4308L96.3255 53.0089L89.7646 52.1106Z" fill="#FFAF45"/>
<path d="M151.065 123.739C150.422 124.814 149.744 125.892 149.032 126.934C148.737 127.368 148.441 127.803 148.111 128.237C137.547 143.371 121.909 154.665 103.7 159.793C103.317 159.897 102.918 159.999 102.535 160.104L103.647 92.7046C103.647 92.7046 103.769 92.722 103.978 92.7567C104.03 92.7741 104.099 92.7741 104.169 92.7932C108.165 93.4691 134.35 98.6487 148.406 119.254C149.362 120.629 150.231 122.138 151.065 123.739Z" fill="#F74D76"/>
<path d="M66.0646 97.6062C65.135 99.0031 64.0125 101.158 64.2384 102.232C64.2801 102.428 64.3601 102.546 64.5164 102.635C65.5225 103.218 68.4815 100.817 70.6134 98.2056C68.5075 98.0666 66.8917 97.7817 66.0646 97.6062ZM71.9757 98.2265C72.0452 98.3168 72.0973 98.4193 72.1268 98.5323C72.1876 98.7634 73.6576 104.157 77.786 103.682C82.0412 103.184 83.5008 96.9442 83.5164 96.8834C83.5911 96.5532 83.85 96.2961 84.1784 96.2248C84.512 96.1571 84.8508 96.2787 85.0559 96.548C85.0785 96.5793 87.5284 99.6825 89.3111 98.5931C90.477 97.8755 89.9071 95.1893 89.2468 93.3544C83.1498 97.4376 76.6375 98.3047 71.9757 98.2265ZM77.2717 105.451C74.0017 105.451 71.9479 102.721 70.9627 100.451C69.2199 102.343 65.8821 105.434 63.6442 104.139C63.0638 103.802 62.6816 103.267 62.5391 102.589C62.0439 100.244 64.6832 96.5324 64.9856 96.1154C65.1941 95.8304 65.5555 95.6949 65.9065 95.787C66.0316 95.8182 78.6339 98.9667 89.1321 91.3145C89.3441 91.1616 89.6117 91.1112 89.8654 91.1755C90.1173 91.2416 90.3258 91.4188 90.4353 91.6568C90.7376 92.3188 93.3005 98.1813 90.2198 100.073C88.1348 101.352 85.9993 99.9327 84.7552 98.772C83.9508 101 81.9787 104.94 77.9893 105.408C77.7443 105.437 77.5045 105.451 77.2717 105.451Z" fill="white"/>
<path d="M59.2638 43.6835C58.8937 43.6835 58.5514 43.4437 58.435 43.0719C58.2925 42.6149 58.548 42.1267 59.0049 41.9842L63.8214 40.4795C64.2766 40.337 64.7649 40.5907 64.9091 41.0494C65.0516 41.5064 64.7961 41.9946 64.3392 42.1371L59.5227 43.6418C59.4376 43.6696 59.3507 43.6835 59.2638 43.6835Z" fill="black"/>
<path d="M91.1338 67.0934C90.8992 67.0934 90.6663 66.9995 90.4943 66.8136C90.1694 66.4609 90.192 65.9101 90.5465 65.5851L97.9936 58.7323C98.3463 58.4091 98.8988 58.43 99.222 58.7844C99.5452 59.1372 99.5243 59.6862 99.1699 60.0112L91.721 66.8657C91.556 67.0186 91.344 67.0934 91.1338 67.0934Z" fill="black"/>
<path d="M98.6781 66.1915C98.5617 66.1915 98.4436 66.169 98.3306 66.1186L93.886 64.1673C93.4464 63.9744 93.2466 63.4619 93.4395 63.0223C93.6323 62.5844 94.1431 62.3864 94.5845 62.5757L99.0291 64.527C99.467 64.7216 99.6685 65.2341 99.4757 65.672C99.3314 65.9987 99.0135 66.1915 98.6781 66.1915Z" fill="black"/>
<path d="M60.7529 55.8671C60.6955 55.8671 60.6347 55.8619 60.5757 55.8497C60.1065 55.7524 59.8042 55.2937 59.9015 54.8228L60.7894 50.5468L59.0432 48.533C58.7287 48.1698 58.7686 47.6207 59.13 47.3062C59.4914 46.9935 60.0405 47.0335 60.3567 47.3931L62.3844 49.7318C62.5617 49.9369 62.6329 50.2131 62.5773 50.4773L61.6025 55.1756C61.5174 55.5856 61.156 55.8671 60.7529 55.8671Z" fill="black"/>
<path d="M75.3204 56.609C75.2613 56.609 75.2023 56.6038 75.1415 56.5916C74.6723 56.4943 74.37 56.0339 74.4673 55.5648L75.3552 51.287L73.609 49.2749C73.2945 48.9118 73.3344 48.3627 73.6958 48.0482C74.059 47.7354 74.6063 47.7719 74.9225 48.1351L76.9502 50.4738C77.1275 50.6788 77.2004 50.9534 77.1448 51.2192L76.1701 55.9175C76.0832 56.3276 75.7218 56.609 75.3204 56.609Z" fill="black"/>
<path d="M63.6354 66.4765C63.2323 66.4765 62.8709 66.1951 62.7858 65.785C61.1681 58.0616 64.9091 54.1696 65.0707 54.008C65.406 53.6657 65.9568 53.6622 66.2991 54.001C66.6379 54.3381 66.6431 54.8854 66.3078 55.226C66.1757 55.365 63.0708 58.6698 64.4868 65.4288C64.5841 65.8979 64.2836 66.3584 63.8144 66.4574C63.7536 66.4696 63.6945 66.4765 63.6354 66.4765Z" fill="black"/>
<path d="M68.9419 70.1827C70.325 71.6196 71.2424 72.1669 71.5204 72.1669C71.6768 72.1513 72.2571 71.8142 72.9695 70.9228C73.5863 70.1513 73.8956 69.4755 73.9842 69.1314C73.5099 69.0915 71.96 69.3139 68.9419 70.1827ZM71.4839 73.9079C70.9678 73.9079 69.7342 73.6681 67.1609 70.8203C66.862 70.4885 66.7543 70.0401 66.8725 69.6214C66.9941 69.1853 67.3399 68.843 67.7951 68.7074C73.9946 66.8552 74.8061 67.4651 75.1953 67.757C75.5028 67.9899 75.9702 68.5511 75.6262 69.7065C75.1536 71.2912 73.1815 73.7985 71.6385 73.901C71.5968 73.9044 71.5464 73.9079 71.4839 73.9079Z" fill="black"/>
<path d="M42.5313 123.355C42.4427 123.457 34.1442 132.357 35.7185 148.353C35.2198 148.031 34.7402 147.692 34.2589 147.338C34.1217 147.248 34.0018 147.142 33.8645 147.036C32.8446 131.153 41.1778 122.272 41.2838 122.152C41.6191 121.81 42.1578 121.803 42.5174 122.121C42.8597 122.456 42.8667 123.014 42.5313 123.355Z" fill="white"/>
</svg>
