<svg width="163" height="163" viewBox="0 0 163 163" fill="none" xmlns="http://www.w3.org/2000/svg">
<path d="M162.009 81.7946C162.009 88.988 161.07 95.9729 159.298 102.609C150.124 137.274 118.553 162.799 81.0045 162.799C55.7411 162.799 33.1877 151.242 18.3324 133.137C6.88103 119.15 0.000732422 101.271 0.000732422 81.7946C0.000732422 37.053 36.263 0.78889 81.0045 0.78889C125.746 0.78889 162.009 37.053 162.009 81.7946Z" fill="#F7F5FF"/>
<path d="M159.298 102.609C150.124 137.274 118.553 162.799 81.0045 162.799C55.7411 162.799 33.1877 151.242 18.3324 133.137C42.0314 104.138 67.5909 101.047 67.5909 101.047C67.5909 101.047 66.9835 96.6662 67.5909 95.4847C68.0253 94.6507 69.6237 93.8861 70.5102 93.523C70.857 93.3822 71.0837 93.2954 71.0837 93.2954C71.0837 93.2954 72.3691 93.0695 74.385 92.7567C78.4335 92.1139 85.4184 91.0904 90.8386 90.689C92.49 90.55 94.0015 90.4823 95.2355 90.4979C96.5732 90.5153 97.598 90.637 98.1545 90.8976C98.832 91.2103 99.6139 93.2954 99.6139 93.2954C99.6139 93.2954 109.639 91.7489 123.487 93.2954C129.308 93.9574 143.782 96.6314 159.298 102.609Z" fill="#8758E7"/>
<path d="M67.3045 57.1494C67.3045 57.1494 53.1401 52.6057 53.0635 63.2516C52.9746 75.5881 67.5909 74.3388 67.5909 74.3388L67.3045 57.1494Z" fill="#FC907E"/>
<path d="M61.4729 68.8499C61.202 68.8499 60.9346 68.7249 60.7657 68.4868L55.4912 61.1179C55.2123 60.7287 55.3025 60.1849 55.6928 59.9068C56.083 59.6271 56.626 59.7174 56.905 60.1084L62.1788 67.4756C62.4577 67.8665 62.368 68.4086 61.9778 68.6884C61.8238 68.7978 61.648 68.8499 61.4729 68.8499Z" fill="black"/>
<path d="M55.965 67.0064C55.5278 67.0064 55.1511 66.678 55.1023 66.2332C55.0493 65.7553 55.3942 65.3262 55.8706 65.2741L59.7516 64.8466C60.2416 64.7962 60.6577 65.1386 60.7099 65.6146C60.7628 66.0907 60.4181 66.5199 59.9417 66.5738L56.0607 67.0012C56.0288 67.0047 55.9961 67.0064 55.965 67.0064Z" fill="black"/>
<path d="M94.5743 83.9162L96.0241 98.2092C96.0241 98.2092 90.7782 101.698 83.8871 102.457C74.5824 103.486 70.9214 98.2509 70.9214 98.2509L69.4275 81.475L94.5743 83.9162Z" fill="#FC907E"/>
<path d="M94.5722 83.8936C94.5722 83.8936 91.1868 95.8895 80.4594 95.2953C71.8126 94.8158 68.2465 82.9519 68.2465 82.9519L94.5722 83.8936Z" fill="black"/>
<path d="M61.8834 45.8537C61.8834 45.8537 58.3507 72.5909 66.9305 83.4852C76.1326 95.1702 88.7366 90.2495 93.2366 86.0707C99.3057 80.4341 99.9946 73.3346 99.9946 73.3346C99.9946 73.3346 109.149 74.285 111.462 66.6763C113.891 58.6854 107.715 52.9949 103.185 53.0471C98.6562 53.0992 98.2082 53.9662 98.2082 53.9662L98.7608 45.6226C98.7608 45.6226 68.5988 17.7959 61.8834 45.8537Z" fill="#FC907E"/>
<path d="M100.714 65.7554C100.497 65.7554 100.279 65.672 100.11 65.5105C99.7659 65.1768 99.7563 64.626 100.09 64.282L106.47 57.6863C106.804 57.3423 107.353 57.3319 107.698 57.6655C108.043 57.9991 108.052 58.5481 107.718 58.8939L101.339 65.4896C101.168 65.6651 100.941 65.7554 100.714 65.7554Z" fill="black"/>
<path d="M107.222 66.2524C107.066 66.2524 106.909 66.2107 106.767 66.1238L102.385 63.4271C101.976 63.1769 101.848 62.6401 102.101 62.2317C102.351 61.8234 102.885 61.6948 103.296 61.9485L107.678 64.6434C108.086 64.8954 108.214 65.4305 107.962 65.8389C107.799 66.1064 107.514 66.2524 107.222 66.2524Z" fill="black"/>
<path d="M86.5172 59.7836C86.0509 59.7836 85.666 59.4152 85.6498 58.9461L85.4964 54.5188C85.4794 54.0375 85.854 53.6362 86.3346 53.6205C86.8246 53.5771 87.2162 53.9785 87.2326 54.458L87.386 58.887C87.4028 59.3648 87.0275 59.7679 86.5483 59.7836C86.5375 59.7836 86.5273 59.7836 86.5172 59.7836Z" fill="black"/>
<path d="M69.5706 60.4316C69.1051 60.4316 68.7203 60.0615 68.7039 59.5941L68.5512 55.1652C68.5344 54.6856 68.909 54.2842 69.3896 54.2686C69.849 54.2113 70.2712 54.6265 70.2868 55.1061L70.4394 59.5333C70.4564 60.0129 70.0818 60.416 69.6012 60.4316C69.5911 60.4316 69.5809 60.4316 69.5706 60.4316Z" fill="black"/>
<path d="M78.443 71.3902C78.0677 71.3902 77.7216 71.147 77.6095 70.7699C75.5856 63.931 77.2805 58.0703 77.3531 57.8253C77.4909 57.3666 77.9706 57.1024 78.4321 57.2397C78.8924 57.3752 79.1558 57.8583 79.0192 58.3187C79.0037 58.3743 77.4033 63.9535 79.2758 70.2764C79.4115 70.7369 79.1495 71.22 78.6894 71.3555C78.6072 71.3798 78.5245 71.3902 78.443 71.3902Z" fill="black"/>
<path d="M66.5592 51.3929C66.3434 51.3929 66.1269 51.313 65.9592 51.1532C65.6124 50.8213 65.5995 50.2722 65.93 49.9247C67.6934 48.0794 70.8813 47.8101 71.0165 47.798C71.4882 47.7563 71.9116 48.1194 71.9497 48.5972C71.9884 49.0733 71.6307 49.4921 71.1536 49.532C71.1272 49.532 68.4875 49.7631 67.1878 51.1253C67.016 51.3026 66.788 51.3929 66.5592 51.3929Z" fill="black"/>
<path d="M88.3327 51.0315C88.184 51.0315 88.0327 50.9933 87.8956 50.9151C86.2701 49.9647 83.6685 50.4755 83.6442 50.4807C83.1764 50.5763 82.7156 50.2722 82.6192 49.8031C82.5241 49.334 82.8263 48.8752 83.296 48.7779C83.4296 48.7519 86.5653 48.1281 88.7711 49.4121C89.1852 49.6537 89.325 50.1871 89.084 50.6006C88.9219 50.8786 88.6314 51.0315 88.3327 51.0315Z" fill="black"/>
<path d="M100.286 53.8167C100.286 53.8167 98.2136 62.1535 97.1372 61.9224C96.0608 61.6913 96.6342 48.7935 99.6274 47.996C102.621 47.1985 100.286 53.8167 100.286 53.8167Z" fill="black"/>
<path d="M79.7462 78.9486C79.2826 78.9486 78.8991 78.582 78.8795 78.1146C78.8597 77.6368 79.2324 77.2319 79.7109 77.2111C79.8921 77.2041 84.1381 76.9782 85.7949 73.3416C85.9945 72.9054 86.5097 72.7108 86.9455 72.9107C87.3825 73.1087 87.5753 73.6248 87.3764 74.0609C85.2696 78.6862 80.0028 78.9399 79.7794 78.9469C79.7686 78.9486 79.7569 78.9486 79.7462 78.9486Z" fill="black"/>
<path d="M98.8937 52.7413C98.8937 52.7413 89.7702 52.3764 83.4704 47.93C78.1505 44.1752 75.9101 38.5769 75.9101 38.5769C75.9101 38.5769 71.981 38.2467 66.5592 41.9182C61.1368 45.5913 61.1627 56.1938 61.1627 56.1938C61.1627 56.1938 50.0845 38.7089 54.7093 32.148C59.3348 25.5853 67.5909 30.506 67.5909 30.506C67.5909 30.506 65.6572 18.8419 82.0884 22.6697C98.5184 26.4975 102.841 40.3474 102.841 40.3474C102.841 40.3474 108.36 39.6194 109.271 44.7226C110.182 49.8257 108.319 55.1356 108.319 55.1356C108.319 55.1356 105.809 52.9533 102.164 54.4875C98.5184 56.0218 98.5184 56.0218 98.5184 56.0218L98.8937 52.7413Z" fill="black"/>
<path d="M71.0842 93.3023C71.0842 93.3023 74.2438 96.2996 81.5517 96.482C88.8594 96.6645 95.2687 90.7586 95.2687 90.7586L99.9771 99.3976L88.3342 106.506L68.8221 104.866V96.1171L71.0842 93.3023Z" fill="#8758E7"/>
<path d="M79.1441 107.394C71.2472 107.394 66.9393 101.62 66.8884 101.549C66.6068 101.161 66.6922 100.619 67.0792 100.338C67.468 100.054 68.0089 100.138 68.292 100.525C68.5153 100.833 73.8881 107.971 83.9345 104.907C84.3941 104.767 84.8794 105.027 85.0186 105.486C85.1577 105.943 84.899 106.43 84.4403 106.57C82.529 107.152 80.7616 107.394 79.1441 107.394Z" fill="white"/>
</svg>
