<svg width="163" height="163" viewBox="0 0 163 163" fill="none" xmlns="http://www.w3.org/2000/svg">
<path d="M162.044 81.2516C162.044 100.712 155.181 118.558 143.748 132.528C141.663 135.083 139.422 137.495 137.041 139.774C132.298 144.326 127.016 148.286 121.264 151.572C109.414 158.364 95.6877 162.255 81.0403 162.255C76.1752 162.255 71.4143 161.821 66.7925 161.005C63.1263 160.362 59.547 159.46 56.0719 158.313C45.3687 154.871 35.6385 149.242 27.4025 141.946C10.6006 127.123 0.0189362 105.421 0.0189362 81.2516C0.0189362 36.5101 36.2987 0.230363 81.0403 0.230363C125.765 0.230363 162.044 36.5101 162.044 81.2516Z" fill="#F7F5FF"/>
<path d="M68.7003 37.869C68.7003 37.869 53.1024 27.2978 34.6533 37.544C16.2024 47.7884 21.9866 66.7988 21.9866 66.7988C21.9866 66.7988 7.51989 84.935 14.2806 102.954C21.0414 120.973 51.0973 126.099 64.4451 105.775C77.7928 85.453 56.6001 67.3357 56.6001 67.3357C56.6001 67.3357 73.7948 67.2434 68.7003 37.869Z" fill="black"/>
<path d="M143.748 132.528C141.663 135.083 139.422 137.496 137.041 139.774C132.298 144.326 127.016 148.286 121.264 151.572C121.421 127.87 130.716 111.937 130.716 111.937C131.359 113.118 136.19 121.841 143.748 132.528Z" fill="#B55C4D"/>
<path d="M111.6 53.8751C111.6 53.8751 118.264 33.2679 117.355 28.0553C116.444 22.8427 94.5826 16.115 77.2108 24.2119C59.8389 32.3106 58.6712 55.1505 62.5877 64.5976C72.6741 88.9232 93.6357 77.7284 93.6357 77.7284C93.6357 77.7284 127.04 67.5475 111.6 53.8751Z" fill="black"/>
<path d="M137.041 139.774C132.298 144.326 127.016 148.286 121.264 151.572C109.414 158.364 95.6877 162.255 81.0403 162.255C76.1752 162.255 71.4143 161.821 66.7925 161.005C63.1263 160.362 59.5469 159.46 56.0719 158.313C56.958 141.127 58.1222 123.406 59.5643 111.485C60.4852 103.858 61.5277 98.6099 62.6919 97.3761C63.7344 96.2656 65.8194 95.2217 68.7038 94.3529C73.1692 93.0166 79.4244 92.1112 86.3572 92.061C93.4984 91.972 101.317 92.8062 108.58 94.9625C115.166 96.9417 121.299 99.9999 125.99 104.519C127.797 106.256 129.379 108.774 130.716 111.937C133.757 118.94 135.738 128.808 137.041 139.774Z" fill="#ADA4F7"/>
<path d="M108.565 80.8294L108.582 81.3406L108.572 90.9818L108.591 98.5387C108.591 98.5387 109.279 100.267 100.876 100.05C89.6115 99.713 85.782 94.8079 85.782 94.8079L84.5744 77.1392L88.0061 77.6761L108.565 80.8294Z" fill="#B55C4D"/>
<path d="M108.601 81.8583L108.575 90.7599C103.267 90.337 93.5592 88.4521 89.33 80.3048C89.0034 79.643 88.781 79.0451 88.6959 78.5413L108.563 81.7247L108.601 81.8583Z" fill="black"/>
<path d="M110.276 39.193C110.276 39.193 121.346 61.9045 118.244 75.0521C115.145 88.2004 103.22 86.649 96.03 84.4294C88.8419 82.2127 85.372 78.0047 85.372 78.0047C85.372 78.0047 78.8475 80.5241 74.1649 74.5554C69.4822 68.5854 71.913 61.4038 75.6244 59.6282C79.3358 57.8505 83.9437 60.3923 83.9437 60.3923L80.142 53.8163C80.142 53.8163 93.5367 19.0341 110.276 39.193Z" fill="#B55C4D"/>
<path d="M110.406 68.7623C110.332 68.7623 110.255 68.7523 110.179 68.7311C109.715 68.6063 109.442 68.1285 109.567 67.6663C110.721 63.4173 107.409 58.9819 107.376 58.9364C107.086 58.5557 107.162 58.0106 107.545 57.7201C107.927 57.4284 108.471 57.505 108.761 57.8885C108.919 58.0975 112.618 63.0577 111.244 68.1196C111.14 68.5071 110.789 68.7623 110.406 68.7623Z" fill="black"/>
<path d="M83.313 71.41C83.0923 71.41 82.8717 71.3266 82.7014 71.1603L76.1839 64.7172C75.8433 64.3805 75.8398 63.8314 76.1769 63.4888C76.514 63.15 77.0631 63.1432 77.4054 63.4839L83.9246 69.9251C84.2652 70.2617 84.2686 70.8108 83.9298 71.1529C83.7612 71.3232 83.5371 71.41 83.313 71.41Z" fill="black"/>
<path d="M76.5957 69.8572C76.1856 69.8572 75.8207 69.5667 75.7425 69.148C75.6539 68.6776 75.9649 68.2236 76.4376 68.1353L80.7623 67.3256C81.2297 67.2367 81.6867 67.5496 81.7753 68.0207C81.8639 68.4917 81.5529 68.945 81.0803 69.0333L76.7573 69.843C76.7034 69.8538 76.6495 69.8572 76.5957 69.8572Z" fill="black"/>
<path d="M99.691 72.0536C100.221 72.8143 101.008 73.6519 102.101 74.1501C103.279 74.6924 104.462 74.2335 105.302 73.7021L99.691 72.0536ZM103.213 76.1368C102.626 76.1368 102.007 76.0179 101.378 75.7316C98.3045 74.3259 97.1924 71.0524 97.1473 70.9153C97.0447 70.6078 97.123 70.2705 97.3471 70.0377C97.5712 69.8048 97.9048 69.7126 98.2176 69.8083L107.367 72.4994C107.656 72.5849 107.878 72.811 107.96 73.0994C108.04 73.3878 107.965 73.6968 107.764 73.9173C107.665 74.0286 105.706 76.1368 103.213 76.1368Z" fill="black"/>
<path d="M95.3142 52.3718C95.1891 52.3718 95.064 52.344 94.9441 52.2891C94.5097 52.0854 94.3238 51.5675 94.5288 51.1331C96.0335 47.941 100.021 48.6246 100.19 48.6482C100.661 48.7339 100.973 49.1837 100.89 49.6562C100.805 50.1272 100.351 50.4367 99.8839 50.36C99.7675 50.339 97.0343 49.8925 96.0995 51.8736C95.9518 52.1898 95.6391 52.3718 95.3142 52.3718Z" fill="black"/>
<path d="M107.718 49.272C107.559 49.272 107.399 49.2272 107.253 49.137C106.848 48.8797 106.728 48.3442 106.985 47.9378C107.607 46.9583 108.469 46.3535 109.477 46.1935C111.544 45.8651 113.515 47.481 113.598 47.5487C113.968 47.8528 114.02 48.3986 113.716 48.7685C113.412 49.1384 112.865 49.1893 112.495 48.89C112.088 48.5602 110.804 47.747 109.746 47.9098C109.232 47.9934 108.81 48.3063 108.453 48.8675C108.288 49.1303 108.005 49.272 107.718 49.272Z" fill="black"/>
<path d="M112.382 59.022C111.97 59.022 111.605 58.728 111.529 58.3093L110.747 54.0313C110.702 53.7917 110.761 53.5488 110.907 53.3519L112.476 51.2655C112.764 50.8834 113.308 50.8033 113.692 51.095C114.076 51.3836 114.153 51.9273 113.864 52.3113L112.523 54.0937L113.237 57.9964C113.324 58.4695 113.011 58.9228 112.538 59.0078C112.486 59.0165 112.434 59.022 112.382 59.022Z" fill="black"/>
<path d="M97.8371 60.4969C97.4183 60.4969 97.05 60.1949 96.9805 59.7685L96.2785 55.477C96.2351 55.2096 96.3202 54.9368 96.5061 54.7385L98.8274 52.287C99.1593 51.9395 99.7067 51.9218 100.056 52.2537C100.403 52.5843 100.419 53.1334 100.089 53.4823L98.0629 55.6215L98.6954 59.4875C98.7719 59.9614 98.4504 60.4079 97.9778 60.4847C97.9309 60.4934 97.884 60.4969 97.8371 60.4969Z" fill="black"/>
<path d="M83.9437 60.3922C83.9437 60.3922 93.8598 54.8634 97.2584 47.4632C100.657 40.0616 100.666 36.4093 100.666 36.4093C100.666 36.4093 102.313 41.1268 106.033 42.1224C109.755 43.1162 112.048 43.1631 112.048 43.1631L114.634 49.8612L112.54 33.7474C112.54 33.7474 102.375 28.7642 101.039 28.8111C99.7049 28.858 82.9585 32.4686 82.0202 33.5163C81.0802 34.5658 76.2273 47.8385 76.2273 47.8385L76.0657 53.7639L83.9437 60.3922Z" fill="black"/>
<path d="M66.7925 161.005C63.1263 160.362 59.5469 159.46 56.0719 158.313C45.3686 154.871 35.6384 149.242 27.4025 141.946C31.5726 133.222 36.8721 125.385 42.0673 118.8C52.5447 105.545 62.6919 97.3761 62.6919 97.3761L63.6441 101.782C65.7256 111.424 66.7768 121.265 66.7768 131.131C66.7768 141.037 66.7925 150.56 66.7925 161.005Z" fill="#B55C4D"/>
<path d="M100.568 100.875C90.4925 100.875 84.0497 94.7296 83.9663 94.6483C83.624 94.3144 83.6171 93.7639 83.9524 93.4211C84.2877 93.0778 84.8351 93.0736 85.1809 93.4041C85.5909 93.8039 95.4306 103.136 110.055 97.2091C110.5 97.0286 111.006 97.2437 111.187 97.689C111.367 98.1335 111.154 98.6391 110.709 98.8196C107.043 100.305 103.637 100.875 100.568 100.875Z" fill="white"/>
</svg>
