<svg width="163" height="163" viewBox="0 0 163 163" fill="none" xmlns="http://www.w3.org/2000/svg">
<path d="M162.812 81.2448C162.812 93.5467 160.066 105.188 155.166 115.63C153.863 118.428 152.386 121.139 150.77 123.745C136.505 146.837 110.964 162.249 81.8077 162.249C53.9202 162.249 29.3323 148.175 14.7561 126.734C5.94502 113.771 0.786285 98.1166 0.786285 81.2448C0.786285 36.5032 37.0661 0.223419 81.8077 0.223419C126.532 0.223419 162.812 36.5032 162.812 81.2448Z" fill="#F7F5FF"/>
<path d="M25.8242 127.693C25.8242 127.693 12.5824 123.709 16.61 104.344C20.0851 87.639 41.9607 85.0951 41.9607 85.0951C41.9607 85.0951 35.0783 74.7656 40.357 62.2675C45.4236 50.2677 52.4832 47.9898 52.4832 47.9898C52.4832 47.9898 51.882 38.2615 59.548 30.6285C67.2141 22.9972 77.6601 30.9917 77.6601 30.9917C77.6601 30.9917 97.4768 26.6791 109.704 37.2016C121.929 47.7224 117.194 65.8343 117.194 65.8343C117.194 65.8343 136.66 72.8611 141.395 93.4388C146.131 114.015 133.861 125.062 133.861 125.062L25.8242 127.693Z" fill="#EA366E"/>
<path d="M150.771 123.745C136.505 146.837 110.964 162.249 81.8077 162.249C53.9202 162.249 29.3323 148.175 14.7561 126.734C28.8128 108.021 46.3428 94.4501 67.9925 92.5388C101.372 89.6027 119.651 96.4482 139.581 111.617C144.184 115.109 147.817 119.401 150.771 123.745Z" fill="#FFAF45"/>
<path d="M92.5196 81.7571L93.3744 95.2821C93.3744 95.2821 88.525 99.9144 82.0022 100.387C73.1947 101.023 69.6605 96.3701 69.6605 96.3701L68.903 78.5604L92.5196 81.7571Z" fill="#F27E64"/>
<path d="M92.5178 81.7361C92.5178 81.7361 88.8621 94.8599 77.8878 92.1111C69.9646 90.1272 69.0159 80.0027 69.0159 80.0027L92.5178 81.7361Z" fill="black"/>
<path d="M63.0648 44.7148C63.0648 44.7148 59.7305 69.1791 68.241 80.3325C76.7497 91.486 86.7909 87.5209 91.1817 83.7418C97.1032 78.6452 98.0067 71.9781 98.0067 71.9781C98.0067 71.9781 106.601 73.2019 109.052 66.1125C111.629 58.667 106.01 53.0824 101.739 52.9717C97.4664 52.857 97.0146 53.6593 97.0146 53.6593L97.833 45.8146C97.833 45.8146 70.3973 18.5092 63.0648 44.7148Z" fill="#F27E64"/>
<path d="M67.7875 55.8333C67.7875 55.8333 54.5978 51.0429 54.1461 61.0772C53.6196 72.6995 67.4417 72.0447 67.4417 72.0447L67.7875 55.8333Z" fill="#F27E64"/>
<path d="M99.1344 54.3109C99.1344 54.3109 94.7454 56.4347 84.8779 50.0228C75.0087 43.6149 77.3092 35.2696 77.3092 35.2696C77.3092 35.2696 64.7868 44.1049 62.4393 54.4209C60.0919 64.7328 56.9417 30.7797 71.7004 30.6303C86.4573 30.4809 109.016 38.8576 99.1344 54.3109Z" fill="#EA366E"/>
<path d="M61.9007 66.7031C61.6192 66.7031 61.343 66.566 61.1762 66.3122L56.4692 59.1801C56.2051 58.7803 56.3145 58.2401 56.7159 57.9774C57.1155 57.7079 57.6559 57.8212 57.9183 58.2224L62.6252 65.3565C62.8893 65.7562 62.7799 66.2965 62.3785 66.5591C62.2308 66.6583 62.0658 66.7031 61.9007 66.7031Z" fill="black"/>
<path d="M98.9867 64.9098C98.7573 64.9098 98.5297 64.8196 98.3577 64.6424C98.0276 64.2949 98.0397 63.7458 98.3855 63.414L104.635 57.4227C104.981 57.0909 105.532 57.1051 105.864 57.4507C106.194 57.7968 106.182 58.3459 105.836 58.6792L99.5861 64.669C99.4193 64.8304 99.2021 64.9098 98.9867 64.9098Z" fill="black"/>
<path d="M105.101 65.6122C104.936 65.6122 104.767 65.5655 104.618 65.4644L100.587 62.7644C100.187 62.4982 100.081 61.9601 100.349 61.5603C100.613 61.164 101.153 61.0547 101.553 61.3221L105.586 64.0221C105.984 64.2881 106.091 64.8284 105.822 65.2262C105.657 65.4765 105.381 65.6122 105.101 65.6122Z" fill="black"/>
<path d="M56.7767 64.7694C56.325 64.7694 55.9444 64.4198 55.9114 63.963C55.8767 63.4852 56.2363 63.0685 56.7159 63.0338L60.3873 62.7678C60.8651 62.7297 61.2821 63.0943 61.3169 63.5721C61.3516 64.052 60.992 64.4673 60.5124 64.502L56.841 64.768C56.8184 64.7694 56.7993 64.7694 56.7767 64.7694Z" fill="black"/>
<path d="M77.099 69.8273C76.7011 69.8273 76.3432 69.5531 76.2511 69.1479C74.7828 62.5698 76.7602 57.15 76.8453 56.9228C77.0121 56.4746 77.5073 56.2521 77.9608 56.4116C78.4108 56.5806 78.6402 57.0788 78.4734 57.5295C78.4543 57.5811 76.5951 62.7143 77.9469 68.7691C78.0512 69.2369 77.7575 69.7023 77.2884 69.8063C77.2241 69.8205 77.1598 69.8273 77.099 69.8273Z" fill="black"/>
<path d="M78.3378 74.3049C78.9442 74.5763 79.6479 74.7881 80.3673 74.7902C81.1318 74.7902 81.8233 74.2946 82.3585 73.7157L78.3378 74.3049ZM80.3725 76.5277C77.6915 76.5221 75.4118 74.5172 75.3162 74.4317C75.0643 74.2078 74.9652 73.8568 75.0626 73.5352C75.1599 73.2101 75.4344 72.9725 75.768 72.9235L84.0613 71.7107C84.3775 71.6727 84.692 71.7941 84.8849 72.0536C85.0742 72.31 85.109 72.6494 84.9735 72.9392C84.904 73.0851 83.2603 76.5277 80.3725 76.5277Z" fill="black"/>
<path d="M68.4842 50.3145C68.2479 50.3145 68.0151 50.2209 67.8431 50.0315C67.5182 49.6772 67.5442 49.1302 67.8987 48.8051C69.6884 47.1701 72.7256 47.1232 72.8542 47.1211C73.3111 47.187 73.7247 47.4985 73.7316 47.9798C73.7368 48.459 73.3511 48.8519 72.8715 48.8586C72.8472 48.8586 70.366 48.9042 69.0698 50.0892C68.903 50.24 68.6927 50.3145 68.4842 50.3145Z" fill="black"/>
<path d="M87.4407 51.1366C87.2218 51.1366 87.0046 51.0551 86.8361 50.8902C85.5764 49.6672 83.0969 49.545 83.0726 49.545C82.593 49.5226 82.2212 49.1193 82.242 48.6403C82.2611 48.1604 82.6503 47.804 83.1455 47.8075C83.2724 47.8129 86.3061 47.9553 88.0471 49.6461C88.3912 49.9794 88.3981 50.5285 88.0645 50.8746C87.8942 51.0483 87.6683 51.1366 87.4407 51.1366Z" fill="black"/>
<path d="M75.8948 101.845C75.9956 101.845 76.0999 101.862 76.1989 101.899C76.4717 102.002 76.675 102.234 76.741 102.517C76.7566 102.589 78.4647 109.51 81.627 108.865C85.1351 108.159 86.5807 102.182 86.5963 102.121C86.6711 101.801 86.9195 101.552 87.2392 101.475C87.5676 101.404 87.8943 101.509 88.1063 101.76C88.9576 102.773 91.7325 105.477 93.3362 104.571C94.4604 103.935 94.0295 100.391 93.2737 97.4928C91.5466 99.1624 87.6927 101.868 80.892 101.868C80.8503 101.868 80.8121 101.868 80.7704 101.868C73.1322 101.832 69.697 98.7437 68.2792 96.7591C67.3357 98.9188 66.1837 102.207 66.7172 103.858C66.8614 104.308 67.0942 104.47 67.2575 104.553C69.5007 105.694 73.8845 103.105 75.3823 102.01C75.5334 101.903 75.7124 101.845 75.8948 101.845ZM81.1787 110.649C77.8721 110.649 76.0756 106.284 75.384 104.104C73.438 105.332 69.2922 107.544 66.4704 106.102C65.7997 105.763 65.3132 105.17 65.0613 104.391C64.0361 101.205 67.0907 95.1416 67.4417 94.4622C67.6015 94.1514 67.9039 93.9688 68.2827 93.9946C68.6302 94.0211 68.9273 94.2553 69.0385 94.5858C69.115 94.8043 71.0749 100.085 80.7773 100.13C80.8173 100.13 80.8538 100.13 80.892 100.13C89.531 100.13 92.808 95.4512 92.9435 95.2509C93.1294 94.9781 93.4457 94.8375 93.7863 94.8777C94.1129 94.9225 94.3875 95.1505 94.4917 95.4669C94.973 96.9363 97.2266 104.364 94.1911 106.083C91.9514 107.358 89.2965 105.384 87.8404 103.998C87.0811 106.137 85.3001 109.898 81.9693 110.567C81.6965 110.621 81.4324 110.649 81.1787 110.649Z" fill="white"/>
<path d="M62.4394 54.4208C62.4394 54.4208 50.8291 39.6968 59.5481 30.6286C68.267 21.5621 93.3744 17.0341 105.235 34.1627C113.646 46.3046 99.1344 54.3109 99.1344 54.3109L83.0066 37.7664L77.3092 35.2695L67.7875 37.7664L62.4394 54.4208Z" fill="#EA366E"/>
<path d="M86.7249 59.4999C86.2158 59.4822 85.8405 59.079 85.8561 58.6012L85.9812 54.8777L83.6668 53.1558C83.2828 52.8693 83.2029 52.3251 83.4896 51.9395C83.7798 51.554 84.3219 51.4792 84.7059 51.7604L87.3851 53.7551C87.6128 53.9255 87.7431 54.1962 87.7344 54.4813L87.5937 58.6582C87.5763 59.1293 87.1923 59.4999 86.7249 59.4999Z" fill="black"/>
<path d="M71.4415 59.4999C70.9324 59.4822 70.5571 59.079 70.5727 58.6012L70.6996 54.8777L68.3834 53.1558C67.9995 52.8693 67.9195 52.3251 68.2062 51.9395C68.4946 51.554 69.0385 51.4792 69.4225 51.7604L72.1018 53.7551C72.3294 53.9255 72.4597 54.1962 72.451 54.4813L72.3103 58.6582C72.2929 59.1293 71.9089 59.4999 71.4415 59.4999Z" fill="black"/>
<path d="M43.2986 150.765C42.9702 150.765 42.6574 150.579 42.5098 150.262C30.7849 124.949 46.7198 111.085 46.8814 110.948C47.248 110.635 47.7954 110.687 48.1047 111.05C48.4139 111.416 48.3688 111.965 48.0039 112.275C47.3836 112.8 32.9377 125.46 44.0875 149.532C44.2873 149.966 44.0996 150.484 43.6635 150.685C43.5471 150.739 43.4202 150.765 43.2986 150.765Z" fill="white"/>
<path d="M129.54 145.77C129.183 145.77 128.848 145.549 128.721 145.195L122.542 127.987C122.383 127.534 122.615 127.038 123.067 126.874C123.522 126.715 124.018 126.949 124.179 127.399L130.356 144.607C130.518 145.059 130.283 145.556 129.833 145.72C129.736 145.752 129.635 145.77 129.54 145.77Z" fill="white"/>
</svg>
