<svg width="200" height="200" viewBox="0 0 200 200" fill="none" xmlns="http://www.w3.org/2000/svg">
<rect width="200" height="200" fill="white"/>
<path d="M146.201 105.216C145.979 100.22 145.233 95.1504 144.401 90.1666C143.891 87.0889 143.38 84.0951 142.272 81.1663C141.6 79.42 140.515 77.5352 140.377 75.66C142.708 77.5873 144.104 81.4537 145.084 84.2547C145.722 75.0109 144.433 65.7978 141.568 57.0103C139.184 49.6831 135.424 44.5917 130.151 39.0322C124.645 33.2385 118.19 28.1472 109.872 27.5927C103.854 27.1883 95.3764 28.0727 91.2121 32.6734C87.782 36.4759 86.4731 40.4913 86.0037 44.9429C85.9292 45.572 85.876 47.8185 85.8429 50.279C89.189 49.0434 92.8308 48.4156 96.4737 48.3304C96.5363 48.3517 96.612 48.3624 96.6758 48.3624H97.7412C98.2307 48.3624 98.8053 48.373 99.4556 48.3837C99.4663 48.3837 99.4887 48.3837 99.4982 48.3837C103.109 48.5859 106.602 49.3 109.67 50.4386C112.94 51.6636 115.592 53.4525 117.605 56.3825C117.605 56.3825 117.605 56.3824 117.616 56.3931C117.616 56.4037 117.668 56.4676 117.668 56.4676C119.086 58.48 120.033 60.3553 120.598 62.0378C120.364 61.7505 120.119 61.4631 119.873 61.1746L117.434 63.284C118.669 64.7856 119.777 66.4362 120.736 68.2251C123.282 72.9547 124.805 78.6313 124.89 84.8944C124.89 84.9157 124.89 84.9369 124.89 84.9582H124.9C127.829 84.9582 130.205 88.2074 130.205 92.2216C130.205 96.2263 127.829 99.4755 124.9 99.4755C124.58 99.4755 124.271 99.4436 123.975 99.3691C123.505 99.2508 123.057 99.0593 122.643 98.7826C120.502 105.173 117.019 110.978 112.929 115.259C116.508 119.147 120.215 122.736 123.026 127.241C125.411 125.123 125.742 120.404 127.787 118.87C128.852 124.44 128.457 134.857 123.112 138.33C127.808 135.816 131.919 131.608 135.551 127.72C137.819 125.293 139.428 122.651 140.866 119.776C141.995 117.507 142.293 114.738 143.496 112.66C143.657 115.738 143.625 118.881 143.869 121.98C145.637 116.292 146.468 111.309 146.201 105.216Z" fill="#F35B5A"/>
<path d="M112.788 116.685C116.315 120.467 119.849 124.122 122.72 128.453C123.073 128.985 123.919 129.217 124.393 128.67C126.55 126.176 126.945 122.663 129.161 120.297C128.567 120.14 127.975 119.984 127.381 119.827C128.368 125.89 128.247 134.138 122.976 138.244C122.007 138.999 123.246 140.517 124.266 139.918C129.34 136.936 133.751 132.879 137.563 128.406C141.428 123.868 142.63 119.153 145.03 113.872C144.37 113.692 143.707 113.514 143.045 113.334C143.169 116.441 143.234 119.546 143.418 122.65C143.487 123.829 145.158 124.121 145.509 122.934C147.834 115.084 148.291 107.576 147.346 99.4364C146.929 95.8503 146.396 92.2653 145.735 88.7158C144.912 84.3067 142.957 80.3729 142.023 76.0454C141.429 76.3906 140.835 76.7359 140.242 77.0812C142.536 79.4223 143.59 82.1713 144.673 85.2088C145.075 86.3356 146.701 86.1571 146.766 84.9263C147.876 63.9165 140.339 40.7253 120.647 30.2069C113.462 26.3689 103.846 25.9409 96.2928 29.112C87.8849 32.6414 85.4646 41.6535 85.3664 49.9999C85.3499 51.3715 87.4805 51.3715 87.4971 49.9999C87.6106 40.3163 91.2216 31.7818 101.534 29.7966C111.029 27.9675 119.608 30.7685 126.721 37.2267C140.48 49.7197 145.604 66.61 144.636 84.9263C145.333 84.8317 146.031 84.7371 146.728 84.6437C145.535 81.2952 144.271 78.1488 141.748 75.5748C140.971 74.7826 139.751 75.6067 139.969 76.6118C140.708 80.0347 142.358 83.1302 143.139 86.565C144.096 90.779 144.72 95.1503 145.215 99.4364C146.13 107.343 145.721 114.715 143.456 122.367C144.153 122.462 144.851 122.556 145.548 122.65C145.364 119.546 145.3 116.441 145.176 113.334C145.137 112.367 143.658 111.771 143.191 112.797C141.068 117.468 139.829 122.13 136.548 126.239C132.848 130.874 128.303 135.075 123.19 138.079C123.621 138.636 124.052 139.194 124.481 139.751C130.393 135.145 130.538 126.028 129.436 119.261C129.305 118.463 128.164 118.247 127.655 118.791C125.379 121.221 125.071 124.64 122.887 127.163C123.444 127.235 124.002 127.306 124.56 127.378C121.597 122.909 117.941 119.09 114.295 115.179C113.357 114.175 111.854 115.683 112.788 116.685Z" fill="#1F1F20"/>
<path d="M154.914 165.863C154.914 165.863 143.304 143.417 122.752 141.504L122.869 142.066L120.564 141.504L120.488 141.834C120.488 144.204 119.806 146.77 118.688 149.383C111.79 165.503 88.7492 165.501 81.7673 149.418C80.6204 146.774 79.8412 144.174 79.6532 141.77L79.6225 141.59L77.0188 142.131L77.1477 141.504C56.5968 143.417 44.987 165.863 44.987 165.863C52.6784 172.302 65.37 170.928 69.746 170.213C68.8805 172.566 68.0469 174.519 67.3836 175.831H133.557C132.91 174.551 132.1 172.657 131.257 170.378C136.381 171.088 147.791 171.825 154.914 165.863Z" fill="#F8A20D"/>
<path d="M158.46 172.238C151.983 157.108 142.544 145.851 127.32 142.157L119.152 140.174C115.894 139.384 113.288 136.956 112.253 133.768C111.752 132.226 111.255 130.565 110.854 128.252C110.35 125.34 110.981 122.297 110.981 119.315" stroke="#1F1F20" stroke-width="2.40211" stroke-miterlimit="10" stroke-linecap="round" stroke-linejoin="round"/>
<path d="M41 172.238C47.4747 157.108 56.9148 145.851 72.1392 142.157L80.3484 140.447C83.0786 139.877 85.3073 137.919 86.2178 135.284C86.9012 133.303 87.6579 131.052 88.1119 129.52C89.111 126.148 89.286 122.278 89.1536 119.332" stroke="#1F1F20" stroke-width="2.40211" stroke-miterlimit="10" stroke-linecap="round" stroke-linejoin="round"/>
<path d="M79.6568 140.78C79.7454 141.924 79.8672 143.03 80.0174 144.101C83.4085 168.317 119.507 166.7 120.464 142.266C120.481 141.799 120.49 141.325 120.49 140.847" stroke="#1F1F20" stroke-width="2.40211" stroke-miterlimit="10" stroke-linecap="round" stroke-linejoin="round"/>
<path d="M127.815 157.864C129.45 165.021 131.988 171.728 133.56 174.844" stroke="#1F1F20" stroke-width="2.40211" stroke-miterlimit="10" stroke-linecap="round" stroke-linejoin="round"/>
<path d="M73.1407 157.817C71.5066 164.992 68.961 171.721 67.3849 174.844" stroke="#1F1F20" stroke-width="2.40211" stroke-miterlimit="10" stroke-linecap="round" stroke-linejoin="round"/>
<path d="M87.4581 134.035C95.568 138.115 103.582 138.256 111.797 134.39C114.276 133.223 112.115 129.549 109.647 130.712C102.882 133.896 96.2715 133.708 89.6076 130.356C87.1648 129.127 85.0046 132.802 87.4581 134.035Z" fill="#1F1F20"/>
<path d="M130.822 92.8872C130.822 96.8931 128.45 100.149 125.517 100.149C124.709 100.149 123.943 99.9023 123.255 99.453C118.867 112.564 108.807 123.227 99.5893 123.227C91.4096 123.227 80.6275 112.599 75.6887 99.5712C75.0502 99.946 74.3444 100.149 73.6042 100.149C70.6707 100.149 68.2988 96.8931 68.2988 92.8872C68.2988 89.1556 70.3562 86.0862 73 85.6688C73.0426 63.1102 84.5814 54.3854 98.8764 54.3854C113.059 54.3854 125.295 67.5228 125.507 85.6262H125.517C128.45 85.6262 130.822 88.8742 130.822 92.8872Z" stroke="#1F1F20" stroke-width="2.40211" stroke-miterlimit="10" stroke-linecap="round" stroke-linejoin="round"/>
<path d="M114.983 66.5888C120.49 72.4463 119.95 83.7605 119.775 86.7874C119.625 89.3898 119.074 91.978 119.052 94.6349C121.945 91.8456 124.145 88.9606 125.634 85.2728C128.192 75.8705 126.06 68.2157 120.49 61.8403" fill="#F35B5A"/>
<path d="M114.983 66.5888C120.49 72.4463 119.95 83.7605 119.775 86.7874C119.625 89.3898 119.074 91.978 119.052 94.6349C121.945 91.8456 124.145 88.9606 125.634 85.2728C128.192 75.8705 126.06 68.2157 120.49 61.8403" stroke="#1F1F20" stroke-width="2.40211" stroke-miterlimit="10" stroke-linecap="round" stroke-linejoin="round"/>
<path d="M98.6943 89.2585C98.6943 90.2718 98.6245 91.2402 98.589 92.2405C98.5335 93.7918 98.816 94.3972 97.5627 95.4199C96.7764 96.0608 95.224 96.9333 95.4427 97.8627C95.7111 99.0072 97.4114 100.186 98.3798 100.673" stroke="#1F1F20" stroke-width="2.40211" stroke-miterlimit="10" stroke-linecap="round" stroke-linejoin="round"/>
<path d="M88.0954 84.0218C88.0457 86.1891 88.3058 88.4108 88.3058 90.6195" stroke="#1F1F20" stroke-width="3.60316" stroke-miterlimit="10" stroke-linecap="round" stroke-linejoin="round"/>
<path d="M109.351 84.0218C109.301 86.1891 109.56 88.4108 109.56 90.6195" stroke="#1F1F20" stroke-width="3.60316" stroke-miterlimit="10" stroke-linecap="round" stroke-linejoin="round"/>
<path d="M97.7672 107.834C100.691 107.667 104.284 106.858 105.989 103.99" stroke="#1F1F20" stroke-width="2.40211" stroke-miterlimit="10" stroke-linecap="round" stroke-linejoin="round"/>
<path d="M115.051 95.5464C113.461 95.1563 108.08 94.7294 107.726 96.9085C107.279 99.6658 115.307 99.3206 116.893 98.1843C119.404 96.3859 115.051 95.5464 115.051 95.5464Z" fill="#F35B5A"/>
<path d="M87.4865 95.5464C85.8962 95.1563 80.5164 94.7294 80.1628 96.9085C79.7159 99.6658 87.7431 99.3206 89.3298 98.1843C91.84 96.3859 87.4865 95.5464 87.4865 95.5464Z" fill="#F35B5A"/>
<path d="M71.7879 97.2585C72.3555 98.5012 72.4252 101.001 71.9204 102.273C71.5893 103.111 70.6339 104.113 69.7814 103.248C68.9053 102.359 69.6041 100.81 70.077 99.9212C70.7202 98.7116 68.8828 97.6345 68.2384 98.8464C67.3552 100.505 66.7604 102.537 67.8695 104.246C68.6806 105.494 70.2508 106.065 71.6425 105.513C74.9295 104.207 74.8479 98.8571 73.6265 96.1837C73.059 94.9387 71.2216 96.0194 71.7879 97.2585Z" fill="#1F1F20"/>
<path d="M71.7879 103.616C72.3555 104.859 72.4252 107.359 71.9204 108.63C71.5893 109.468 70.6339 110.471 69.7814 109.605C68.9053 108.716 69.6041 107.167 70.077 106.279C70.7202 105.069 68.8828 103.992 68.2384 105.204C67.3552 106.863 66.7604 108.894 67.8695 110.603C68.6806 111.852 70.2508 112.421 71.6425 111.869C74.9295 110.564 74.8479 105.214 73.6265 102.54C73.059 101.295 71.2216 102.377 71.7879 103.616Z" fill="#1F1F20"/>
<path d="M44.1499 166.782C51.7455 170.798 61.5002 172.02 69.8892 170.262C71.23 169.982 70.6636 167.927 69.3228 168.208C61.4954 169.848 52.3048 168.686 45.2247 164.943C44.0139 164.302 42.9356 166.14 44.1499 166.782Z" fill="#1F1F20"/>
<path d="M154.377 164.943C147.668 168.654 138.855 169.847 131.376 168.208C130.039 167.915 129.469 169.968 130.81 170.262C138.846 172.024 148.244 170.768 155.453 166.783C156.652 166.119 155.579 164.278 154.377 164.943Z" fill="#1F1F20"/>
<path d="M118.275 57.1285C116.25 54.1548 113.591 52.3505 110.288 51.1137C99.5137 47.0842 83.3683 48.3729 76.0387 58.5733C72.5188 63.4708 70.4733 69.9372 70.1682 75.9957C70.011 79.1042 70.2415 82.5213 71.6864 85.3082C73.0911 88.0194 77.2282 89.5446 78.0393 92.2452C83.4475 69.9715 116.189 71.0345 117.81 71.1113C122.056 71.3123 124.059 65.3011 118.275 57.1285C118.312 57.1864 118.134 56.9299 118.275 57.1285Z" fill="#F35B5A"/>
<path d="M118.275 57.1285C116.25 54.1548 113.591 52.3505 110.288 51.1137C99.5137 47.0842 83.3683 48.3729 76.0387 58.5733C72.5188 63.4708 70.4733 69.9372 70.1682 75.9957C70.011 79.1042 70.2415 82.5213 71.6864 85.3082C73.0911 88.0194 77.2282 89.5446 78.0393 92.2452C83.4475 69.9715 116.189 71.0345 117.81 71.1113C122.056 71.3123 124.059 65.3011 118.275 57.1285ZM118.275 57.1285C118.134 56.9299 118.312 57.1864 118.275 57.1285Z" stroke="#1F1F20" stroke-width="2.40211" stroke-miterlimit="10" stroke-linecap="round" stroke-linejoin="round"/>
</svg>
