<svg width="163" height="163" viewBox="0 0 163 163" fill="none" xmlns="http://www.w3.org/2000/svg">
<path d="M162.346 81.2448C162.346 91.6877 160.366 101.679 156.769 110.852C153.97 118.011 150.166 124.649 145.51 130.643C144.676 131.738 143.84 132.763 142.938 133.788C142.311 134.535 141.668 135.264 141.008 135.995C136.438 140.981 131.262 145.412 125.563 149.113C123.825 150.243 122.053 151.32 120.227 152.31C108.674 158.652 95.4338 162.249 81.325 162.249C64.7489 162.249 49.3526 157.262 36.5139 148.73C36.1821 148.505 35.8537 148.279 35.5218 148.035C32.5697 146.037 29.7549 143.831 27.1121 141.416C26.8184 141.155 26.523 140.895 26.2433 140.616C26.0018 140.408 25.7759 140.182 25.5501 139.974C25.0966 139.557 24.6813 139.139 24.2469 138.723C23.743 138.218 23.2391 137.697 22.7352 137.176C22.1618 136.568 21.5884 135.959 21.0307 135.334C20.9612 135.248 20.876 135.161 20.8065 135.074C19.1715 133.232 17.6269 131.32 16.15 129.34C6.20951 115.909 0.320984 99.2629 0.320984 81.2448C0.320984 36.5032 36.5991 0.223419 81.325 0.223419C126.067 0.223419 162.346 36.5032 162.346 81.2448Z" fill="#F7F5FF"/>
<path d="M145.491 130.66C144.676 131.738 143.84 132.763 142.938 133.788C142.311 134.535 141.668 135.264 141.008 135.995C136.438 140.981 131.262 145.412 125.563 149.113C123.825 150.243 122.053 151.32 120.227 152.31C108.674 158.652 95.4339 162.249 81.3251 162.249C64.749 162.249 49.3527 157.262 36.514 148.73C36.1821 148.505 35.8537 148.279 35.5219 148.035C32.5698 146.037 29.7549 143.831 27.1121 141.416C26.8185 141.155 26.5231 140.895 26.2434 140.616C25.0271 139.505 23.8629 138.357 22.7353 137.176C22.1619 136.568 21.5885 135.959 21.0307 135.334C20.9612 135.248 20.8761 135.161 20.8066 135.074C19.1716 133.232 17.6269 131.32 16.15 129.34C20.3549 121.869 25.6874 114.102 30.0138 109.723C38.321 101.313 54.8797 91.5831 66.4691 90.7144C81.2382 89.6373 99.4475 91.4318 112.392 94.4155C123.724 97.0251 135.713 108.694 138.93 114.428C141.345 118.738 145.491 125.728 145.491 130.66Z" fill="#80BAFF"/>
<path d="M101.395 22.6793C101.395 22.6793 100.678 18.1009 105.048 19.9757C109.418 21.8471 107.544 26.4237 105.048 25.8C102.551 25.1762 101.395 22.6793 101.395 22.6793Z" fill="#F74D76"/>
<path d="M109.835 51.5742C109.835 51.5742 109.148 63.9196 103.592 64.4877C98.0349 65.0543 89.8599 58.0309 89.8599 58.0309L93.6894 44.1379L109.835 51.5742Z" fill="black"/>
<path d="M67.423 48.0646C67.423 48.0646 49.2849 42.237 46.5813 34.538C43.876 26.8407 78.1489 38.4926 78.1489 38.4926L67.423 48.0646Z" fill="#EA366E"/>
<path d="M93.6895 74.494L92.2837 94.1202C92.2837 94.1202 88.7409 99.6558 77.4069 100.476C68.9607 101.086 66.0139 99.1535 66.0139 99.1535L67.2789 89.3555L68.5229 79.8024L89.0154 75.4863L93.6895 74.494Z" fill="#F49282"/>
<path d="M89.0154 75.4864C88.9633 76.0132 88.7566 76.6368 88.4369 77.3489C84.0183 86.9821 72.1544 88.9646 67.2789 89.3556L68.5229 79.8024L89.0154 75.4864Z" fill="black"/>
<path d="M64.5978 35.6274C64.5978 35.6274 54.2194 59.8153 58.1046 73.3389C61.9914 86.866 74.321 84.6507 81.6916 81.9811C89.0605 79.3145 92.4574 74.7622 92.4574 74.7622C92.4574 74.7622 99.3729 77.0557 103.944 70.6091C108.518 64.1632 105.628 56.8146 101.677 55.1518C97.7256 53.4897 93.0604 56.3648 93.0604 56.3648L96.6849 49.331C96.6849 49.331 81.0019 13.8144 64.5978 35.6274Z" fill="#F49282"/>
<path d="M93.6895 66.9223C93.4184 66.9223 93.1473 66.7955 92.9805 66.5538C92.7025 66.1628 92.7963 65.6205 93.189 65.3443L101.969 59.1482C102.356 58.8706 102.904 58.9644 103.178 59.3586C103.454 59.7496 103.361 60.2919 102.97 60.5681L94.1899 66.7621C94.0387 66.8721 93.8615 66.9223 93.6895 66.9223Z" fill="black"/>
<path d="M101.642 66.8856C101.569 66.8856 101.493 66.8755 101.418 66.8564L95.6858 65.3253C95.2236 65.2025 94.9473 64.724 95.0707 64.2625C95.1941 63.7982 95.6649 63.5287 96.1341 63.6455L101.866 65.1761C102.33 65.2994 102.606 65.7772 102.481 66.2396C102.379 66.6285 102.028 66.8856 101.642 66.8856Z" fill="black"/>
<path d="M80.7326 47.2549C80.4702 47.2549 80.2114 47.1353 80.0394 46.9095C79.2835 45.9119 78.4391 45.3438 77.5286 45.2221C76.1733 45.0345 75.0422 45.8928 75.0317 45.8998C74.6547 46.1899 74.1074 46.1257 73.8138 45.7469C73.5201 45.3698 73.5862 44.8277 73.9615 44.5323C74.0292 44.4785 75.6434 43.2135 77.7336 43.4968C79.1306 43.6757 80.3729 44.4715 81.4241 45.8615C81.7143 46.2436 81.6396 46.7878 81.2573 47.0777C81.101 47.1958 80.915 47.2549 80.7326 47.2549Z" fill="black"/>
<path d="M61.9585 45.5297C61.7065 45.5297 61.4563 45.4185 61.2825 45.2082C60.9819 44.8346 61.0393 44.2891 61.4112 43.985C62.584 43.0363 63.6717 42.6592 64.6326 42.8417C65.6803 43.0467 66.1442 43.8425 66.1946 43.9329C66.4239 44.3533 66.271 44.8816 65.8505 45.1126C65.4335 45.3368 64.9157 45.1943 64.6829 44.7895C64.662 44.7582 64.5352 44.5844 64.2746 44.5427C64.0296 44.4958 63.4683 44.5532 62.5075 45.3351C62.3459 45.4654 62.1513 45.5297 61.9585 45.5297Z" fill="black"/>
<path d="M65.3554 65.5967C64.9731 65.5967 64.6204 65.3409 64.5179 64.9533C63.1122 59.7217 67.3726 52.9194 67.5568 52.6324C67.8122 52.2279 68.3526 52.1097 68.754 52.365C69.1606 52.6223 69.2804 53.1578 69.0233 53.5642C68.9833 53.6282 64.9888 60.0102 66.1946 64.502C66.3197 64.9656 66.0452 65.442 65.5813 65.567C65.5049 65.5859 65.4301 65.5967 65.3554 65.5967Z" fill="black"/>
<path d="M61.962 54.8064C61.8838 54.8064 61.8038 54.7975 61.7256 54.7751C61.2651 54.6448 60.9941 54.1637 61.1262 53.7027L62.3772 49.272C62.5092 48.8084 62.9906 48.541 63.451 48.6713C63.9114 48.8016 64.1808 49.2829 64.0505 49.743L62.7994 54.1738C62.69 54.5579 62.3425 54.8064 61.962 54.8064Z" fill="black"/>
<path d="M76.1715 55.1973C76.0933 55.1973 76.0134 55.1871 75.9352 55.164C75.473 55.0336 75.2037 54.5546 75.334 54.0922L76.585 49.6615C76.7153 49.2007 77.1984 48.93 77.6571 49.0623C78.1193 49.1926 78.3886 49.6718 78.2583 50.134L77.0073 54.5647C76.8995 54.9468 76.552 55.1973 76.1715 55.1973Z" fill="black"/>
<path d="M63.2147 39.1408C63.2147 39.1408 64.6464 37.2069 69.4768 37.2173C74.3088 37.2277 77.0993 40.6542 77.0993 40.6542C77.0993 40.6542 77.5024 49.4112 84.0321 53.7896C90.5635 58.1701 93.0603 56.3648 93.0603 56.3648L97.8403 54.7093L101.395 47.7782L87.7452 32.8022L71.3411 25.7999L63.2147 34.8369V39.1408Z" fill="black"/>
<path d="M70.2431 71.2282C69.932 71.2282 69.734 71.2084 69.6957 71.2037C69.2197 71.1549 68.8756 70.7273 68.9243 70.2528C68.9712 69.777 69.4022 69.426 69.8748 69.4764C70.0277 69.4832 73.7842 69.817 75.4088 66.4269C75.6173 65.9911 76.1438 65.8153 76.5678 66.0189C77.0004 66.2272 77.1846 66.7431 76.9778 67.1775C75.2125 70.8562 71.6192 71.2282 70.2431 71.2282Z" fill="black"/>
<path d="M62.5875 33.8047C62.5875 33.8047 69.4317 14.3565 93.6894 18.5179C117.949 22.6793 109.835 53.5208 109.835 53.5208L98.7769 49.931L62.5875 33.8047Z" fill="#F74D76"/>
<path d="M55.5331 32.4321C55.5331 32.4321 64.0262 32.7431 85.9052 42.873C93.4479 46.3658 100.026 50.4448 100.026 50.4448C100.026 50.4448 74.8406 39.8671 65.0496 39.9869C61.2913 40.0321 58.857 41.4395 58.857 41.4395L55.5331 32.4321Z" fill="#EA366E"/>
<path d="M73.421 101.127C69.1102 101.127 66.0851 100.429 65.8123 100.363C65.3449 100.252 65.0583 99.7828 65.1695 99.3173C65.2789 98.8509 65.7446 98.5646 66.2155 98.6725C66.3597 98.7071 80.6892 101.991 91.7642 93.7883C92.15 93.5033 92.6956 93.5848 92.9805 93.9669C93.2672 94.353 93.1855 94.898 92.7998 95.1832C86.2632 100.026 78.83 101.127 73.421 101.127Z" fill="#8758E7"/>
<path d="M33.1778 124.631L25.5501 139.974C25.0966 139.557 24.6813 139.139 24.2469 138.723L31.6315 123.849C31.8382 123.432 32.3612 123.241 32.7956 123.467C33.2108 123.675 33.3863 124.196 33.1778 124.631Z" fill="#8758E7"/>
<path d="M78.5276 108.63C75.2471 108.63 73.1586 106.036 72.1925 103.913C70.1718 105.113 65.4891 107.594 62.9905 106.531C62.0905 106.151 61.7881 105.489 61.6926 105C61.2651 102.809 64.3996 99.5391 65.0339 98.9032C65.3727 98.5645 65.9218 98.5645 66.2623 98.9032C66.6012 99.2418 66.6012 99.7909 66.2623 100.132C64.7542 101.643 63.2303 103.81 63.3971 104.668C63.411 104.733 63.4302 104.83 63.67 104.932C65.3571 105.648 69.7634 103.449 72.1508 101.897C72.3802 101.746 72.6651 101.716 72.9171 101.807C73.1725 101.899 73.3723 102.105 73.4523 102.363C73.527 102.597 75.3271 108.1 80.1122 106.637C85.2015 105.08 86.3361 99.4142 86.3483 99.3565C86.4178 98.9886 86.7184 98.707 87.0902 98.6582C87.4829 98.6079 87.8269 98.8074 87.9867 99.1448C88.2543 99.704 89.2395 101.342 90.2281 101.516C90.4488 101.556 90.8033 101.552 91.3124 101.056C93.3783 99.0402 91.5018 94.5037 91.4809 94.4589C91.2967 94.0177 91.5036 93.5079 91.9449 93.3206C92.3862 93.1279 92.8971 93.3396 93.0813 93.7807C93.1803 94.0122 95.4407 99.4576 92.5234 102.3C91.5278 103.273 90.5635 103.346 89.9189 103.228C88.9146 103.047 88.084 102.307 87.4846 101.567C86.6488 103.706 84.7271 107.044 80.6213 108.3C79.8776 108.528 79.1774 108.63 78.5276 108.63Z" fill="#8758E7"/>
</svg>
