<svg width="200" height="200" viewBox="0 0 200 200" fill="none" xmlns="http://www.w3.org/2000/svg">
<rect width="200" height="200" fill="white"/>
<path d="M161.157 161.596C161.157 161.596 148.065 136.285 124.889 134.128L125.02 134.761L122.421 134.128L122.336 134.5C122.336 149.297 114.435 159.229 107.648 165.031C102.111 169.763 93.896 169.355 88.816 164.141C83.4226 158.605 77.4533 149.333 76.2879 134.428L76.2519 134.224L73.3173 134.835L73.4626 134.128C50.2879 136.285 37.1946 161.596 37.1946 161.596C45.8693 168.857 60.1813 167.308 65.1146 166.501C64.14 169.155 63.1999 171.357 62.4519 172.837H137.073C136.344 171.393 135.431 169.257 134.48 166.688C140.259 167.488 153.124 168.32 161.157 161.596Z" fill="#F35B5A"/>
<path d="M165.155 168.785C157.852 151.724 147.208 139.029 130.04 134.864L120.829 132.628C117.156 131.737 114.217 128.999 113.049 125.404C112.485 123.665 111.924 121.792 111.472 119.184C110.904 115.9 111.616 112.468 111.616 109.105" stroke="#1F1F20" stroke-width="2.40211" stroke-miterlimit="10" stroke-linecap="round" stroke-linejoin="round"/>
<path d="M32.6986 168.785C40.0013 151.724 50.6466 139.029 67.8146 134.864L77.0719 132.936C80.1506 132.293 82.6639 130.085 83.6906 127.113C84.4613 124.88 85.3146 122.341 85.8266 120.613C86.9533 116.811 87.1506 112.447 87.0013 109.125" stroke="#1F1F20" stroke-width="2.40211" stroke-miterlimit="10" stroke-linecap="round" stroke-linejoin="round"/>
<path d="M76.292 133.311C78.5346 162.113 98.736 169.88 98.0386 170.329C98.0386 170.329 122.339 159.317 122.339 133.387" stroke="#1F1F20" stroke-width="2.40211" stroke-miterlimit="10" stroke-linecap="round" stroke-linejoin="round"/>
<path d="M130.599 152.576C132.443 160.647 135.304 168.211 137.077 171.724" stroke="#1F1F20" stroke-width="2.40211" stroke-miterlimit="10" stroke-linecap="round" stroke-linejoin="round"/>
<path d="M68.944 152.523C67.1 160.615 64.2306 168.203 62.4519 171.724" stroke="#1F1F20" stroke-width="2.40211" stroke-miterlimit="10" stroke-linecap="round" stroke-linejoin="round"/>
<path d="M85.0893 124.504C94.2346 129.104 103.272 129.265 112.536 124.904C115.331 123.588 112.895 119.445 110.111 120.756C102.483 124.348 95.028 124.135 87.5133 120.356C84.7586 118.969 82.3226 123.113 85.0893 124.504Z" fill="#1F1F20"/>
<path d="M82.868 130.695C93.296 135.127 103.601 135.547 114.183 131.337C117.021 130.209 115.783 125.56 112.905 126.705C103.6 130.405 94.5719 130.491 85.2933 126.547C82.4799 125.351 80.0293 129.489 82.868 130.695Z" fill="#1F1F20"/>
<path d="M133.989 79.304C133.989 83.8213 131.315 87.4933 128.005 87.4933C127.096 87.4933 126.232 87.2147 125.456 86.708C120.508 101.493 109.164 113.517 98.7693 113.517C89.5453 113.517 77.3866 101.532 71.8159 86.8413C71.0973 87.264 70.3013 87.4933 69.4666 87.4933C66.1573 87.4933 63.4839 83.8213 63.4839 79.304C63.4839 75.096 65.8039 71.6347 68.7853 71.164C68.8333 45.7254 81.8453 35.8867 97.9639 35.8867C113.959 35.8867 127.757 50.7013 127.996 71.116H128.005C131.315 71.116 133.989 74.7787 133.989 79.304Z" stroke="#1F1F20" stroke-width="2.40211" stroke-miterlimit="10" stroke-linecap="round" stroke-linejoin="round"/>
<path d="M116.127 49.648C122.339 56.2533 121.729 69.012 121.532 72.4253C121.363 75.36 120.741 78.2787 120.717 81.2747C123.977 78.1293 126.46 74.876 128.137 70.7173C131.024 60.1147 128.62 51.4826 122.339 44.2933" fill="#F8A20D"/>
<path d="M116.127 49.648C122.339 56.2533 121.729 69.012 121.532 72.4253C121.363 75.36 120.741 78.2787 120.717 81.2747C123.977 78.1293 126.46 74.876 128.137 70.7173C131.024 60.1147 128.62 51.4826 122.339 44.2933" stroke="#1F1F20" stroke-width="2.40211" stroke-miterlimit="10" stroke-linecap="round" stroke-linejoin="round"/>
<path d="M97.76 75.212C97.76 76.3546 97.6813 77.4466 97.6413 78.5746C97.5786 80.324 97.8973 81.0067 96.4839 82.16C95.5973 82.8827 93.8453 83.8666 94.0933 84.9146C94.3946 86.2053 96.3133 87.5347 97.4053 88.084" stroke="#1F1F20" stroke-width="2.40211" stroke-miterlimit="10" stroke-linecap="round" stroke-linejoin="round"/>
<path d="M85.8079 69.3067C85.7519 71.7507 86.0439 74.256 86.0439 76.7467" stroke="#1F1F20" stroke-width="3.60316" stroke-miterlimit="10" stroke-linecap="round" stroke-linejoin="round"/>
<path d="M109.777 69.3067C109.721 71.7507 110.013 74.256 110.013 76.7467" stroke="#1F1F20" stroke-width="3.60316" stroke-miterlimit="10" stroke-linecap="round" stroke-linejoin="round"/>
<path d="M96.7146 96.1586C100.011 95.9706 104.064 95.0586 105.985 91.824" stroke="#1F1F20" stroke-width="2.40211" stroke-miterlimit="10" stroke-linecap="round" stroke-linejoin="round"/>
<path d="M116.205 82.3027C114.412 81.8627 108.344 81.3813 107.945 83.8386C107.441 86.948 116.493 86.5586 118.281 85.2773C121.113 83.2493 116.205 82.3027 116.205 82.3027Z" fill="#F35B5A"/>
<path d="M85.1213 82.3027C83.328 81.8627 77.2613 81.3813 76.8626 83.8386C76.3586 86.948 85.4106 86.5586 87.1986 85.2773C90.0306 83.2493 85.1213 82.3027 85.1213 82.3027Z" fill="#F35B5A"/>
<path d="M126.5 83.0213C125.123 86.036 125.033 92.0693 128.737 93.5413C130.308 94.1653 132.079 93.52 132.992 92.1133C134.243 90.188 133.572 87.8933 132.577 86.024C131.852 84.6587 129.776 85.8707 130.503 87.236C131.032 88.2307 131.667 89.616 131.012 90.6893C130.167 92.072 128.884 90.988 128.424 89.888C127.839 88.492 127.951 85.5973 128.575 84.2333C129.212 82.8373 127.143 81.616 126.5 83.0213Z" fill="#1F1F20"/>
<path d="M126.5 90.1893C125.123 93.2053 125.033 99.2373 128.737 100.709C130.308 101.333 132.079 100.689 132.992 99.2813C134.243 97.356 133.572 95.0613 132.577 93.1933C131.851 91.8267 129.776 93.04 130.503 94.4053C131.032 95.3987 131.667 96.7853 131.012 97.8573C130.167 99.2413 128.884 98.156 128.424 97.056C127.839 95.66 127.951 92.7667 128.575 91.4027C129.212 90.0067 127.143 88.784 126.5 90.1893Z" fill="#1F1F20"/>
<path d="M87.4106 69.3066H84.1906C80.9293 69.3066 78.2853 71.9506 78.2853 75.212C78.2853 78.472 80.9293 81.116 84.1906 81.116H87.4106C90.672 81.116 93.316 78.472 93.316 75.212C93.316 71.9506 90.672 69.3066 87.4106 69.3066Z" fill="#1F1F20"/>
<path d="M87.4106 67.5053C83.2306 67.5053 78.9893 67.752 77.1026 72.2187C74.9253 77.38 78.8333 82.668 84.1906 82.9173C88.268 83.1093 92.4746 82.576 94.4066 78.4187C96.8506 73.1653 92.7986 67.8666 87.4106 67.5053C85.096 67.348 85.1053 70.9533 87.4106 71.108C91.6333 71.392 93.156 77.2067 88.9906 78.9613C87.6893 79.5107 85.5973 79.4587 84.1906 79.3147C80.3853 78.9267 78.292 73.8467 82.12 71.668C83.636 70.8053 85.728 71.108 87.4106 71.108C89.7293 71.108 89.7333 67.5053 87.4106 67.5053Z" fill="#1F1F20"/>
<path d="M113.257 69.3066H110.037C106.776 69.3066 104.132 71.9506 104.132 75.212C104.132 78.472 106.776 81.116 110.037 81.116H113.257C116.519 81.116 119.161 78.472 119.161 75.212C119.161 71.9506 116.519 69.3066 113.257 69.3066Z" fill="#1F1F20"/>
<path d="M113.257 67.5053C109.077 67.5053 104.835 67.752 102.949 72.2187C100.771 77.38 104.68 82.668 110.037 82.9173C114.115 83.1093 118.321 82.576 120.253 78.4187C122.697 73.1653 118.645 67.8666 113.257 67.5053C110.941 67.348 110.952 70.9533 113.257 71.108C117.481 71.392 119.003 77.2067 114.837 78.9613C113.536 79.5107 111.443 79.4587 110.037 79.3147C106.232 78.9267 104.139 73.8467 107.967 71.668C109.483 70.8053 111.575 71.108 113.257 71.108C115.576 71.108 115.58 67.5053 113.257 67.5053Z" fill="#1F1F20"/>
<path d="M92.9999 77.5614C94.5679 75.9094 96.7839 74.66 99.1426 75.0334C101.391 75.3894 102.873 77.5227 104.239 79.1627C105.229 80.352 106.921 78.6454 105.937 77.4654C104.08 75.2347 102.084 72.7867 98.9719 72.5827C96.0266 72.392 93.2879 73.7707 91.3013 75.8627C90.2373 76.984 91.9333 78.6867 92.9999 77.5614Z" fill="#1F1F20"/>
<path d="M81.4893 77.4294C83.2893 75.5494 85.092 73.6694 86.8933 71.7894C87.9626 70.6734 86.268 68.972 85.1946 70.0907C83.3933 71.9707 81.592 73.8507 79.7893 75.7307C78.72 76.8467 80.416 78.5481 81.4893 77.4294Z" fill="#F8A20D"/>
<path d="M85.0866 79.7067C86.8879 77.8267 88.6906 75.9467 90.4906 74.0667C91.5613 72.9507 89.8653 71.2494 88.7933 72.368C86.9906 74.248 85.1906 76.128 83.3879 78.008C82.3186 79.124 84.0146 80.8253 85.0866 79.7067Z" fill="#F8A20D"/>
<path d="M107.995 77.7413C109.796 75.8627 111.599 73.9827 113.4 72.1027C114.469 70.9867 112.772 69.2853 111.701 70.404C109.899 72.284 108.099 74.164 106.296 76.044C105.227 77.16 106.923 78.8613 107.995 77.7413Z" fill="#F8A20D"/>
<path d="M111.593 80.02C113.395 78.1387 115.197 76.2587 116.997 74.38C118.068 73.2627 116.372 71.5613 115.3 72.6813C113.497 74.56 111.696 76.4413 109.895 78.3213C108.824 79.436 110.521 81.1373 111.593 80.02Z" fill="#F8A20D"/>
<path d="M124.104 37.9173C122.965 34.9786 120.673 32.52 117.975 30.856C114.873 28.944 111.264 27.996 107.652 27.5253C99.2386 26.428 90.512 27.8386 82.8733 31.532C73.168 36.2239 65.6266 44.5906 60.9333 54.1986C59.2173 57.708 57.7493 61.444 57.004 65.2853C56.5533 67.6106 56.32 69.9813 56.2146 72.3466C56.1306 74.2786 56.952 77.7386 56.3146 79.4826C57.324 76.724 58.4613 73.7133 60.248 71.3626C60.4053 74.328 60.1453 77.3453 60.2773 80.3253C60.8133 92.3146 69.5706 104.351 82.0173 104.556C76.0959 103.211 72.2666 96.58 71.6879 90.9733C70.9453 83.7693 72.3106 76.3026 76.1319 70.0506C86.2786 53.4533 112.595 66.0506 122.792 49.4093C124.635 46.4026 125.401 42.6759 124.533 39.2573C124.417 38.8013 124.273 38.3546 124.104 37.9173Z" fill="#F8A20D"/>
<path d="M124.104 37.9173C122.965 34.9786 120.673 32.52 117.975 30.856C114.873 28.944 111.264 27.996 107.652 27.5253C99.2386 26.428 90.512 27.8386 82.8733 31.532C73.168 36.2239 65.6266 44.5906 60.9333 54.1986C59.2173 57.708 57.7493 61.444 57.004 65.2853C56.5533 67.6106 56.32 69.9813 56.2146 72.3466C56.1306 74.2786 56.952 77.7386 56.3146 79.4826C57.324 76.724 58.4613 73.7133 60.248 71.3626C60.4053 74.328 60.1453 77.3453 60.2773 80.3253C60.8133 92.3146 69.5706 104.351 82.0173 104.556C76.0959 103.211 72.2666 96.58 71.6879 90.9733C70.9453 83.7693 72.3106 76.3026 76.1319 70.0506C86.2786 53.4533 112.595 66.0506 122.792 49.4093C124.635 46.4026 125.401 42.6759 124.533 39.2573C124.417 38.8013 124.273 38.3546 124.104 37.9173Z" stroke="#1F1F20" stroke-width="2.40211" stroke-miterlimit="10" stroke-linecap="round" stroke-linejoin="round"/>
<path d="M44.0572 150.623C47.5466 153.148 50.5453 155.971 54.9799 156.556C59.3546 157.133 63.9159 156.692 68.2053 155.748C69.7119 155.416 69.0746 153.1 67.5652 153.432C63.4932 154.328 58.3173 154.984 54.1466 154.017C50.6613 153.211 48.0773 150.58 45.2693 148.548C44.0159 147.64 42.8159 149.723 44.0572 150.623Z" fill="#1F1F20"/>
<path d="M41.1306 155.027C48.2479 160.119 58.3973 162.319 66.8373 159.151C68.272 158.612 67.6519 156.289 66.1999 156.835C58.3453 159.783 48.94 157.672 42.3426 152.952C41.084 152.052 39.8813 154.133 41.1306 155.027Z" fill="#1F1F20"/>
<path d="M38.2947 158.751C42.648 159.687 46.0067 162.796 50.5267 163.587C55.4693 164.452 60.5947 164.233 65.544 163.597C67.0547 163.404 67.0747 160.999 65.544 161.195C60.3733 161.859 54.7613 162.217 49.6427 160.972C45.78 160.033 42.796 157.265 38.9347 156.435C37.4267 156.109 36.7813 158.425 38.2947 158.751Z" fill="#1F1F20"/>
<path d="M36.2519 162.633C44.8173 167.161 55.8173 168.54 65.2773 166.557C66.7893 166.241 66.1493 163.924 64.6386 164.241C55.812 166.091 45.448 164.78 37.464 160.559C36.0986 159.836 34.8826 161.909 36.2519 162.633Z" fill="#1F1F20"/>
<path d="M153.091 148.548C150.543 150.468 148.195 152.964 145.065 153.884C141.019 155.072 135.823 154.355 131.816 153.432C130.312 153.085 129.669 155.401 131.177 155.748C135.455 156.732 140.132 157.231 144.485 156.46C148.475 155.753 151.185 152.972 154.303 150.623C155.521 149.703 154.325 147.616 153.091 148.548Z" fill="#1F1F20"/>
<path d="M155.888 152.952C149.656 157.615 140.639 159.785 133.121 156.835C131.683 156.269 131.057 158.591 132.484 159.151C140.585 162.332 150.367 160.065 157.101 155.027C158.323 154.111 157.128 152.024 155.888 152.952Z" fill="#1F1F20"/>
<path d="M159.159 156.435C155.452 157.268 152.616 159.991 148.923 160.972C144.091 162.257 138.633 161.853 133.735 161.195C132.209 160.991 132.223 163.395 133.735 163.597C138.463 164.232 143.381 164.451 148.104 163.587C152.459 162.791 155.603 159.693 159.799 158.751C161.305 158.412 160.667 156.095 159.159 156.435Z" fill="#1F1F20"/>
<path d="M160.551 160.559C152.987 164.744 143.048 166.089 134.613 164.241C133.107 163.911 132.464 166.225 133.976 166.557C143.037 168.544 153.636 167.129 161.764 162.633C163.117 161.885 161.907 159.809 160.551 160.559Z" fill="#1F1F20"/>
</svg>
