<svg width="163" height="163" viewBox="0 0 163 163" fill="none" xmlns="http://www.w3.org/2000/svg">
<path d="M162.077 81.3321C162.077 85.346 161.782 89.3077 161.228 93.1649C161.037 94.4512 160.811 95.7034 160.585 96.9529C158.898 105.536 155.876 113.633 151.722 121C149.185 125.501 146.231 129.742 142.895 133.652C141.993 134.729 141.055 135.769 140.099 136.795C136.084 141.069 131.62 144.909 126.753 148.227C123.002 150.801 119.023 153.058 114.853 154.969C111.828 156.359 108.702 157.575 105.468 158.583C101.924 159.715 98.2593 160.599 94.5062 161.226C90.145 161.956 85.6449 162.337 81.0734 162.337C66.2348 162.337 52.3345 158.357 40.3803 151.39C38.3473 150.228 36.3839 148.958 34.4743 147.602C34.2832 147.463 34.073 147.326 33.8836 147.187C32.5283 146.212 31.1887 145.187 29.9046 144.127C29.8351 144.077 29.7656 144.023 29.6961 143.953C26.4799 141.329 23.4758 138.445 20.694 135.335C18.9756 133.407 17.3422 131.391 15.7958 129.308C5.89184 115.875 0.052002 99.281 0.052002 81.3321C0.052002 36.5909 36.3318 0.32846 81.0734 0.32846C125.798 0.32846 162.077 36.5909 162.077 81.3321Z" fill="#F7F5FF"/>
<path d="M43.5095 98.2731L34.3527 147.463L34.3353 147.602C34.1425 147.463 33.934 147.326 33.7446 147.187C32.3893 146.212 31.0497 145.187 29.7656 144.127C29.6961 144.077 29.6266 144.023 29.5571 143.953C26.3409 141.329 23.3368 138.445 20.5567 135.335C27.5294 116.217 43.5095 98.2731 43.5095 98.2731Z" fill="#F74D76"/>
<path d="M160.446 96.9529C158.759 105.536 155.737 113.633 151.583 121C149.046 125.501 146.094 129.742 142.756 133.652C141.854 134.729 140.916 135.769 139.96 136.795C135.945 141.069 131.481 144.909 126.614 148.227C122.253 147.932 117.789 147.237 113.324 146.23C110.594 145.621 107.868 144.891 105.157 144.077C102.186 143.171 99.2481 142.163 96.3464 141.086C92.1259 139.523 88.0236 137.785 84.0968 135.995C64.1846 126.856 49.0871 116.05 49.0871 116.05C49.0871 116.05 47.7492 113.39 46.2531 108.924C45.506 106.701 44.7242 104.042 44.0639 101.054C43.9944 100.758 43.9249 100.445 43.8745 100.15C43.8554 100.098 43.8554 100.08 43.8398 100.047C43.7355 99.4737 43.6138 98.8819 43.5096 98.2731C42.5192 92.9043 41.9788 86.7015 42.5887 80.1334C43.1447 73.9306 47.28 65.7987 51.4328 56.7983C52.7012 53.9835 53.9696 51.1513 55.1338 48.2496C55.9157 46.3214 56.6454 44.3768 57.2883 42.4116C58.5741 38.6064 59.5627 34.7317 60.0162 30.9109C60.1534 29.9726 60.2421 29.0847 60.2751 28.1812C60.3811 26.3915 60.3619 24.6019 60.1899 22.8296C60.1899 22.8296 73.708 13.5164 88.7029 23.7157C92.6819 26.428 94.8869 29.4496 96.19 32.5424C97.6496 35.9845 97.997 39.4926 98.4158 42.7418C99.0222 47.5723 99.7711 51.794 104.6 54.2618C115.565 59.8911 126.077 66.5304 125.643 77.7877C125.191 89.0296 131.462 102.235 140.377 95.9987C145.694 92.2793 153.808 93.0278 160.446 96.9529Z" fill="black"/>
<path d="M105.329 158.583C101.787 159.715 98.1204 160.599 94.3673 161.226C90.0061 161.956 85.5059 162.337 80.9362 162.337C66.0977 162.337 52.1974 158.357 40.2414 151.39C38.2084 150.228 36.245 148.958 34.3354 147.602C34.1426 147.463 33.9341 147.326 33.7447 147.187C32.3894 146.212 31.0498 145.187 29.7657 144.127C30.0941 141.486 30.4781 138.88 30.8934 136.291C30.9299 136.065 30.982 135.824 31.0167 135.597C31.4667 132.902 31.988 130.261 32.5614 127.673C32.5805 127.551 32.6153 127.447 32.6309 127.344C34.3181 119.802 36.5595 112.851 39.4786 107.065C40.7817 104.477 42.2413 102.113 43.8398 100.047C44.0136 99.8199 44.2029 99.5938 44.3784 99.3679C45.2645 98.2906 46.1507 97.335 47.0889 96.4662C48.3052 95.3368 49.5215 94.312 50.7552 93.3564C50.8247 93.3232 50.875 93.3041 50.8941 93.2695C54.7688 90.3157 58.7305 88.2129 62.6573 86.7883C71.3102 83.6432 79.7894 83.7131 86.8438 84.9116C87.2609 84.9816 87.6587 85.0508 88.0427 85.1391C90.8384 85.676 93.3943 86.3731 95.601 87.1183C101.107 88.9257 104.513 90.9252 104.513 90.9252L105.157 144.077L105.329 158.583Z" fill="#F74D76"/>
<path d="M161.089 93.165C160.898 94.4513 160.672 95.7035 160.446 96.953C158.759 105.536 155.737 113.633 151.583 121C145.885 118.672 138.813 115.042 132.261 111.427C121.629 105.606 112.368 99.839 112.368 99.839L108.841 92.8006L95.0102 65.1738L91.4987 58.1536L90.404 55.9471L87.1374 49.4504L86.4945 48.1627L86.1661 47.4868L83.6467 42.4638L85.8882 40.6932C85.9038 40.6932 88.0757 38.9557 88.0757 38.9557L96.19 32.5425C96.19 32.5425 96.1204 37.8611 98.4157 42.7418C99.91 45.9754 102.428 48.9969 106.685 50.1609C115.131 52.4911 122.602 53.0278 127.45 63.9934C132.211 74.7302 125.851 82.3943 134.868 88.319C143.887 94.2422 147.1 86.2325 160.098 92.6437C160.446 92.8195 160.774 92.9912 161.089 93.165Z" fill="black"/>
<path d="M85.6536 68.2625L86.9724 86.715C86.9724 86.715 84.022 92.2562 73.2892 93.9069C65.2931 95.1339 62.4522 91.1845 62.4522 91.1845L63.248 74.8984L82.4339 69.2182L85.6536 68.2625Z" fill="#FC8165"/>
<path d="M82.4339 69.2181C82.4252 69.7258 82.2759 70.334 82.0256 71.0379C78.5541 80.5509 67.4077 83.3424 62.7946 84.0918L63.248 74.8983L82.4339 69.2181Z" fill="black"/>
<path d="M56.131 33.1297C56.131 33.1297 48.0984 56.9583 52.8332 69.54C57.568 82.1215 69.1417 79.0698 75.9546 75.9654C82.7692 72.8602 85.657 68.266 85.657 68.266C85.657 68.266 92.4178 69.922 96.2786 63.432C100.141 56.944 96.8259 50.1664 92.9355 48.8857C89.0469 47.6048 84.823 50.6998 84.823 50.6998L87.7368 43.7252C87.7368 43.7252 70.0852 11.0994 56.131 33.1297Z" fill="#FC8165"/>
<path d="M84.823 50.6999C84.823 50.6999 75.1536 53.6428 67.2409 43.3291C59.3298 33.0168 59.5227 28.4488 59.5227 28.4488L53.7906 40.4396C53.7906 40.4396 51.5058 32.7301 54.1642 27.4185C56.8209 22.1051 60.1847 22.8279 60.1847 22.8279L82.4547 26.1605L89.8671 43.0372L84.823 50.6999Z" fill="black"/>
<path d="M63.9864 68.3461C63.6632 68.3461 63.4617 68.3169 63.427 68.3113C62.9526 68.238 62.6277 67.7935 62.7007 67.3211C62.7736 66.848 63.2237 66.5406 63.6841 66.5929C63.8266 66.6139 66.6744 66.9458 69.0635 63.5298C69.3416 63.1354 69.8837 63.0431 70.2729 63.314C70.6673 63.5901 70.7645 64.1325 70.4883 64.5235C68.0922 67.9516 65.1905 68.3461 63.9864 68.3461Z" fill="black"/>
<path d="M59.6583 62.3428C59.3177 62.3428 58.9945 62.1412 58.8555 61.808C56.8538 56.9842 59.8737 51.6154 60.004 51.3881C60.242 50.9727 60.7754 50.8281 61.1889 51.0663C61.6042 51.3045 61.7485 51.834 61.5122 52.2515C61.4844 52.2982 58.7894 57.1145 60.4609 61.1421C60.6434 61.5852 60.4331 62.0943 59.9901 62.2769C59.8823 62.3237 59.7695 62.3428 59.6583 62.3428Z" fill="black"/>
<path d="M70.0262 51.1097C69.736 51.1097 69.451 50.9637 69.2859 50.6963C68.8811 50.0373 68.4033 49.6708 67.8281 49.5737C66.5684 49.3635 65.1992 50.4494 65.1853 50.4616C64.8152 50.7603 64.2644 50.71 63.9621 50.3366C63.658 49.9627 63.7137 49.417 64.0856 49.1129C64.1672 49.0491 66.0819 47.5043 68.1166 47.8621C69.2008 48.0426 70.0922 48.6907 70.7663 49.7841C71.0165 50.1921 70.8897 50.729 70.4831 50.9794C70.3389 51.0662 70.1826 51.1097 70.0262 51.1097Z" fill="black"/>
<path d="M57.0537 51.2781C56.7253 51.2781 56.4073 51.0887 56.2613 50.7678C55.9434 50.0653 55.224 49.0817 54.701 49.0581C54.3327 49.0458 53.9243 49.4815 53.4969 50.2323C53.2554 50.649 52.722 50.7868 52.3119 50.5553C51.8932 50.3178 51.7489 49.7856 51.987 49.3703C52.7949 47.9612 53.7645 47.2696 54.7862 47.3219C56.6054 47.4107 57.7244 49.7842 57.846 50.053C58.0423 50.4909 57.8477 51.004 57.4116 51.2001C57.2952 51.2536 57.1735 51.2781 57.0537 51.2781Z" fill="black"/>
<path d="M68.8915 44.4428C68.6952 44.4428 68.5006 44.3785 68.339 44.243C65.4669 41.8834 64.0803 43.1483 64.0212 43.2039C63.6807 43.5237 63.135 43.5289 62.7997 43.1935C62.4661 42.8582 62.454 42.3265 62.7824 41.9859C62.8797 41.8799 65.2809 39.4752 69.4423 42.9034C69.8141 43.2074 69.8663 43.7547 69.5605 44.1248C69.3902 44.3333 69.14 44.4428 68.8915 44.4428Z" fill="black"/>
<path d="M53.8827 45.011C53.6951 45.011 53.5075 44.9502 53.3493 44.8268C52.9706 44.5314 52.901 43.9876 53.1964 43.6088C53.523 43.1918 55.2606 41.1033 56.9095 41.3378C57.436 41.4091 58.1588 41.7236 58.614 42.8286C58.7982 43.2717 58.5879 43.7808 58.1449 43.9633C57.7018 44.1526 57.1945 43.9372 57.0103 43.4941C56.9686 43.3968 56.8278 43.0806 56.6784 43.0597C56.2249 43.0163 55.2015 43.866 54.5673 44.6756C54.397 44.8946 54.1399 45.011 53.8827 45.011Z" fill="black"/>
<path d="M86.7377 61.5051C86.55 61.5051 86.3606 61.4462 86.2025 61.3233C85.8255 61.026 85.7578 60.4803 86.0514 60.1015L91.6654 52.9152C91.9608 52.5345 92.5098 52.4687 92.8851 52.7639C93.2639 53.0612 93.3316 53.6048 93.0362 53.9834L87.424 61.1718C87.252 61.3904 86.9948 61.5051 86.7377 61.5051Z" fill="black"/>
<path d="M93.1684 59.118C93.1197 59.116 88.7481 58.8663 88.7481 58.8663C88.2703 58.8399 87.9036 58.4298 87.9314 57.9506C87.9575 57.4728 88.3484 57.0886 88.8471 57.132L93.217 57.3819C93.6965 57.4097 94.0632 57.8203 94.0354 58.2981C94.011 58.7617 93.6271 59.118 93.1684 59.118Z" fill="black"/>
<path d="M114.714 154.969C111.689 156.359 108.563 157.575 105.329 158.583C101.787 159.715 98.1203 160.599 94.3673 161.226C90.006 161.956 85.5059 162.337 80.9361 162.337C66.0976 162.337 52.1973 158.357 40.2413 151.39C38.2084 150.228 36.2449 148.958 34.3354 147.602C34.1425 147.463 33.934 147.326 33.7446 147.187C32.3893 146.212 31.0497 145.187 29.7657 144.127C29.6962 144.077 29.6266 144.023 29.5571 143.953C29.9915 141.347 42.5365 99.0725 43.5095 98.2731L45.6988 96.8137C48.5467 94.4335 49.9037 93.8267 50.7551 93.3564C50.8246 93.3232 50.8749 93.3041 50.8941 93.2695C50.9444 93.2539 42.4827 138.43 42.4827 138.43L84.0637 135.995C84.0967 135.995 86.0601 135.874 86.0601 135.874C86.0601 135.874 87.2069 125.707 89.8671 112.747C93.1684 96.6468 95.6009 87.1183 95.6009 87.1183C99.7815 87.0191 104.513 90.9252 104.513 90.9252L113.324 146.23L114.714 154.969Z" fill="#FFAF45"/>
<path d="M142.756 133.652C141.854 134.729 140.916 135.769 139.96 136.795C135.945 141.069 131.481 144.909 126.614 148.227C122.863 150.801 118.884 153.058 114.714 154.969C111.689 156.359 108.563 157.575 105.329 158.583C101.787 159.715 98.1204 160.599 94.3673 161.226L98.3341 126.496C98.9423 118.99 104.513 90.9252 104.513 90.9252C104.513 90.9252 106.181 91.5163 108.841 92.8005C114.451 95.5283 124.461 101.401 132.244 111.427C135.371 115.423 138.136 120.08 140.117 125.483C141.142 128.246 142.011 130.974 142.756 133.652Z" fill="#F74D76"/>
<path d="M70.4571 94.929C64.0751 94.929 61.851 91.8393 61.7381 91.6779C61.4653 91.2849 61.5643 90.7426 61.9588 90.4705C62.3497 90.1975 62.8866 90.2926 63.1629 90.6835C63.2168 90.7515 66.1272 94.5462 75.2093 92.6614C84.5051 90.727 87.1357 85.0283 87.2434 84.7868C87.438 84.3504 87.954 84.1521 88.3884 84.3436C88.8263 84.5363 89.0261 85.0454 88.835 85.4831C88.7169 85.7579 85.7874 92.2372 75.5619 94.3601C73.6229 94.7653 71.9288 94.929 70.4571 94.929Z" fill="white"/>
<path d="M53.8809 144.77C53.4309 144.77 53.0503 144.422 53.0155 143.965C52.9791 143.488 53.3388 143.07 53.8183 143.034L88.7324 140.423C89.2171 140.391 89.6272 140.748 89.6655 141.226C89.7002 141.703 89.3405 142.12 88.8627 142.157L53.9469 144.769C53.9243 144.77 53.9035 144.77 53.8809 144.77Z" fill="white"/>
</svg>
