<svg width="200" height="200" viewBox="0 0 200 200" fill="none" xmlns="http://www.w3.org/2000/svg">
<rect width="200" height="200" fill="white"/>
<path d="M134.67 79.8107C134.67 84.328 131.985 88 128.686 88C127.623 88 126.615 87.616 125.753 86.9547C121.686 102.028 111.83 114.293 98.6541 114.024C84.6265 113.737 75.7751 101.932 72.2375 87.4827C71.5849 87.8173 70.8755 88 70.1369 88C66.8297 88 64.1541 84.328 64.1541 79.8107C64.1541 75.2853 66.8297 71.6227 70.1369 71.6227C70.262 71.6227 70.3765 71.6227 70.4927 71.632C70.4823 71.4974 70.4927 71.3733 70.4927 71.2387C71.0197 45.6933 83.2844 36.0574 99.4312 36.3934C115.301 36.7094 127.777 51.5533 127.795 71.7187C128.082 71.6507 128.379 71.6227 128.686 71.6227C131.985 71.6227 134.67 75.2853 134.67 79.8107Z" stroke="#1F1F20" stroke-width="2.40211" stroke-miterlimit="10" stroke-linecap="round" stroke-linejoin="round"/>
<path d="M114.967 54.4013C116.788 57.2933 118.621 60.1627 119.921 63.7587C121.066 66.9253 122.241 70.496 123.605 73.352C127.175 71.9827 128.365 69.9573 127.822 66.2507C127.349 63.0173 126.537 59.4773 125.551 56.304C124.904 54.224 123.335 49.6227 121.621 48.1813C120.047 46.856 119.383 48.5 118.168 49.808C117.159 50.8933 115.012 52.4053 114.566 53.4" fill="#F35B5A"/>
<path d="M114.967 54.4013C116.788 57.2933 118.621 60.1627 119.921 63.7587C121.066 66.9253 122.241 70.496 123.605 73.352C127.175 71.9827 128.365 69.9573 127.822 66.2507C127.349 63.0173 126.537 59.4773 125.551 56.304C124.904 54.224 123.335 49.6227 121.621 48.1813C120.047 46.856 119.383 48.5 118.168 49.808C117.159 50.8933 115.012 52.4053 114.566 53.4" stroke="#1F1F20" stroke-width="2.40211" stroke-miterlimit="10" stroke-linecap="round" stroke-linejoin="round"/>
<path d="M119.365 34.1827C117.327 31.5373 115.529 28.72 112.92 26.5773C110.699 24.7533 106.12 21.916 103.305 22.7587C104.968 24.304 107.806 26.4267 108.145 28.768L102.59 26.5307C97.2792 24.392 91.5473 23.5014 85.8349 23.9C83.4079 24.0694 81.1516 24.2587 80.0683 24.4334C77.3651 24.8694 75.0719 25.3013 74.2203 25.616C75.5604 26.9053 78.5251 28.772 79.1828 30.36C78.3271 30.4134 76.0953 31.0267 73.7984 31.7187C69.5251 33.0067 65.7073 35.4933 62.8323 38.9067C60.386 41.812 57.8417 45.1093 57.7323 46.3827C61.012 45.112 63.8921 41.4974 67.4677 41.16C64.6995 44.1694 63.8079 49.648 62.8453 53.4934C61.9588 57.036 60.6803 60.6307 60.0693 64.2147C59.5511 67.248 58.0136 70.812 57.9521 73.78C59.4303 70 62.4875 63.7027 66.214 61.6587C64.6307 67.3067 64.5016 74.2854 65.774 80.068C66.8573 84.9934 69.5839 89.7227 71.0197 94.648C70.9287 91.7707 71.2489 88.844 71.9172 86.2294C73.5683 79.7707 76.0197 73.3747 79.6907 67.7574C83.4573 61.996 87.7245 58.8054 94.5136 58.1934C98.7984 57.808 102.782 59.5787 106.925 59.2053C109.929 58.9333 112.493 57.4867 114.713 55.4614C116.352 53.9654 121.572 49.396 121.572 49.396C126.463 45.1574 122.566 38.3373 119.365 34.1827Z" fill="#F35B5A"/>
<path d="M119.365 34.1827C117.327 31.5373 115.529 28.72 112.92 26.5773C110.699 24.7533 106.12 21.916 103.305 22.7587C104.968 24.304 107.806 26.4267 108.145 28.768L102.59 26.5307C97.2792 24.392 91.5473 23.5014 85.8349 23.9C83.4079 24.0694 81.1516 24.2587 80.0683 24.4334C77.3651 24.8694 75.0719 25.3013 74.2203 25.616C75.5604 26.9053 78.5251 28.772 79.1828 30.36C78.3271 30.4134 76.0953 31.0267 73.7984 31.7187C69.5251 33.0067 65.7073 35.4933 62.8323 38.9067C60.386 41.812 57.8417 45.1093 57.7323 46.3827C61.012 45.112 63.8921 41.4974 67.4677 41.16C64.6995 44.1694 63.8079 49.648 62.8453 53.4934C61.9588 57.036 60.6803 60.6307 60.0693 64.2147C59.5511 67.248 58.0136 70.812 57.9521 73.78C59.4303 70 62.4875 63.7027 66.214 61.6587C64.6307 67.3067 64.5016 74.2854 65.774 80.068C66.8573 84.9934 69.5839 89.7227 71.0197 94.648C70.9287 91.7707 71.2489 88.844 71.9172 86.2294C73.5683 79.7707 76.0197 73.3747 79.6907 67.7574C83.4573 61.996 87.7245 58.8054 94.5136 58.1934C98.7984 57.808 102.782 59.5787 106.925 59.2053C109.929 58.9333 112.493 57.4867 114.713 55.4614C116.352 53.9654 121.572 49.396 121.572 49.396C126.463 45.1574 122.566 38.3373 119.365 34.1827Z" stroke="#1F1F20" stroke-width="2.40211" stroke-miterlimit="10" stroke-linecap="round" stroke-linejoin="round"/>
<path d="M98.4339 75.7186C98.4339 75.7186 93.6604 83.3706 93.6604 86.0266C93.6604 87.352 96.9885 88.0426 98.0797 88.592" stroke="#1F1F20" stroke-width="2.40211" stroke-miterlimit="10" stroke-linecap="round" stroke-linejoin="round"/>
<path d="M86.4833 69.8133C86.4276 72.2586 86.7193 74.7626 86.7193 77.2546" stroke="#1F1F20" stroke-width="3.60316" stroke-miterlimit="10" stroke-linecap="round" stroke-linejoin="round"/>
<path d="M110.452 69.8133C110.396 72.2586 110.689 74.7626 110.689 77.2546" stroke="#1F1F20" stroke-width="3.60316" stroke-miterlimit="10" stroke-linecap="round" stroke-linejoin="round"/>
<path d="M93.6787 96.4893C96.9927 96.912 106.025 97.5666 105.917 94.68" stroke="#1F1F20" stroke-width="2.40211" stroke-miterlimit="10" stroke-linecap="round" stroke-linejoin="round"/>
<path d="M116.879 82.8106C115.087 82.3693 109.019 81.8893 108.621 84.3466C108.118 87.456 117.17 87.0653 118.957 85.7853C121.79 83.7573 116.879 82.8106 116.879 82.8106Z" fill="#F35B5A"/>
<path d="M85.7959 82.8106C84.0041 82.3693 77.9355 81.8893 77.538 84.3466C77.0344 87.456 86.0864 87.0653 87.874 85.7853C90.7063 83.7573 85.7959 82.8106 85.7959 82.8106Z" fill="#F35B5A"/>
<path d="M90.0708 112.22C90.2246 114.661 87.8364 122.328 87.8364 122.328" stroke="#1F1F20" stroke-width="2.40211" stroke-miterlimit="10" stroke-linecap="round" stroke-linejoin="round"/>
<path d="M108.847 111.536C108.586 114.025 109.816 119.035 111.193 120.833" stroke="#1F1F20" stroke-width="2.40211" stroke-miterlimit="10" stroke-linecap="round" stroke-linejoin="round"/>
<path d="M109.262 116.605C111.782 116.964 112.733 118.724 111.303 121.471C109.93 124.108 106.439 124.603 104.041 125.103C104.633 126.455 114.598 145.46 115.53 146.495C117.287 148.447 118.993 126.624 117.732 124.524C117.054 123.393 112.595 118.901 111.771 118.16" stroke="#1F1F20" stroke-width="2.40211" stroke-miterlimit="10" stroke-linecap="round" stroke-linejoin="round"/>
<path d="M90.5536 142.731C90.6317 144.404 94.1527 143.86 96.6593 143.976C99.8807 144.125 103.071 144.219 106.267 144.059C106.662 144.039 107.952 143.775 108.236 143.967C108.558 144.187 108.287 145.101 108.223 145.509C107.97 147.089 107.686 148.595 107.692 150.211C107.702 154.189 107.692 158.155 107.692 162.136C107.692 163.923 107.665 165.873 107.985 167.589C108.185 168.664 108.101 170.259 108.568 171.245C107.607 170.709 106.142 170.741 105.081 170.732C103.206 170.715 101.344 170.479 99.4693 170.461C97.2151 170.44 94.9364 170.567 92.6839 170.467C91.2412 170.401 89.7984 170.371 90.2219 170.371L90.5536 142.731Z" fill="#F8A20D"/>
<path d="M165.119 169.991C165.119 169.991 157.832 146.156 147.059 138.952C142.04 135.593 136.106 132.864 130.691 130.171C127.363 128.516 121.391 125.896 118.071 124.524" stroke="#1F1F20" stroke-width="2.40211" stroke-miterlimit="10" stroke-linecap="round" stroke-linejoin="round"/>
<path d="M108.619 171.585C108.961 161.513 108.087 151.416 108.46 141.309C108.558 138.648 108.845 137.859 109.075 135.273" stroke="#1F1F20" stroke-width="2.40211" stroke-miterlimit="10" stroke-linecap="round" stroke-linejoin="round"/>
<path d="M89.5953 116.605C87.076 116.964 86.124 118.724 87.5552 121.471C88.9287 124.108 92.4183 124.603 94.8167 125.103C94.2245 126.455 84.2593 145.46 83.3271 146.495C81.5708 148.447 79.8651 126.624 81.1255 124.524C81.8036 123.393 86.262 118.901 87.0864 118.16" stroke="#1F1F20" stroke-width="2.40211" stroke-miterlimit="10" stroke-linecap="round" stroke-linejoin="round"/>
<path d="M33.7386 169.991C33.7386 169.991 41.025 146.156 51.7984 138.952C56.8183 135.593 62.7516 132.864 68.1672 130.171C71.4953 128.516 77.4667 125.896 80.7869 124.524" stroke="#1F1F20" stroke-width="2.40211" stroke-miterlimit="10" stroke-linecap="round" stroke-linejoin="round"/>
<path d="M90.2385 171.585C89.8964 161.513 90.7697 151.416 90.3973 141.309C90.3 138.648 90.012 137.859 89.7828 135.273" stroke="#1F1F20" stroke-width="2.40211" stroke-miterlimit="10" stroke-linecap="round" stroke-linejoin="round"/>
<path d="M108.418 142.616C106.436 143.707 103.056 144.284 100.647 144.348C97.3245 144.436 94.0172 143.928 90.7959 143.299" stroke="#1F1F20" stroke-width="2.40211" stroke-miterlimit="10" stroke-linecap="round" stroke-linejoin="round"/>
</svg>
