<svg width="163" height="163" viewBox="0 0 163 163" fill="none" xmlns="http://www.w3.org/2000/svg">
<path d="M162.008 81.0976C162.008 89.5594 160.723 97.7259 158.306 105.388C154.624 117.099 148.369 127.664 140.185 136.403C140.011 136.612 139.838 136.803 139.646 136.994C139.403 137.255 139.142 137.515 138.899 137.759C135.806 140.921 132.436 143.84 128.856 146.446C128.387 146.811 127.918 147.159 127.43 147.472C114.278 156.698 98.2755 162.102 81.0038 162.102C77.4942 162.102 74.0014 161.876 70.6132 161.459C70.5786 161.441 70.561 161.441 70.5263 161.441C62.1861 160.347 54.2282 158.001 46.8789 154.578C46.2701 154.3 45.662 154.005 45.0545 153.709C33.0824 147.784 22.7963 138.958 15.0989 128.168C14.4393 127.229 13.7788 126.291 13.1523 125.318C11.5892 122.955 10.1646 120.505 8.87847 117.986C3.19672 106.917 0 94.3898 0 81.0976C0 36.3561 36.2622 0.0936548 81.0038 0.0936548C125.746 0.0936548 162.008 36.3561 162.008 81.0976Z" fill="#F7F5FF"/>
<path d="M140.185 136.41C140.011 136.619 139.838 136.812 139.646 137.003C139.403 137.262 139.143 137.524 138.899 137.765C124.2 152.778 103.697 162.108 81.0045 162.108C77.4949 162.108 74.0021 161.882 70.6146 161.465C70.5793 161.448 70.5624 161.448 70.527 161.448C62.1868 160.353 54.2289 158.009 46.8796 154.585C47.5747 125.238 47.2788 99.557 47.2788 99.0722C47.5569 98.4623 61.1443 94.9699 79.2324 94.3809C107.693 93.4756 131.741 109.53 140.185 136.41Z" fill="#F74D76"/>
<path d="M70.6146 161.465C70.5793 161.448 70.5624 161.448 70.527 161.448C62.1868 160.353 54.2289 158.009 46.8796 154.585C46.2715 154.309 45.6627 154.011 45.0552 153.716C33.0831 147.793 22.797 138.966 15.0995 128.176C30.7028 106.785 43.4569 100.547 47.2787 99.0722C48.0613 98.7577 48.461 98.6552 48.461 98.6552L70.6146 161.465Z" fill="#F74D76"/>
<path d="M81.3188 46.7654C81.3188 46.7654 100.022 47.6585 101.081 29.7219C102.208 10.6264 84.54 8.79676 77.0373 16.5166C69.5354 24.2365 70.9242 32.0902 70.9242 32.0902C70.9242 32.0902 65.6945 27.3762 59.9899 33.1657C55.8027 37.414 57.9632 44.3624 57.9632 44.3624C57.9632 44.3624 48.3171 43.9905 49.2171 52.4124C50.1151 60.836 56.1402 65.1121 56.1402 65.1121L81.3188 46.7654Z" fill="#FFAF45"/>
<path d="M64.2197 79.7908L66.1635 99.663C66.1635 99.663 70.3065 105.025 82.0246 104.832C90.7544 104.69 93.6058 102.433 93.6058 102.433L91.4129 92.487L89.2627 82.7881L67.8183 80.2252L64.2197 79.7908Z" fill="#FC8165"/>
<path d="M67.8184 80.2252C67.9214 80.7621 68.1902 81.3824 68.5832 82.0843C74.0014 91.5765 86.3678 92.5287 91.4129 92.487L89.2627 82.788L67.8184 80.2252Z" fill="black"/>
<path d="M89.2627 37.0561C89.2627 37.0561 102.13 60.9524 99.3729 75.1985C96.6159 89.4446 83.7479 88.2961 75.9358 86.2284C68.1236 84.1607 64.2176 79.7943 64.2176 79.7943C64.2176 79.7943 57.3238 82.7811 52.0392 76.5781C46.7547 70.3734 49.0522 62.5614 52.9582 60.4937C56.8649 58.4261 61.9201 60.9525 61.9201 60.9525L57.5538 54.0596C57.5538 54.0596 70.4212 16.1483 89.2627 37.0561Z" fill="#FC8165"/>
<path d="M62.1557 71.8311C62.0084 71.8311 61.8584 71.7946 61.7206 71.7147L53.8405 67.1397C53.426 66.8999 53.284 66.3682 53.525 65.953C53.7653 65.5377 54.2953 65.3935 54.7128 65.6368L62.5927 70.2099C63.0074 70.4514 63.1492 70.9831 62.9084 71.3984C62.7475 71.6764 62.4549 71.8311 62.1557 71.8311Z" fill="black"/>
<path d="M55.724 72.5192C55.4111 72.5192 55.1077 72.3489 54.9531 72.0518C54.731 71.6261 54.8959 71.1013 55.3209 70.8789L59.3308 68.7852C59.7549 68.5645 60.2804 68.7261 60.503 69.1536C60.7241 69.5793 60.5599 70.104 60.1351 70.3264L56.1252 72.4202C55.9968 72.4879 55.8597 72.5192 55.724 72.5192Z" fill="black"/>
<path d="M92.7478 46.4248C92.5801 46.4248 92.4119 46.3761 92.2632 46.2771C90.0451 44.7811 88.0049 46.1989 87.9201 46.2615C87.5319 46.5378 86.9901 46.4509 86.7092 46.0634C86.4303 45.6742 86.5137 45.1355 86.9 44.8541C87.0242 44.7637 89.9916 42.6509 93.2338 44.835C93.6315 45.1043 93.7368 45.6429 93.4687 46.0408C93.3011 46.291 93.0269 46.4248 92.7478 46.4248Z" fill="black"/>
<path d="M90.081 69.0493C90.0261 69.0493 89.9712 69.0458 89.9148 69.0336C89.4437 68.9416 89.1364 68.4863 89.2272 68.0154C90.6614 60.6378 86.361 55.771 86.3175 55.7241C85.9959 55.3679 86.023 54.8188 86.378 54.4974C86.7323 54.1742 87.2814 54.202 87.6032 54.5547C87.8047 54.7771 92.5388 60.0836 90.933 68.3473C90.8522 68.7608 90.4883 69.0493 90.081 69.0493Z" fill="black"/>
<path d="M92.7614 58.1549C92.2985 58.1549 91.9136 57.79 91.894 57.3226L91.6917 52.5809C91.6714 52.1013 92.0427 51.6965 92.5218 51.6756C92.9935 51.6548 93.4069 52.0266 93.4272 52.5062L93.6301 57.2479C93.6505 57.7275 93.2786 58.1341 92.7994 58.1532C92.7866 58.1549 92.7737 58.1549 92.7614 58.1549Z" fill="black"/>
<path d="M79.7149 59.4008C79.2527 59.4008 78.8679 59.0359 78.8482 58.5702L78.6467 53.8268C78.6263 53.3472 78.9975 52.9423 79.4767 52.9215C79.9755 52.8902 80.3618 53.2725 80.3821 53.752L80.5837 58.4955C80.604 58.9751 80.2329 59.3799 79.7537 59.4008C79.7408 59.4008 79.7279 59.4008 79.7149 59.4008Z" fill="black"/>
<path d="M91.9042 42.4667C91.9042 42.4667 89.3556 38.6823 84.3941 39.1341C79.4332 39.5841 76.8806 43.3598 76.8806 43.3598C76.8806 43.3598 79.8725 51.4949 73.5644 56.5894C67.2576 61.6838 61.9201 60.9524 61.9201 60.9524L56.8602 59.6892L52.574 52.8954L65.2275 36.2672L82.5907 24.8133L92.7492 32.3699L91.9042 42.4667Z" fill="#FFAF45"/>
<path d="M85.9518 74.142C84.2448 74.142 81.2754 73.652 79.4496 70.5783C79.2046 70.1665 79.3403 69.6314 79.7523 69.3881C80.1642 69.1396 80.6984 69.2786 80.9428 69.6904C82.9335 73.0404 86.7737 72.3611 86.9359 72.3298C87.4096 72.2412 87.8617 72.5505 87.9521 73.0213C88.0415 73.4905 87.7361 73.944 87.2657 74.036C87.2027 74.0482 86.697 74.142 85.9518 74.142Z" fill="black"/>
<path d="M97.9917 49.6028C94.2804 49.6028 91.2614 52.7373 91.2614 56.5894C91.2614 60.4416 94.2804 63.5761 97.9917 63.5761C101.702 63.5761 104.721 60.4416 104.721 56.5894C104.721 52.7373 101.702 49.6028 97.9917 49.6028ZM97.9917 65.3136C93.3221 65.3136 89.5238 61.4007 89.5238 56.5894C89.5238 51.7782 93.3221 47.8653 97.9917 47.8653C102.661 47.8653 106.459 51.7782 106.459 56.5894C106.459 61.4007 102.661 65.3136 97.9917 65.3136Z" fill="#80BAFF"/>
<path d="M77.8776 51.5454C74.0251 51.5454 70.8908 54.6799 70.8908 58.532C70.8908 62.3859 74.0251 65.5204 77.8776 65.5204C81.7301 65.5204 84.8651 62.3859 84.8651 58.532C84.8651 54.6799 81.7301 51.5454 77.8776 51.5454ZM77.8776 67.2579C73.0669 67.2579 69.1533 63.3433 69.1533 58.532C69.1533 53.7225 73.0669 49.8079 77.8776 49.8079C82.689 49.8079 86.6027 53.7225 86.6027 58.532C86.6027 63.3433 82.689 67.2579 77.8776 67.2579Z" fill="#80BAFF"/>
<path d="M84.8889 58.492C84.441 58.492 84.0608 58.148 84.0235 57.6945C83.9842 57.2149 84.3404 56.7962 84.8182 56.7562L90.9608 56.2541C91.4617 56.2298 91.8594 56.5703 91.898 57.0481C91.9374 57.5277 91.5811 57.9464 91.1032 57.9864L84.9609 58.4885C84.9364 58.4903 84.9126 58.492 84.8889 58.492Z" fill="#80BAFF"/>
<path d="M56.8588 60.5579C56.6458 60.5579 56.4312 60.4797 56.2637 60.3216C55.9141 59.9932 55.8978 59.4424 56.2264 59.0931C60.8967 54.1255 70.0316 58.7178 70.4184 58.9159C70.8453 59.1331 71.0137 59.6579 70.7951 60.0836C70.5779 60.511 70.0526 60.6795 69.6271 60.4623C69.5435 60.4189 61.272 56.2645 57.4922 60.2851C57.3205 60.4658 57.0896 60.5579 56.8588 60.5579Z" fill="#80BAFF"/>
<path d="M82.2621 105.006C76.6492 105.006 70.128 103.583 63.7947 98.9332C63.4079 98.6483 63.3251 98.1044 63.6095 97.7187C63.8919 97.3295 64.4348 97.2478 64.823 97.531C80.1934 108.818 96.7217 100.021 96.8861 99.9306C97.3068 99.6977 97.8348 99.8541 98.0657 100.276C98.2958 100.697 98.1403 101.225 97.7194 101.454C97.6122 101.513 91.0516 105.006 82.2621 105.006Z" fill="white"/>
<path d="M73.5637 49.2449C73.4056 49.2449 73.2461 49.2015 73.1029 49.1111C72.6963 48.8575 72.5735 48.3206 72.828 47.914C75.2048 44.121 78.9094 44.4129 80.5328 45.094C80.9753 45.2799 81.1831 45.789 80.997 46.232C80.8125 46.6734 80.3062 46.8819 79.8636 46.6977C79.7266 46.6421 76.4761 45.365 74.3007 48.8366C74.1352 49.1007 73.8528 49.2449 73.5637 49.2449Z" fill="black"/>
<path d="M128.856 146.446C128.387 146.811 127.918 147.159 127.43 147.471L124.009 140.556C123.8 140.139 123.974 139.618 124.408 139.392C124.843 139.183 125.346 139.357 125.572 139.791L128.856 146.446Z" fill="white"/>
<path d="M77.596 124.452C46.0197 124.452 28.4568 113.051 28.2702 112.926C27.8718 112.66 27.7618 112.123 28.028 111.721C28.2926 111.324 28.8323 111.216 29.2313 111.476C29.4274 111.609 49.2694 124.449 84.842 122.517C114.958 120.87 122.41 109.357 122.483 109.24C122.733 108.834 123.267 108.705 123.675 108.954C124.083 109.204 124.214 109.735 123.967 110.144C123.661 110.649 116.103 122.548 84.9371 124.251C82.4136 124.388 79.9648 124.452 77.596 124.452Z" fill="white"/>
<path d="M81.3616 144.279C44.2441 144.279 18.09 125.83 17.8247 125.641C17.4358 125.361 17.3455 124.817 17.6252 124.43C17.9048 124.037 18.4478 123.949 18.838 124.228C19.1041 124.421 45.8602 143.298 83.6305 142.519C121.171 141.744 134.469 124.586 134.599 124.414C134.886 124.032 135.429 123.954 135.815 124.239C136.197 124.525 136.277 125.069 135.991 125.453C135.443 126.188 122.135 143.463 83.6664 144.257C82.8941 144.271 82.1238 144.279 81.3616 144.279Z" fill="white"/>
</svg>
