<svg width="200" height="200" viewBox="0 0 200 200" fill="none" xmlns="http://www.w3.org/2000/svg">
<rect width="200" height="200" fill="white"/>
<path d="M67.1533 158.994L64.248 166.183C64.248 166.183 39.2307 164.671 35.22 161.436L39.988 154.444C39.988 154.444 46.7413 159.682 67.1533 158.994Z" fill="#F35B5A"/>
<path d="M134.916 158.994L137.713 166.183C137.713 166.183 161.805 164.671 165.667 161.436L161.075 154.444C161.075 154.444 154.571 159.682 134.916 158.994Z" fill="#F35B5A"/>
<path d="M138.373 168.69H63.752C66.84 162.576 73.2173 144.188 71.7987 132.215L71.608 131.314L77.5533 130.076L77.588 130.282C78.7534 145.186 84.7227 154.459 90.116 159.995C95.196 165.207 103.411 165.616 108.948 160.884C115.735 155.083 123.636 145.15 123.636 130.352L123.721 129.98L130.471 131.627L130.327 132.215C128.909 144.188 135.288 162.576 138.373 168.69Z" fill="#F35B5A"/>
<path d="M166.456 164.638C159.152 147.576 148.508 134.883 131.34 130.716L122.129 128.482C118.456 127.59 115.517 124.851 114.349 121.256C113.785 119.518 113.224 117.644 112.772 115.036C112.204 111.752 112.916 108.322 112.916 104.959" stroke="#1F1F20" stroke-width="2.40211" stroke-miterlimit="10" stroke-linecap="round" stroke-linejoin="round"/>
<path d="M34 164.638C41.3013 147.576 51.9467 134.883 69.1147 130.716L78.372 128.788C81.4507 128.147 83.964 125.938 84.9907 122.966C85.7613 120.734 86.6147 118.194 87.1267 116.466C88.2533 112.663 88.4507 108.298 88.3013 104.978" stroke="#1F1F20" stroke-width="2.40211" stroke-miterlimit="10" stroke-linecap="round" stroke-linejoin="round"/>
<path d="M77.592 129.163C78.9093 146.08 86.4226 155.74 92.2573 160.924C96.4026 164.607 102.6 164.747 106.989 161.359C114.113 155.862 123.639 145.474 123.639 129.238" stroke="#1F1F20" stroke-width="2.40211" stroke-miterlimit="10" stroke-linecap="round" stroke-linejoin="round"/>
<path d="M130.328 131.094C128.909 143.078 135.289 161.462 138.377 167.576" stroke="#1F1F20" stroke-width="2.40211" stroke-miterlimit="10" stroke-linecap="round" stroke-linejoin="round"/>
<path d="M71.8027 131.094C73.2213 143.078 66.8413 161.462 63.7533 167.576" stroke="#1F1F20" stroke-width="2.40211" stroke-miterlimit="10" stroke-linecap="round" stroke-linejoin="round"/>
<path d="M86.3893 120.89C95.5347 125.49 104.572 125.65 113.836 121.29C116.631 119.974 114.195 115.831 111.411 117.14C103.783 120.734 96.328 120.52 88.8133 116.74C86.0586 115.355 83.6227 119.499 86.3893 120.89Z" fill="#1F1F20"/>
<path d="M99.676 122.812C98.4133 125.106 96.3453 126.81 96.6506 129.679C96.8986 132.016 98.9093 133.83 101.283 133.778C103.319 133.734 104.987 132.191 105.361 130.22C105.867 127.566 103.632 125.299 102.651 123.014C102.043 121.596 99.972 122.819 100.576 124.226C101.217 125.715 105.185 131.054 101.321 131.363C99.236 131.531 98.6706 129.242 99.3386 127.687C99.9146 126.344 101.047 125.303 101.749 124.024C102.496 122.671 100.423 121.458 99.676 122.812Z" fill="#1F1F20"/>
<path d="M135.289 75.1577C135.289 79.6737 132.615 83.347 129.307 83.347C128.396 83.347 127.532 83.0683 126.756 82.5603C121.808 97.347 110.464 109.371 100.069 109.371C90.8453 109.371 78.6867 97.3843 73.1173 82.695C72.3973 83.1163 71.6013 83.347 70.7667 83.347C67.4587 83.347 64.784 79.6737 64.784 75.1577C64.784 70.9483 67.104 67.487 70.0853 67.0163C70.1333 41.5777 83.1453 31.739 99.2653 31.739C115.259 31.739 129.057 46.5537 129.296 66.9683H129.307C132.615 66.9683 135.289 70.631 135.289 75.1577Z" stroke="#1F1F20" stroke-width="2.40211" stroke-miterlimit="10" stroke-linecap="round" stroke-linejoin="round"/>
<path d="M122.832 57.9617C122.832 61.383 123.029 64.8644 122.832 68.2777C122.663 71.211 122.041 74.131 122.017 77.1284C125.279 73.9817 127.76 70.7283 129.439 66.5697V55.5924" fill="#F8A20D"/>
<path d="M121.587 57.9617C121.632 64.4271 121.016 70.6951 120.773 77.1284C120.732 78.2244 122.155 78.747 122.899 78.0084C126.137 74.791 130.289 70.4004 130.683 65.6644C130.956 62.355 130.683 58.9164 130.683 55.5924C130.683 53.9897 128.193 53.9884 128.193 55.5924C128.193 58.4604 128.193 61.3297 128.193 64.1977C128.193 69.0297 124.429 72.979 121.137 76.2484C121.845 76.5417 122.555 76.8351 123.263 77.1284C123.507 70.6937 124.123 64.4271 124.076 57.9617C124.067 56.3604 121.576 56.3564 121.587 57.9617Z" fill="#1F1F20"/>
<path d="M77.472 57.9617C77.472 61.383 77.276 64.8644 77.472 68.2777C77.6413 71.211 78.264 74.131 78.2867 77.1284C75.0267 73.9817 72.5453 70.7283 70.8667 66.5697V59.919" fill="#F8A20D"/>
<path d="M76.228 57.9617C76.1813 64.427 76.7973 70.695 77.0413 77.1284C77.7493 76.835 78.4573 76.5417 79.1666 76.2484C76.46 73.5684 72.8213 69.8657 72.112 65.9924C71.7653 64.1044 72.112 61.843 72.112 59.919C72.112 58.3177 69.6227 58.315 69.6227 59.919C69.6227 62.039 69.2427 64.491 69.6227 66.5697C70.3987 70.8283 74.46 75.091 77.4053 78.0084C78.1493 78.7444 79.572 78.2257 79.5306 77.1284C79.288 70.6937 78.672 64.427 78.7173 57.9617C78.7293 56.359 76.2386 56.3577 76.228 57.9617Z" fill="#1F1F20"/>
<path d="M99.06 71.0643C99.06 72.207 98.9813 73.299 98.9413 74.427C98.8787 76.1777 99.1973 76.8604 97.784 78.0124C96.8973 78.735 95.1466 79.7204 95.3933 80.7684C95.696 82.0577 97.6133 83.3884 98.7053 83.9364" stroke="#1F1F20" stroke-width="2.40211" stroke-miterlimit="10" stroke-linecap="round" stroke-linejoin="round"/>
<path d="M87.108 65.159C87.052 67.603 87.3453 70.1083 87.3453 72.599" stroke="#1F1F20" stroke-width="3.60316" stroke-miterlimit="10" stroke-linecap="round" stroke-linejoin="round"/>
<path d="M111.077 65.159C111.021 67.603 111.313 70.1083 111.313 72.599" stroke="#1F1F20" stroke-width="3.60316" stroke-miterlimit="10" stroke-linecap="round" stroke-linejoin="round"/>
<path d="M98.0147 92.011C101.312 91.823 105.364 90.9097 107.287 87.6777" stroke="#1F1F20" stroke-width="2.40211" stroke-miterlimit="10" stroke-linecap="round" stroke-linejoin="round"/>
<path d="M117.505 78.1564C115.712 77.715 109.644 77.235 109.245 79.6924C108.741 82.8004 117.793 82.411 119.583 81.131C122.413 79.103 117.505 78.1564 117.505 78.1564Z" fill="#F35B5A"/>
<path d="M86.4213 78.1564C84.628 77.715 78.5613 77.235 78.1626 79.6924C77.6586 82.8004 86.7106 82.411 88.5 81.131C91.3306 79.103 86.4213 78.1564 86.4213 78.1564Z" fill="#F35B5A"/>
<path d="M130.125 54.843C130.125 58.1057 120.768 62.7151 117.631 63.5284C117.767 62.3231 118.579 60.9657 118.751 59.5577C118.907 58.2724 118.884 56.9804 118.912 55.6657C116.677 62.307 105.065 59.9577 100.363 61.4324C100.713 60.3577 102.147 59.1697 102.757 57.9537C103.372 56.7297 103.708 55.3724 104.276 54.1191C102.143 56.5537 96.9347 57.9191 93.6573 58.4884C89.7173 59.1724 85.352 60.1537 81.3493 59.8831C82.2027 58.1551 84.06 56.4617 85.068 54.599C83.0733 56.511 79.2893 57.2604 76.728 57.9537C73.716 58.7684 70.54 58.5924 67.5907 59.299C67.1587 53.3377 70.1627 46.7137 72.3387 41.4271C75.032 34.8804 80.0773 31.5924 86.1813 28.407C91.4493 25.659 105.704 24.5457 115.519 30.2404C124.992 35.7377 130.125 47.8724 130.125 54.843Z" fill="#F8A20D"/>
<path d="M129.012 54.5363C128.125 58.5417 120.769 61.3497 117.324 62.4137C117.797 62.8884 118.272 63.3617 118.745 63.8363C119.577 60.9257 120.017 58.6843 120.068 55.6657C120.087 54.5777 118.405 54.0124 117.915 55.0817C115.02 61.383 105.607 58.959 100.056 60.319C100.491 60.8844 100.925 61.451 101.361 62.0164C102.932 59.2937 104.224 57.4604 105.391 54.427C105.835 53.2697 104.239 52.599 103.457 53.3017C98.3533 57.8963 87.8227 58.8497 81.3493 58.727C81.6827 59.307 82.0147 59.887 82.348 60.4657C83.312 58.9803 84.984 56.7897 86.068 55.183C86.692 54.255 85.42 52.9177 84.4853 53.6017C79.5347 57.227 73.1027 57.1657 67.2853 58.1844C67.772 58.5564 68.26 58.9283 68.7467 59.299C68.5587 42.7643 80.4746 27.767 97.352 27.3217C113.429 26.8977 128.307 37.963 128.969 54.843C129.028 56.3257 131.34 56.3324 131.281 54.843C130.568 36.6497 114.735 24.583 97.352 25.011C79.1333 25.459 66.232 41.383 66.436 59.299C66.4453 60.1057 67.164 60.543 67.8987 60.4137C73.9333 59.3564 80.508 59.3643 85.652 55.5977C85.1253 55.071 84.5987 54.543 84.0707 54.0164C82.596 56.2044 81.664 57.279 80.352 59.299C79.8613 60.0563 80.512 61.023 81.3493 61.039C88.828 61.179 99.2946 60.155 105.092 54.9363C104.449 54.5617 103.804 54.187 103.161 53.8124C102.189 56.3377 100.708 58.523 99.3653 60.8497C98.8507 61.7404 99.6973 62.7857 100.671 62.547C106.976 61.0017 116.564 63.5364 119.911 56.2484C119.192 56.0537 118.475 55.8603 117.757 55.6657C117.713 58.2737 117.235 60.715 116.516 63.2217C116.279 64.051 117.095 64.9044 117.939 64.643C122.367 63.275 130.108 60.267 131.239 55.1497C131.561 53.7004 129.333 53.0817 129.012 54.5363Z" fill="#1F1F20"/>
<path d="M127.8 78.875C126.424 81.8897 126.333 87.9217 130.039 89.3937C131.608 90.0177 133.379 89.3723 134.292 87.9643C135.543 86.0403 134.872 83.7457 133.879 81.8777C133.152 80.5124 131.077 81.7244 131.804 83.0897C132.333 84.083 132.967 85.4697 132.312 86.5417C131.467 87.9257 130.184 86.8404 129.725 85.7404C129.139 84.3444 129.252 81.451 129.875 80.087C130.512 78.691 128.443 77.4684 127.8 78.875Z" fill="#1F1F20"/>
<path d="M70.5293 79.5617C70.3067 80.779 70.7987 81.7883 71.2133 82.915C71.788 84.4737 71.832 86.139 71.8974 87.787C71.9094 88.1417 72.1067 89.0177 71.9214 89.3217C71.2187 90.4763 70.5934 88.4136 70.44 87.999C70.1414 87.1976 69.308 85.0336 69.9347 84.3336C70.9614 83.183 69.2694 81.479 68.2347 82.635C66.1347 84.9857 68.1347 92.4897 71.8467 92.1697C74.024 91.983 74.356 90.0123 74.3174 88.2123C74.2854 86.743 74.2214 85.215 73.964 83.7656C73.7827 82.7376 72.6613 81.2056 72.8453 80.2003C73.1227 78.6883 70.808 78.0417 70.5293 79.5617Z" fill="#1F1F20"/>
<path d="M93.5266 68.8204C89.2493 68.8204 84.972 68.8204 80.6946 68.8204C80.0466 68.8204 79.4946 69.3711 79.4946 70.0217C79.4946 72.0711 79.4946 74.1204 79.4946 76.1697C79.4946 76.819 80.0453 77.3697 80.6946 77.3697C84.972 77.3697 89.2493 77.3697 93.5266 77.3697C94.1773 77.3697 94.7293 76.8204 94.7293 76.1697C94.7293 74.1204 94.7293 72.0711 94.7293 70.0217C94.7293 68.4751 92.3266 68.4737 92.3266 70.0217C92.3266 72.0711 92.3266 74.1204 92.3266 76.1697C92.7266 75.7684 93.1266 75.3684 93.5266 74.9684C89.2493 74.9684 84.972 74.9684 80.6946 74.9684C81.096 75.3684 81.496 75.7684 81.8973 76.1697C81.8973 74.1204 81.8973 72.0711 81.8973 70.0217C81.496 70.4217 81.096 70.8217 80.6946 71.2217C84.972 71.2217 89.2493 71.2217 93.5266 71.2217C95.072 71.2217 95.0746 68.8204 93.5266 68.8204Z" fill="#1F1F20"/>
<path d="M118.229 68.8204C113.952 68.8204 109.675 68.8204 105.397 68.8204C104.747 68.8204 104.196 69.3711 104.196 70.0217C104.196 72.0711 104.196 74.1204 104.196 76.1697C104.196 76.819 104.745 77.3697 105.397 77.3697C109.675 77.3697 113.952 77.3697 118.229 77.3697C118.877 77.3697 119.429 76.8204 119.429 76.1697C119.429 74.1204 119.429 72.0711 119.429 70.0217C119.429 68.4751 117.027 68.4737 117.027 70.0217C117.027 72.0711 117.027 74.1204 117.027 76.1697C117.428 75.7684 117.828 75.3684 118.229 74.9684C113.952 74.9684 109.675 74.9684 105.397 74.9684C105.796 75.3684 106.197 75.7684 106.597 76.1697C106.597 74.1204 106.597 72.0711 106.597 70.0217C106.197 70.4217 105.796 70.8217 105.397 71.2217C109.675 71.2217 113.952 71.2217 118.229 71.2217C119.775 71.2217 119.777 68.8204 118.229 68.8204Z" fill="#1F1F20"/>
<path d="M94.4467 74.9137C95.9107 73.983 97.6187 73.4963 99.3613 73.5403C101.303 73.591 102.763 74.6403 104.279 75.747C105.528 76.6603 106.728 74.5763 105.491 73.6737C101.721 70.9203 97.3587 70.2163 93.2333 72.839C91.932 73.667 93.136 75.7457 94.4467 74.9137Z" fill="#1F1F20"/>
<path d="M135.437 160.159C144.673 160.128 153.764 159.574 162.32 155.812C163.691 155.21 162.505 153.199 161.141 153.799C152.999 157.38 144.208 157.796 135.437 157.827C133.937 157.832 133.935 160.164 135.437 160.159Z" fill="#1F1F20"/>
<path d="M138.285 167.026C147.672 167.018 155.665 165.622 164.721 163.299C166.175 162.927 165.559 160.678 164.1 161.051C155.375 163.288 147.323 164.684 138.285 164.692C136.784 164.694 136.781 167.027 138.285 167.026Z" fill="#1F1F20"/>
<path d="M66.612 157.804C57.516 157.775 48.396 157.374 39.9067 153.78C38.5134 153.19 37.3014 155.238 38.7067 155.832C47.616 159.604 57.0467 160.15 66.612 160.182C68.1413 160.186 68.144 157.81 66.612 157.804Z" fill="#1F1F20"/>
<path d="M63.6547 164.671C54.2947 164.663 45.892 163.263 36.84 161.028C35.3547 160.662 34.7213 162.955 36.208 163.322C45.596 165.639 53.948 167.04 63.6547 167.048C65.184 167.05 65.1867 164.672 63.6547 164.671Z" fill="#1F1F20"/>
</svg>
