<svg width="163" height="163" viewBox="0 0 163 163" fill="none" xmlns="http://www.w3.org/2000/svg">
<path d="M162.109 81.0741C162.109 93.3759 159.364 105.017 154.466 115.46C152.883 118.848 151.06 122.097 149.008 125.208C148.663 125.764 148.298 126.302 147.933 126.841C145.518 130.385 142.823 133.704 139.871 136.814C136.811 140.046 133.494 143.017 129.93 145.711C129.461 146.058 128.992 146.406 128.523 146.753C123.051 150.715 117.057 153.999 110.663 156.501C110.611 156.518 110.576 156.535 110.524 156.553C110.194 156.692 109.863 156.813 109.549 156.935C106.197 158.203 102.722 159.246 99.1776 160.063C98.5851 160.184 98.0134 160.306 97.4227 160.427C92.1579 161.522 86.7021 162.078 81.1055 162.078C80.0108 162.078 78.9335 162.061 77.858 162.009C77.6651 162.009 77.4931 161.991 77.3194 161.991C75.3038 161.904 73.2865 161.731 71.3231 161.487C70.6802 161.418 70.0391 161.331 69.4118 161.244C61.3514 160.08 53.7236 157.734 46.6171 154.381C45.9551 154.085 45.3139 153.755 44.6711 153.425C43.0187 152.609 41.4218 151.722 39.839 150.784C38.7096 150.124 37.6166 149.429 36.522 148.716C34.6611 147.5 32.8731 146.214 31.1356 144.842C30.7864 144.564 30.4406 144.303 30.1105 144.008C29.4328 143.486 28.7899 142.93 28.1453 142.374C27.6258 141.94 27.1219 141.488 26.6354 141.037C21.8919 136.745 17.6697 131.88 14.0556 126.563C13.9687 126.441 13.8801 126.32 13.795 126.181C13.6039 125.903 13.4301 125.625 13.2564 125.347C4.93357 112.645 0.0840912 97.4417 0.0840912 81.0741C0.0840912 36.3326 36.3639 0.052799 81.1055 0.052799C125.831 0.052799 162.109 36.3326 162.109 81.0741Z" fill="#F7F5FF"/>
<path d="M50.6082 77.3001C50.6082 81.6144 49.0096 85.1104 47.0375 85.1104C45.0654 85.1104 43.4669 81.6144 43.4669 77.3001C43.4669 72.9893 45.0654 69.4916 47.0375 69.4916C49.0096 69.4916 50.6082 72.9893 50.6082 77.3001Z" fill="#F74D76"/>
<path d="M66.1539 38.0822C66.1539 38.0822 78.0613 13.9999 98.1872 25.6067C118.311 37.2117 101.457 60.6998 131.873 66.901C147.709 70.1294 157.607 83.2182 153.531 98.5798C149.57 113.507 131.92 114.232 131.92 114.232C131.92 114.232 112.647 141.895 90.641 133.734C68.6334 125.576 58.3941 112.598 60.2203 91.8103C62.0464 71.019 66.1539 38.0822 66.1539 38.0822Z" fill="black"/>
<path d="M44.6936 59.3149C44.6936 59.3149 31.8914 41.1594 57.0944 26.3642C82.2957 11.5674 101.084 31.1164 101.442 41.7588C101.801 52.4012 95.8119 57.4157 95.8119 57.4157C95.8119 57.4157 98.4982 80.4433 76.3185 79.1662C54.1423 77.8892 44.6936 59.3149 44.6936 59.3149Z" fill="black"/>
<path d="M78.3879 75.434L79.1142 94.0587C79.1142 94.0587 75.964 99.5441 65.1027 100.854C57.0127 101.831 54.0902 100.107 54.0902 100.107L54.8529 90.6306L55.6105 81.3868L75.1161 76.2924L78.3879 75.434Z" fill="#FCA397"/>
<path d="M78.3219 74.5479C78.2941 75.0587 78.1238 75.6668 77.8493 76.3671C74.0441 85.8332 59.5252 90.0276 54.853 90.6305L55.6105 81.3868L78.3219 74.5479Z" fill="black"/>
<path d="M49.8037 39.0952C49.8037 39.0952 40.9388 62.8282 45.2965 75.653C49.656 88.4777 61.4087 85.7811 68.371 82.8759C75.3333 79.9725 78.3914 75.4375 78.3914 75.4375C78.3914 75.4375 85.1452 77.3262 89.2458 70.9182C93.3446 64.5084 90.2275 57.5757 86.3528 56.1596C82.4781 54.7435 78.1238 57.7216 78.1238 57.7216L81.2861 50.794C81.2861 50.794 64.5727 17.3673 49.8037 39.0952Z" fill="#FCA397"/>
<path d="M52.0382 67.391C51.6264 67.391 51.2598 67.0956 51.185 66.6751C49.7707 58.7798 52.8114 54.5384 52.9417 54.3612C53.2266 53.9737 53.7687 53.8956 54.1562 54.1771C54.5419 54.4603 54.6254 55.0024 54.3421 55.3899C54.2865 55.4663 51.6281 59.2958 52.8965 66.3676C52.9799 66.8402 52.6671 67.292 52.1928 67.3771C52.1424 67.3858 52.0903 67.391 52.0382 67.391Z" fill="black"/>
<path d="M78.7545 67.2693C78.4505 67.2693 78.1533 67.106 77.9935 66.8194C77.7624 66.3989 77.9153 65.8707 78.3358 65.6396L87.3449 60.6841C87.7654 60.4547 88.2919 60.6059 88.5247 61.0281C88.7558 61.4469 88.6029 61.9768 88.1824 62.2062L79.175 67.1616C79.0395 67.2346 78.897 67.2693 78.7545 67.2693Z" fill="black"/>
<path d="M87.2337 68.7914C87.0356 68.7914 86.8358 68.722 86.6725 68.5847L82.247 64.8333C81.8804 64.5223 81.8369 63.975 82.1462 63.6101C82.459 63.2435 83.0063 63.2001 83.3712 63.5076L87.7949 67.2589C88.1616 67.5699 88.2067 68.1173 87.8974 68.4839C87.7237 68.6854 87.4805 68.7914 87.2337 68.7914Z" fill="black"/>
<path d="M44.6936 59.3149C44.6936 59.3149 46.0419 52.125 52.7992 43.8647C59.5582 35.6062 59.5582 35.6062 59.5582 35.6062C59.5582 35.6062 59.8484 50.2415 66.8489 56.031C73.8495 61.8204 78.1238 57.7216 78.1238 57.7216L89.7792 45.8247L66.0045 27.0575C66.0045 27.0575 41.0986 28.0062 44.6936 59.3149Z" fill="black"/>
<path d="M110.524 156.56C110.194 156.699 109.863 156.822 109.551 156.944C100.689 160.28 91.1154 162.087 81.1072 162.087C79.8388 162.087 78.5704 162.05 77.3194 161.998C62.2897 161.305 48.3199 156.527 36.522 148.723C34.6628 147.507 32.8731 146.221 31.1356 144.849C29.5892 143.634 28.0776 142.364 26.6354 141.043C26.4095 139.064 26.2358 136.91 26.1141 134.615C25.6276 125.996 28.4424 117.571 31.57 111.088C34.211 105.547 38.6418 101.184 44.0803 98.5971C45.9394 97.6919 47.9202 97.016 49.9879 96.5642L55.4264 95.3809C55.4264 95.3809 95.3029 91.9059 102.548 95.2089C102.548 95.2089 102.583 95.2246 102.653 95.2419C103.296 95.5564 103.643 95.9213 103.678 96.3557C104.008 100.646 107.535 130.983 110.524 156.56Z" fill="#ADA4F7"/>
<path d="M149.01 125.214C148.663 125.77 148.298 126.309 147.933 126.849C145.518 130.394 142.825 133.713 139.871 136.823C131.774 145.372 121.818 152.146 110.663 156.509C110.611 156.527 110.576 156.542 110.524 156.56C110.194 156.699 109.863 156.822 109.551 156.944C100.689 160.28 91.1154 162.087 81.1072 162.087C80.0125 162.087 78.9353 162.068 77.858 162.017L102.548 95.2089C102.548 95.2089 102.583 95.2246 102.653 95.2419C104.234 95.8518 134.258 101.306 149.01 125.214Z" fill="#ADA4F7"/>
<path d="M54.5558 94.3332L47.5397 97.0977C47.5397 97.0977 46.1844 111.036 62.7223 110.626C80.0785 110.193 92.6218 93.8554 92.6218 93.8554L77.3385 92.5922L54.5558 94.3332Z" fill="#FCA397"/>
<path d="M61.9473 111.505C56.9745 111.505 53.1172 110.162 50.457 107.497C46.2243 103.254 46.6535 97.2801 46.6726 97.0264C46.7108 96.5486 47.1383 96.208 47.6074 96.2306C48.0853 96.2688 48.4415 96.6876 48.405 97.1654C48.4015 97.2193 48.0314 102.618 51.6993 106.282C54.3943 108.972 58.5974 110.108 64.1957 109.679C81.5016 108.32 91.8017 93.5148 91.9042 93.3654C92.1753 92.971 92.7174 92.8719 93.1118 93.1378C93.5079 93.4088 93.6087 93.9492 93.3394 94.3471C92.9033 94.9848 82.4607 109.988 64.333 111.41C63.5111 111.474 62.7153 111.505 61.9473 111.505Z" fill="white"/>
<path d="M57.9249 74.011C57.5687 74.011 57.2351 73.7903 57.1065 73.4359C56.9467 72.9841 57.1778 72.4872 57.6295 72.3256C57.6782 72.3065 59.9561 71.4342 61.3931 68.9287C61.6311 68.5099 62.1628 68.3674 62.5798 68.6072C62.9951 68.8453 63.1393 69.3752 62.8995 69.7922C61.1237 72.8903 58.335 73.9172 58.2186 73.9606C58.1213 73.9953 58.0222 74.011 57.9249 74.011Z" fill="black"/>
<path d="M101.131 47.5135C100.635 47.5049 100.253 47.1087 100.262 46.6291C100.608 28.4753 85.6699 22.9917 85.0339 22.7676C84.5822 22.6077 84.3442 22.1125 84.5023 21.659C84.6604 21.2072 85.1556 20.9692 85.6091 21.1273C85.7759 21.1864 102.369 27.2261 101.999 46.6622C101.991 47.1365 101.603 47.5135 101.131 47.5135Z" fill="#FFAF45"/>
<path d="M44.0802 98.578C44.0802 98.5972 39.8406 150.793 39.8406 150.793C38.7113 150.131 37.6166 149.438 36.5219 148.723C34.6628 147.507 32.8731 146.221 31.1356 144.849C29.5892 143.634 28.0775 142.364 26.6354 141.043C21.8919 136.753 17.6696 131.887 14.0556 126.57C13.9687 126.448 13.8818 126.328 13.7949 126.189C13.6038 125.911 13.4301 125.632 13.2563 125.353C17.2179 120.506 22.1351 114.98 27.0871 110.637C39.0761 100.142 44.0802 98.578 44.0802 98.578Z" fill="#ADA4F7"/>
<path d="M38.3116 109.683C38.19 109.802 26.9481 121.461 30.1104 144.015C29.4328 143.495 28.7899 142.937 28.147 142.381C25.6797 120.21 36.5567 108.97 37.0779 108.465C37.4081 108.117 37.9641 108.117 38.3116 108.465C38.6417 108.795 38.6417 109.351 38.3116 109.683Z" fill="white"/>
<path d="M47.0358 48.8654C46.6396 48.8654 46.2817 48.5925 46.1896 48.1894C46.0836 47.722 46.3773 47.2564 46.8447 47.1486L51.3258 46.1305C51.7984 46.0227 52.2571 46.3181 52.3648 46.7855C52.4708 47.2547 52.1772 47.7203 51.7098 47.8263L47.2287 48.8445C47.1644 48.8584 47.1001 48.8654 47.0358 48.8654Z" fill="black"/>
<path d="M64.0811 49.4474C63.989 49.4474 63.8986 49.4335 63.8065 49.4039L58.3785 47.5952C57.9232 47.444 57.6765 46.9523 57.8277 46.4953C57.9806 46.0401 58.4723 45.8038 58.9275 45.9463L64.3556 47.755C64.8108 47.9062 65.0576 48.3979 64.9064 48.8532C64.783 49.218 64.4442 49.4474 64.0811 49.4474Z" fill="black"/>
<path d="M48.5857 57.6417C48.5335 57.6417 48.4814 57.6364 48.4276 57.626C47.9567 57.5409 47.6439 57.0874 47.7291 56.6165L48.3459 53.2335L47.1679 51.8574C46.8551 51.4925 46.8968 50.9452 47.2617 50.6324C47.6248 50.3214 48.1722 50.3631 48.4867 50.7263L49.9357 52.4169C50.106 52.615 50.1773 52.8808 50.1321 53.138L49.4388 56.9275C49.3624 57.348 48.9957 57.6417 48.5857 57.6417Z" fill="black"/>
<path d="M61.0212 58.0449C60.9691 58.0449 60.917 58.0396 60.8631 58.0309C60.3922 57.9441 60.0777 57.4923 60.1646 57.0197L60.7745 53.6941L59.414 52.4083C59.0665 52.0781 59.0526 51.5274 59.381 51.1798C59.7094 50.8323 60.2602 50.8149 60.6094 51.1451L62.3104 52.7558C62.5259 52.9573 62.6215 53.2544 62.5694 53.5429L61.8761 57.3325C61.7979 57.7512 61.433 58.0449 61.0212 58.0449Z" fill="black"/>
<path d="M87.2337 77.884C87.2337 82.1966 85.6352 85.6925 83.6648 85.6925C81.691 85.6925 80.0924 82.1966 80.0924 77.884C80.0924 73.5697 81.691 70.0738 83.6648 70.0738C85.6352 70.0738 87.2337 73.5697 87.2337 77.884Z" fill="#F74D76"/>
<path d="M50.9608 106.234C50.8566 106.494 41.7154 131.706 46.617 154.381C45.955 154.085 45.3139 153.755 44.671 153.425C40.2576 130.594 49.2407 105.903 49.3275 105.625C49.4996 105.174 49.9878 104.948 50.4378 105.104C50.8913 105.278 51.1172 105.782 50.9608 106.234Z" fill="white"/>
<path d="M71.3231 161.487C70.6802 161.418 70.0391 161.331 69.4118 161.244C67.3442 154.207 64.0446 138.065 65.7126 110.577C65.7474 110.108 66.1105 109.726 66.6335 109.778C67.12 109.796 67.4849 110.213 67.4501 110.682C65.7647 138.726 69.3771 155.024 71.3231 161.487Z" fill="white"/>
<path d="M99.1775 160.062C98.585 160.184 98.0134 160.306 97.4226 160.427C92.2621 151.149 81.8369 130.281 77.4583 106.459C77.3697 105.99 77.6842 105.539 78.1689 105.452C78.6381 105.365 79.0916 105.678 79.1785 106.147C83.5918 130.159 94.1908 151.132 99.1775 160.062Z" fill="white"/>
<path d="M129.93 145.711C129.461 146.058 128.992 146.406 128.523 146.753C123.26 136.224 111.618 113.49 87.0843 101.084C86.6499 100.859 86.4762 100.338 86.7021 99.9212C86.9106 99.4868 87.4492 99.3131 87.8662 99.539C112.591 112.03 124.476 134.851 129.93 145.711Z" fill="white"/>
</svg>
