<svg width="200" height="200" viewBox="0 0 200 200" fill="none" xmlns="http://www.w3.org/2000/svg">
<rect width="200" height="200" fill="white"/>
<path d="M147.728 140.561C143.427 137.689 138.467 135.276 133.735 132.957C132.101 137.271 122.277 141.245 118.145 142.639C109.677 145.509 101.175 146.387 92.2267 145.797C88.0707 145.52 83.1586 144.212 79.28 142.603C76.3853 141.389 73.9227 139.792 72.192 137.137C71.4493 136.02 69.6226 133.427 69.6466 132.141L68.8307 131.781C63.4133 134.471 57.48 137.209 52.4587 140.561C41.6853 147.767 34.396 171.608 34.396 171.608H64.0253H138.047H165.779C165.779 171.608 158.501 147.767 147.728 140.561Z" fill="#F8A20D"/>
<path d="M134.932 81.0654C134.932 85.5827 132.247 89.2547 128.949 89.2547C127.884 89.2547 126.877 88.8707 126.013 88.2094C121.949 103.284 112.091 115.548 98.916 115.279C84.888 114.991 76.0373 103.187 72.5 88.7374C71.8466 89.072 71.1373 89.2547 70.3986 89.2547C67.0906 89.2547 64.416 85.5827 64.416 81.0654C64.416 76.54 67.0906 72.8774 70.3986 72.8774C70.524 72.8774 70.6386 72.8774 70.7533 72.8867C70.744 72.752 70.7533 72.628 70.7533 72.4934C71.2813 46.9494 83.5453 37.312 99.692 37.648C115.563 37.964 128.037 52.808 128.057 72.9734C128.344 72.9054 128.641 72.8774 128.949 72.8774C132.247 72.8774 134.932 76.54 134.932 81.0654Z" stroke="#1F1F20" stroke-width="2.40211" stroke-miterlimit="10" stroke-linecap="round" stroke-linejoin="round"/>
<path d="M98.696 75.6133C98.696 75.6133 93.9226 83.2653 93.9226 85.9213C93.9226 87.2453 97.2493 87.9373 98.3413 88.4867" stroke="#1F1F20" stroke-width="2.40211" stroke-miterlimit="10" stroke-linecap="round" stroke-linejoin="round"/>
<path d="M86.744 71.068C86.688 73.512 86.9813 76.0174 86.9813 78.5094" stroke="#1F1F20" stroke-width="3.60316" stroke-miterlimit="10" stroke-linecap="round" stroke-linejoin="round"/>
<path d="M110.715 71.068C110.659 73.512 110.951 76.0174 110.951 78.5094" stroke="#1F1F20" stroke-width="3.60316" stroke-miterlimit="10" stroke-linecap="round" stroke-linejoin="round"/>
<path d="M93.9413 96.72C97.2546 97.1427 106.285 97.7973 106.179 94.9107" stroke="#1F1F20" stroke-width="2.40211" stroke-miterlimit="10" stroke-linecap="round" stroke-linejoin="round"/>
<path d="M117.141 84.0654C115.348 83.624 109.281 83.144 108.883 85.6014C108.379 88.7094 117.431 88.32 119.22 87.04C122.051 85.012 117.141 84.0654 117.141 84.0654Z" fill="#F35B5A"/>
<path d="M86.0586 84.0654C84.2653 83.624 78.1973 83.144 77.7986 85.6014C77.2946 88.7094 86.3466 88.32 88.136 87.04C90.9666 85.012 86.0586 84.0654 86.0586 84.0654Z" fill="#F35B5A"/>
<path d="M165.381 171.245C165.381 171.245 158.095 147.411 147.321 140.205C142.3 136.848 136.367 134.12 130.952 131.425C127.624 129.771 115.375 124.899 115.375 124.899C112.155 123.941 109.769 121.191 109.333 117.859C109.075 115.887 108.991 113.924 109.109 112.791" stroke="#1F1F20" stroke-width="2.40211" stroke-miterlimit="10" stroke-linecap="round" stroke-linejoin="round"/>
<path d="M34 171.245C34 171.245 41.2853 147.411 52.06 140.205C57.08 136.848 63.0133 134.12 68.428 131.425C71.0307 130.131 81.5933 126.064 86.0733 124.352C87.3653 123.86 88.3453 122.793 88.724 121.463C89.4187 119.009 90.4347 115.093 90.332 113.475" stroke="#1F1F20" stroke-width="2.40211" stroke-miterlimit="10" stroke-linecap="round" stroke-linejoin="round"/>
<path d="M121.264 48.5081C121.197 48.5081 121.129 48.5081 121.064 48.5081C119.517 48.5081 119.515 50.9107 121.064 50.9107C121.129 50.9107 121.197 50.9107 121.264 50.9107C122.809 50.9107 122.812 48.5081 121.264 48.5081Z" fill="#1F1F20"/>
<path d="M68.0893 132.1C71.3666 145.757 90.1666 147.379 101.431 146.676C110.981 146.081 129.261 142.985 134.375 133.208C135.091 131.84 133.017 130.623 132.3 131.996C128.011 140.196 111.896 143.265 103.791 144.084C93.1586 145.157 73.564 144.62 70.4053 131.461C70.0453 129.959 67.7293 130.596 68.0893 132.1Z" fill="#1F1F20"/>
<path d="M138.8 170.927C138.099 166.837 137.739 162.699 136.7 158.672C136.313 157.176 133.996 157.809 134.384 159.311C135.423 163.337 135.783 167.475 136.484 171.565C136.745 173.085 139.061 172.441 138.8 170.927Z" fill="#1F1F20"/>
<path d="M64.7826 171.565C65.484 167.475 65.8426 163.337 66.8826 159.311C67.2693 157.812 64.952 157.175 64.5653 158.672C63.5266 162.699 63.168 166.837 62.4653 170.927C62.2053 172.439 64.52 173.088 64.7826 171.565Z" fill="#1F1F20"/>
<path d="M81.8253 152.288C94.92 154.129 110.324 155.205 122.317 148.492C123.667 147.736 122.456 145.661 121.105 146.417C109.72 152.791 94.8946 151.721 82.464 149.972C80.952 149.76 80.2986 152.073 81.8253 152.288Z" fill="#1F1F20"/>
<path d="M126.268 85.8493C124.425 89.2493 119.977 94.4813 117.225 97.204C117.337 96.676 116.636 94.576 116.465 94.0414C115.851 94.5467 115.489 95.3933 114.928 96.0013C114.36 96.616 113.745 97.18 113.104 97.712C112.347 98.34 111.575 98.92 110.813 99.5333C110.047 100.149 109.317 101.379 108.361 101.619C108.713 101.239 109.245 100.339 109.192 99.8187C106.616 101.707 103.177 103.448 99.968 103.857C96.2666 104.333 93.1013 102.828 90.5613 99.9427C91.0013 100.519 91.3093 101.241 91.7479 101.829C92.3159 102.592 93.3346 103.531 93.6386 104.405C91.632 103.651 89.7506 101.811 87.9493 100.62C85.3959 98.9333 82.616 97.052 80.4666 94.8907C80.3093 96.22 81.0973 97.2907 81.3826 98.4813C78.7999 97.0107 73.0786 90.148 73.0786 90.148C73.0786 90.148 73.0786 96.7013 75.3773 101.827C77.3653 106.26 81.8466 111.583 82.8706 112.399C83.8426 113.176 84.7973 114.399 85.9373 114.84C85.728 114.256 85.452 113.261 85.4453 112.623C86.2973 113.843 87.6839 114.892 88.8813 115.744C90.3213 116.773 91.48 117.865 93.176 118.503C93.0746 117.9 92.736 117.364 92.72 116.729C93.8146 117.247 94.7573 118.051 95.8466 118.583C96.8773 119.085 98.3066 120.411 99.4133 120.371C100.428 120.333 102.069 119.311 103.013 118.908C104.388 118.323 105.859 117.127 106.953 116.116C106.693 116.605 105.857 117.487 106.013 117.995C107.931 117.441 110.059 115.553 111.461 114.085C112.324 113.184 113.275 112.417 114.159 111.551C114.884 110.84 115.403 109.888 116.224 109.279C116.124 109.464 116.067 109.7 115.983 109.872C118.073 108.323 121.396 104.684 122.492 102.328C123.751 99.6213 126.277 96.0987 126.268 85.8493Z" fill="#F35B5A"/>
<path d="M126.268 85.8493C124.425 89.2493 119.977 94.4813 117.225 97.204C117.337 96.676 116.636 94.576 116.465 94.0414C115.851 94.5467 115.489 95.3933 114.928 96.0013C114.36 96.616 113.745 97.18 113.104 97.712C112.347 98.34 111.575 98.92 110.813 99.5333C110.047 100.149 109.317 101.379 108.361 101.619C108.713 101.239 109.245 100.339 109.192 99.8187C106.616 101.707 103.177 103.448 99.968 103.857C96.2666 104.333 93.1013 102.828 90.5613 99.9427C91.0013 100.519 91.3093 101.241 91.7479 101.829C92.3159 102.592 93.3346 103.531 93.6386 104.405C91.632 103.651 89.7506 101.811 87.9493 100.62C85.3959 98.9333 82.616 97.052 80.4666 94.8907C80.3093 96.22 81.0973 97.2907 81.3826 98.4813C78.7999 97.0107 73.0786 90.148 73.0786 90.148C73.0786 90.148 73.0786 96.7013 75.3773 101.827C77.3653 106.26 81.8466 111.583 82.8706 112.399C83.8426 113.176 84.7973 114.399 85.9373 114.84C85.728 114.256 85.452 113.261 85.4453 112.623C86.2973 113.843 87.6839 114.892 88.8813 115.744C90.3213 116.773 91.48 117.865 93.176 118.503C93.0746 117.9 92.736 117.364 92.72 116.729C93.8146 117.247 94.7573 118.051 95.8466 118.583C96.8773 119.085 98.3066 120.411 99.4133 120.371C100.428 120.333 102.069 119.311 103.013 118.908C104.388 118.323 105.859 117.127 106.953 116.116C106.693 116.605 105.857 117.487 106.013 117.995C107.931 117.441 110.059 115.553 111.461 114.085C112.324 113.184 113.275 112.417 114.159 111.551C114.884 110.84 115.403 109.888 116.224 109.279C116.124 109.464 116.067 109.7 115.983 109.872C118.073 108.323 121.396 104.684 122.492 102.328C123.751 99.6213 126.277 96.0987 126.268 85.8493Z" stroke="#1F1F20" stroke-width="2.40211" stroke-miterlimit="10" stroke-linecap="round" stroke-linejoin="round"/>
<path d="M71.22 71.928C71.16 74.456 72.0186 76.2907 73.5706 78.2787C74.9266 75.6787 73.9946 72.1333 74.868 69.3333C75.408 70.132 76.2146 71.1507 77.0346 71.6827C78.792 66.948 79.724 61.9227 82.0293 57.416C83.3426 54.8493 84.1666 50.3467 86.228 48.5094C89.5573 52.532 93.3867 57.996 98.2427 60.4573C101.333 56.676 103.344 52.068 106.387 48.2693C105.008 49.968 112.321 59.2293 113.34 61.3093C115.169 65.0453 117.988 68.252 119.047 72.2787C120.452 71.0307 120.443 68.8627 121.512 67.3853C122.573 69.0653 122.643 71.6813 123.184 73.6467C123.648 75.3253 124.277 77.0667 124.657 78.684C130.168 70.4267 129.212 59.5347 128.277 50.1173C128.053 47.8493 128.195 44.0013 126.868 42.104C126.433 42.9533 126.065 43.8853 125.257 44.4587C123.619 40.9933 121.611 37.9853 119.072 35.056C116.317 31.8773 111.981 27.1987 107.865 26C108.691 28.1013 110.583 30.384 110.437 32.8347C109.147 32.692 107.659 31.7013 106.461 31.1027C104.049 29.9 101.591 28.9427 99.0453 28.0053C95.4387 26.6787 91.5386 26.532 87.7146 26.48C90.892 27.092 94.624 32.6747 94.624 32.6747C94.624 32.6747 75.824 27.2893 62.5573 40.672C64.9306 40.7987 67.148 40.5214 69.3973 41.3427C69.1213 42.3747 67.8 43.364 67.124 44.304C64.9893 47.2787 63.6826 50.564 62.4466 53.9827C60.3373 59.816 59.6706 65.86 58.264 71.792C61.24 69.28 63.0853 65.3373 65.584 62.3667C65.7946 66.824 67.9533 75.0533 72.2213 77.3333" fill="#F35B5A"/>
<path d="M71.22 71.928C71.16 74.456 72.0186 76.2907 73.5706 78.2787C74.9266 75.6787 73.9946 72.1333 74.868 69.3333C75.408 70.132 76.2146 71.1507 77.0346 71.6827C78.792 66.948 79.724 61.9227 82.0293 57.416C83.3426 54.8493 84.1666 50.3467 86.228 48.5094C89.5573 52.532 93.3867 57.996 98.2427 60.4573C101.333 56.676 103.344 52.068 106.387 48.2693C105.008 49.968 112.321 59.2293 113.34 61.3093C115.169 65.0453 117.988 68.252 119.047 72.2787C120.452 71.0307 120.443 68.8627 121.512 67.3853C122.573 69.0653 122.643 71.6813 123.184 73.6467C123.648 75.3253 124.277 77.0667 124.657 78.684C130.168 70.4267 129.212 59.5347 128.277 50.1173C128.053 47.8493 128.195 44.0013 126.868 42.104C126.433 42.9533 126.065 43.8853 125.257 44.4587C123.619 40.9933 121.611 37.9853 119.072 35.056C116.317 31.8773 111.981 27.1987 107.865 26C108.691 28.1013 110.583 30.384 110.437 32.8347C109.147 32.692 107.659 31.7013 106.461 31.1027C104.049 29.9 101.591 28.9427 99.0453 28.0053C95.4387 26.6787 91.5386 26.532 87.7146 26.48C90.892 27.092 94.624 32.6747 94.624 32.6747C94.624 32.6747 75.824 27.2893 62.5573 40.672C64.9306 40.7987 67.148 40.5214 69.3973 41.3427C69.1213 42.3747 67.8 43.364 67.124 44.304C64.9893 47.2787 63.6826 50.564 62.4466 53.9827C60.3373 59.816 59.6706 65.86 58.264 71.792C61.24 69.28 63.0853 65.3373 65.584 62.3667C65.7946 66.824 67.9533 75.0533 72.2213 77.3333" stroke="#1F1F20" stroke-width="2.40211" stroke-miterlimit="10" stroke-linecap="round" stroke-linejoin="round"/>
</svg>
