<svg width="163" height="163" viewBox="0 0 163 163" fill="none" xmlns="http://www.w3.org/2000/svg">
<path d="M162.532 81.1044C162.532 125.844 126.263 162.112 81.525 162.112C36.7852 162.112 0.515808 125.844 0.515808 81.1044C0.515808 36.3663 36.7852 0.0969518 81.525 0.0969518C126.263 0.0969518 162.532 36.3663 162.532 81.1044Z" fill="#F7F5FF"/>
<path d="M42.2532 151.965C32.6272 146.665 24.2001 139.42 17.4759 130.786C25.2305 119.537 45.3459 103.248 56.2924 99.6127C70.1979 94.996 49.7072 126.979 42.2532 151.965Z" fill="#8758E7"/>
<path d="M100.186 48.1433C104.294 47.6238 108.528 48.4891 111.901 50.8886C114.856 52.9928 117.687 56.4939 118.703 62.3164C121.141 76.2932 116.133 80.1592 124.122 85.4187C132.115 90.68 136.627 87.4568 141.675 100.469C146.723 113.482 138.964 130.918 122.812 127.394C106.658 123.867 67.4909 113.188 67.4909 113.188L65.6717 55.3037L85.2746 50.0268L100.186 48.1433Z" fill="#FFAF45"/>
<path d="M125.724 148.976C117.454 154.382 108.141 158.308 98.1497 160.393C92.7634 161.521 87.2033 162.112 81.4868 162.112C79.0368 162.112 76.6043 162.008 74.2065 161.783C70.3144 161.434 66.5092 160.809 62.7908 159.923C55.5106 158.202 48.63 155.509 42.2532 151.965C35.3378 148.161 29.0479 143.346 23.5573 137.736C25.9377 131.114 28.4397 125.278 30.9765 121.021C43.0524 100.759 60.6884 98.8499 60.6884 98.8499C79.5737 93.3054 93.0031 92.0648 110.135 100.403C117.833 104.141 124.246 126.058 125.724 148.976Z" fill="#8758E7"/>
<path d="M117.245 145.259L116.741 154.05C110.903 156.882 104.665 159.038 98.1497 160.393C92.7633 161.521 87.2032 162.112 81.4867 162.112C79.0368 162.112 76.6042 162.008 74.2064 161.783C70.3144 161.434 66.5091 160.809 62.7908 159.923C55.5105 158.202 48.6299 155.509 42.2531 151.965C41.9056 151.775 41.5581 151.582 41.2279 151.374C37.4227 149.238 33.826 146.769 30.4552 144.007C41.2974 121.438 56.2924 99.6127 56.2924 99.6127L79.1393 94.8518L108.227 99.8212L117.245 145.259Z" fill="#50447E"/>
<path d="M56.2924 99.6126C56.2924 99.6126 47.2051 129.168 41.2279 151.374C37.2142 149.117 33.4438 146.493 29.8992 143.572L49.2033 105.138L56.2924 99.6126Z" fill="#8758E7"/>
<path d="M49.205 59.863C49.205 59.863 41.4209 47.2468 42.029 41.8152C43.5251 28.4258 62.3147 19.1456 81.0784 25.4528C99.8403 31.7601 103.673 55.0657 100.744 65.2129C93.1978 91.3437 70.3926 82.2703 70.3926 82.2703C70.3926 82.2703 34.9364 75.6764 49.205 59.863Z" fill="#FFAF45"/>
<path d="M55.4724 87.7505L55.5106 88.2353L56.5653 97.3678L57.3611 104.53C57.3611 104.53 56.8659 106.245 65.1887 105.114C76.342 103.555 79.6155 98.4868 79.6155 98.4868L78.9065 81.6136L75.5548 82.5014L55.4724 87.7505Z" fill="#FC8165"/>
<path d="M55.5105 88.2353L56.5652 97.3678C61.9637 96.3235 71.7079 93.2672 75.1082 84.4197C75.3689 83.7021 75.527 83.0609 75.5565 82.5362L55.5349 88.0946L55.5105 88.2353Z" fill="black"/>
<path d="M48.8714 44.6422C48.8714 44.6422 40.1282 69.2283 44.8265 82.3641C49.5265 95.4999 61.5867 92.5304 68.7089 89.4254C75.831 86.3205 78.9065 81.603 78.9065 81.603C78.9065 81.603 85.8931 83.4362 90.0093 76.7675C94.1256 70.1006 90.8034 63.0131 86.7897 61.6179C82.776 60.2226 78.3418 63.3624 78.3418 63.3624L81.4833 56.1742C81.4833 56.1742 63.7239 22.0229 48.8714 44.6422Z" fill="#FC8165"/>
<path d="M52.0476 74.9813C51.7001 74.9813 51.3752 74.7728 51.2397 74.4323C49.2485 69.4073 52.4681 63.9011 52.6054 63.6682C52.8521 63.2582 53.3838 63.1244 53.7956 63.3659C54.2074 63.6109 54.343 64.1443 54.098 64.5561C54.0702 64.6065 51.1824 69.5689 52.8556 73.7911C53.0311 74.2377 52.8122 74.7433 52.3674 74.9188C52.2631 74.9605 52.1536 74.9813 52.0476 74.9813Z" fill="black"/>
<path d="M80.1575 74.5747C79.9664 74.5747 79.7735 74.5122 79.6119 74.3818C79.2384 74.0795 79.1811 73.5322 79.4834 73.1603L85.431 65.7967C85.7298 65.4248 86.2771 65.3658 86.6524 65.6663C87.026 65.9687 87.0834 66.516 86.7811 66.8878L80.8335 74.2515C80.6615 74.4635 80.4112 74.5747 80.1575 74.5747Z" fill="black"/>
<path d="M86.8731 72.2065C86.807 72.203 82.2755 71.8711 82.2755 71.8711C81.7977 71.8364 81.4398 71.4194 81.4728 70.9399C81.5093 70.4603 81.9297 70.1006 82.4041 70.1371L86.9356 70.4707C87.4134 70.5054 87.7714 70.9225 87.7384 71.402C87.7036 71.859 87.3213 72.2065 86.8731 72.2065Z" fill="black"/>
<path d="M57.8944 79.4815C58.8327 79.9454 60.141 80.3033 61.3069 79.6014C62.4085 78.9411 63.1313 77.9507 63.5866 77.0872L57.8944 79.4815ZM59.8561 81.7438C57.5313 81.7438 55.58 80.0636 55.4722 79.9698C55.2464 79.7717 55.1387 79.4728 55.1873 79.1774C55.236 78.882 55.4323 78.6318 55.7086 78.5154L64.7907 74.6981C65.0896 74.5729 65.4318 74.6233 65.6786 74.8284C65.9288 75.0351 66.0417 75.3618 65.9757 75.678C65.9461 75.824 65.1834 79.3008 62.2018 81.0905C61.413 81.5631 60.6137 81.7438 59.8561 81.7438Z" fill="black"/>
<path d="M65.6438 56.4192C65.3536 56.4192 65.0687 56.2732 64.9037 56.0074C63.7082 54.0631 60.9333 54.8432 60.8152 54.8762C60.3599 55.0065 59.8717 54.7494 59.7362 54.2872C59.6006 53.8285 59.8613 53.3472 60.3201 53.21C60.4886 53.1596 64.4832 52.0093 66.384 55.0952C66.6342 55.5035 66.5074 56.0387 66.1008 56.2906C65.9584 56.3792 65.8002 56.4192 65.6438 56.4192Z" fill="black"/>
<path d="M47.0679 55.0917C46.8507 55.0917 46.6318 55.01 46.4633 54.8467C46.121 54.5114 46.1122 53.964 46.4441 53.62C46.5223 53.5401 48.3745 51.6879 50.4943 51.7626C51.5403 51.8112 52.4873 52.3273 53.2327 53.2551C53.5333 53.6287 53.4742 54.176 53.1006 54.4766C52.7253 54.7772 52.1797 54.7181 51.8791 54.3446C51.443 53.8025 50.967 53.5262 50.4196 53.5001C49.2503 53.4515 48.0722 54.4419 47.6917 54.8293C47.5214 55.0048 47.2938 55.0917 47.0679 55.0917Z" fill="black"/>
<path d="M48.8957 65.2129C48.3571 65.1781 47.9957 64.7646 48.027 64.2851L48.3101 60.1827L46.7203 58.4991C46.3919 58.1498 46.4076 57.599 46.7568 57.2706C47.1026 56.9422 47.6551 56.9579 47.9835 57.3054L49.834 59.267C50.0008 59.4443 50.0876 59.6806 50.0703 59.9238L49.761 64.405C49.7297 64.8637 49.3475 65.2129 48.8957 65.2129Z" fill="black"/>
<path d="M63.8682 65.2302C63.3469 65.2059 62.9785 64.7976 63.0011 64.318L63.2027 60.2609L60.8674 58.2922C60.5008 57.9812 60.4539 57.4339 60.7632 57.0673C61.0742 56.7007 61.6215 56.6572 61.9864 56.963L64.6518 59.2097C64.8585 59.3852 64.9715 59.6475 64.9576 59.9186L64.7352 64.4049C64.7143 64.8688 64.3304 65.2302 63.8682 65.2302Z" fill="black"/>
<path d="M90.3586 40.2184C90.3586 40.2184 87.1094 11.6428 106.735 14.2856C127.524 17.0848 108.782 50.6123 95.4999 49.125C89.5871 48.463 90.3586 40.2184 90.3586 40.2184Z" fill="#FFAF45"/>
<path d="M57.3575 106.398C55.1908 109.855 53.3404 113.987 53.9242 114.92C53.9954 115.033 54.2942 115.037 54.5479 115.012C57.6477 114.639 60.5494 109.317 61.8525 106.287C59.7362 106.464 58.1481 106.431 57.3575 106.398ZM64.2834 106.014C65.762 109.265 69.1328 115.601 71.8833 116.474C72.3577 116.621 72.7625 116.585 73.15 116.342C76.076 114.529 76.9709 106.347 77.1342 101.908C72.5628 104.349 67.9531 105.492 64.2834 106.014ZM72.4064 118.298C72.0623 118.298 71.7114 118.243 71.3569 118.131C67.9913 117.061 64.6639 110.877 63.1366 107.668C61.7587 110.672 58.6885 116.264 54.7547 116.736C53.4011 116.906 52.7618 116.338 52.4507 115.841C50.9634 113.463 54.9215 106.964 56.1708 105.029C56.3445 104.759 56.6539 104.612 56.9718 104.634C57.0796 104.643 67.8297 105.451 77.5912 99.6579C77.857 99.4963 78.1941 99.4928 78.4634 99.6492C78.7345 99.8038 78.903 100.092 78.903 100.403C78.9047 101.878 78.7779 114.898 74.0674 117.819C73.5531 118.137 72.9902 118.298 72.4064 118.298Z" fill="white"/>
<path d="M138.721 138.447C124.056 153.059 103.83 162.112 81.4867 162.112C79.0368 162.112 76.6043 162.008 74.2065 161.783C75.7007 153.443 77.3166 147.727 77.3166 147.727L97.8544 95.7727C97.8544 95.7727 117.143 98.8082 130.833 119.763C133.788 124.298 136.671 130.48 138.721 138.447Z" fill="#8758E7"/>
<path d="M98.1497 160.393C92.7633 161.521 87.2032 162.112 81.4867 162.112C79.0368 162.112 76.6043 162.008 74.2065 161.783C70.3144 161.434 66.5091 160.809 62.7908 159.923C70.0711 129.151 79.6154 94.8761 79.6154 94.8761L97.8544 95.7727L98.1497 160.393Z" fill="#8758E7"/>
<path d="M100.184 49.0121C99.7431 49.0121 99.3661 48.6767 99.3209 48.2302C98.0977 35.8676 89.794 31.4091 89.7106 31.3657C89.2849 31.145 89.1198 30.6203 89.3405 30.1946C89.5611 29.7689 90.0807 29.5986 90.5064 29.821C90.8834 30.0156 99.7292 34.7139 101.051 48.0582C101.097 48.536 100.749 48.96 100.271 49.0086C100.242 49.0104 100.212 49.0121 100.184 49.0121Z" fill="white"/>
<path d="M61.062 34.5141C61.062 34.5141 58.096 38.3315 57.6929 44.4876C57.2881 50.6437 57.2881 50.6437 57.2881 50.6437L82.776 58.0734L83.2921 45.7369L61.062 34.5141Z" fill="#FFAF45"/>
<path d="M58.9491 38.5903C58.9491 38.5903 56.7094 40.5451 55.6982 43.1601C54.6869 45.775 53.627 50.9703 53.627 50.9703L46.2477 50.1449L47.0886 37.2629L57.043 31.1676L63.0567 31.84L62.1253 40.1385L58.9491 38.5903Z" fill="#FFAF45"/>
<path d="M85.2225 81.1044C85.2225 83.1495 83.5666 84.8054 81.525 84.8054C79.4799 84.8054 77.824 83.1495 77.824 81.1044C77.824 79.0611 79.4799 77.4052 81.525 77.4052C83.5666 77.4052 85.2225 79.0611 85.2225 81.1044Z" fill="white"/>
</svg>
