<svg width="200" height="200" viewBox="0 0 200 200" fill="none" xmlns="http://www.w3.org/2000/svg">
<rect width="200" height="200" fill="white"/>
<path d="M84.4817 170.785C85.0745 169.493 84.6484 166.789 84.6328 165.261C84.6109 163.237 84.1917 161.357 84.0286 159.368C83.6838 155.152 83.7854 150.92 83.5808 146.64C83.4702 144.316 83.0224 142.1 83.1552 139.728C85.1838 140.388 87.1136 141.728 89.2865 142.305C91.1734 142.806 93.3489 142.839 95.2917 142.861C99.7385 142.909 104.112 142.805 108.504 142.416C110.792 142.215 112.846 139.955 114.926 139.055C113.456 147.16 113.307 157.715 113.307 165.985C113.307 167.951 113.319 170.198 112.684 171.972C107.877 170.788 102.641 170.981 97.6969 170.936C95.0901 170.912 92.4833 170.96 89.8765 170.936C88.3906 170.921 86.025 171 84.7828 170.485" fill="#F35B5A"/>
<path d="M134.754 99.6479C132.258 96.1214 126.065 93.9692 121.888 96.7318C120.365 100.017 118.504 103.096 116.185 105.892C112.766 111.881 120.132 114.546 124.758 115.244C129.724 115.993 135.253 115.318 140.225 114.994C135.831 112.905 140.225 107.377 134.754 99.6479Z" fill="#F8A20D"/>
<path d="M134.754 99.6479C132.258 96.1214 126.065 93.9692 121.888 96.7318C120.365 100.017 118.504 103.096 116.185 105.892C112.766 111.881 120.132 114.546 124.758 115.244C129.724 115.993 135.253 115.318 140.225 114.994C135.831 112.905 140.225 107.377 134.754 99.6479Z" stroke="#1F1F20" stroke-width="2.40211" stroke-miterlimit="10" stroke-linecap="round" stroke-linejoin="round"/>
<path d="M133.931 80.9359C133.931 85.4515 131.246 89.1239 127.948 89.1239C126.884 89.1239 125.877 88.7411 125.015 88.0797C120.948 103.153 111.091 115.417 97.9156 115.149C83.888 114.861 75.0365 103.057 71.4989 88.6063C70.8464 88.9427 70.1369 89.1239 69.3984 89.1239C66.0912 89.1239 63.4156 85.4515 63.4156 80.9359C63.4156 76.4105 66.0912 72.7465 69.3984 72.7465C69.5235 72.7465 69.638 72.7465 69.7541 72.7571C69.7437 72.6225 69.7541 72.4971 69.7541 72.3638C70.2812 46.8198 82.5459 37.1825 98.6927 37.5171C114.563 37.8331 127.038 52.6771 127.056 72.8425C127.344 72.7745 127.641 72.7465 127.948 72.7465C131.246 72.7465 133.931 76.4105 133.931 80.9359Z" stroke="#1F1F20" stroke-width="2.40211" stroke-miterlimit="10" stroke-linecap="round" stroke-linejoin="round"/>
<path d="M97.6953 75.4838C97.6953 75.4838 92.9218 83.1359 92.9218 85.7906C92.9218 87.1156 96.25 87.8063 97.3412 88.3558" stroke="#1F1F20" stroke-width="2.40211" stroke-miterlimit="10" stroke-linecap="round" stroke-linejoin="round"/>
<path d="M85.7448 70.9384C85.689 73.3824 85.9808 75.8878 85.9808 78.3796" stroke="#1F1F20" stroke-width="3.60316" stroke-miterlimit="10" stroke-linecap="round" stroke-linejoin="round"/>
<path d="M109.714 70.9384C109.658 73.3824 109.951 75.8878 109.951 78.3796" stroke="#1F1F20" stroke-width="3.60316" stroke-miterlimit="10" stroke-linecap="round" stroke-linejoin="round"/>
<path d="M92.9401 96.5906C96.2541 97.0121 105.287 97.6667 105.179 94.7797" stroke="#1F1F20" stroke-width="2.40211" stroke-miterlimit="10" stroke-linecap="round" stroke-linejoin="round"/>
<path d="M116.141 86.337C114.349 85.8958 108.28 85.4156 107.883 87.873C107.379 90.9823 116.431 90.5932 118.219 89.312C121.051 87.2839 116.141 86.337 116.141 86.337Z" fill="#F35B5A"/>
<path d="M85.0573 86.337C83.2656 85.8958 77.1969 85.4156 76.7995 87.873C76.2959 90.9823 85.3479 90.5932 87.1355 89.312C89.9677 87.2839 85.0573 86.337 85.0573 86.337Z" fill="#F35B5A"/>
<path d="M164.38 171.116C164.38 171.116 157.094 147.28 146.32 140.075C141.301 136.717 135.367 133.989 129.952 131.296C126.624 129.64 114.375 124.769 114.375 124.769C111.155 123.81 108.768 121.06 108.333 117.729C108.075 115.756 107.99 113.793 108.108 112.66" stroke="#1F1F20" stroke-width="2.40211" stroke-miterlimit="10" stroke-linecap="round" stroke-linejoin="round"/>
<path d="M33 171.116C33 171.116 40.2865 147.28 51.0599 140.076C56.0797 136.717 62.0131 133.989 67.4287 131.296C70.0312 130 80.5937 125.934 85.0729 124.222C86.3645 123.729 87.3453 122.662 87.7229 121.333C88.4193 118.879 89.4339 114.962 89.3323 113.344" stroke="#1F1F20" stroke-width="2.40211" stroke-miterlimit="10" stroke-linecap="round" stroke-linejoin="round"/>
<path d="M120.263 48.3784C120.197 48.3784 120.13 48.3784 120.064 48.3784C118.518 48.3784 118.516 50.7798 120.064 50.7798C120.13 50.7798 120.197 50.7798 120.263 50.7798C121.809 50.7798 121.811 48.3784 120.263 48.3784Z" fill="#1F1F20"/>
<path d="M119.992 57.5198C120.789 61.5998 122.25 65.6118 122.651 69.8304C122.995 73.4478 122.729 77.125 122.891 80.7692C125.752 77.0984 127.205 71.0571 128.608 66.6958C129.406 64.2118 129.482 62.4691 127.384 60.5931C125.556 58.9584 123.362 57.6224 121.018 56.9038" fill="#F8A20D"/>
<path d="M119.992 57.5198C120.789 61.5998 122.25 65.6118 122.651 69.8304C122.995 73.4478 122.729 77.125 122.891 80.7692C125.752 77.0984 127.205 71.0571 128.608 66.6958C129.406 64.2118 129.482 62.4691 127.384 60.5931C125.556 58.9584 123.362 57.6224 121.018 56.9038" stroke="#1F1F20" stroke-width="2.40211" stroke-miterlimit="10" stroke-linecap="round" stroke-linejoin="round"/>
<path d="M77.9036 57.5198C77.1068 61.5998 75.6458 65.6118 75.2448 69.8304C74.901 73.4478 75.1666 77.125 75.0052 80.7692C72.1448 77.0984 70.6917 71.0571 69.288 66.6958C68.4896 64.2118 68.4141 62.4691 70.513 60.5931C72.3401 58.9584 74.5338 57.6224 76.8776 56.9038" fill="#F8A20D"/>
<path d="M77.9036 57.5198C77.1068 61.5998 75.6458 65.6118 75.2448 69.8304C74.901 73.4478 75.1666 77.125 75.0052 80.7692C72.1448 77.0984 70.6917 71.0571 69.288 66.6958C68.4896 64.2118 68.4141 62.4691 70.513 60.5931C72.3401 58.9584 74.5338 57.6224 76.8776 56.9038" stroke="#1F1F20" stroke-width="2.40211" stroke-miterlimit="10" stroke-linecap="round" stroke-linejoin="round"/>
<path d="M128.169 55.7864C127.843 53.7584 127.556 51.7144 127.189 49.6584C126.442 45.4611 125.127 41.1971 122.259 38.0424C118.828 34.2651 112.168 30.3238 106.871 31.6651C110.457 30.7571 113.758 29.6771 117.569 30.3304C116.055 29.9598 114.663 29.0384 113.116 28.6478C111.549 28.2504 109.951 28.0744 108.346 28.0131C105.325 27.8984 102.046 28.7784 99.4052 30.1131C98.288 28.3291 94.6328 28.0211 92.7396 28.0024C90.2942 27.9784 87.8281 28.1398 85.4156 28.1611C86.4869 28.6184 87.7474 28.7078 88.815 29.2291C89.551 29.5904 90.1588 30.1998 90.8349 30.5944C89.224 31.4131 87.3489 31.3158 85.6292 31.7238C83.7906 32.1598 81.974 32.9158 80.2734 33.7264C76.7802 35.3931 71.1734 38.3878 69.7734 42.2811C70.1032 41.3664 74.2161 40.7238 75.0718 40.7171C71.9532 42.2771 69.8073 47.7638 68.7552 50.8624C67.151 55.5838 66.3021 61.6438 68.125 66.4318C68.1421 66.4731 74.4609 60.0944 74.9286 59.5144C76.2917 57.8251 77.0745 59.0758 78.2656 60.1291C80.8532 62.4184 83.9088 63.7544 87.3202 64.2278C87.1552 64.2051 87.1994 60.0158 87.2906 59.6158C87.5224 60.3984 88.1068 61.0771 88.8453 61.5491C91.1708 63.0344 93.7865 63.9424 96.426 64.6918C97.3021 64.9398 102.888 65.6811 103.27 66.2864C101.819 63.9798 101.728 60.8318 101.478 58.2038C101.646 59.9678 110.909 62.9171 110.909 62.9171L109.825 56.6624C117.538 61.2384 130.115 64.1891 130.25 64.5531C129.202 61.7278 128.647 58.7558 128.169 55.7864Z" fill="#F8A20D"/>
<path d="M128.169 55.7864C127.843 53.7584 127.556 51.7144 127.189 49.6584C126.442 45.4611 125.127 41.1971 122.259 38.0424C118.828 34.2651 112.168 30.3238 106.871 31.6651C110.457 30.7571 113.758 29.6771 117.569 30.3304C116.055 29.9598 114.663 29.0384 113.116 28.6478C111.549 28.2504 109.951 28.0744 108.346 28.0131C105.325 27.8984 102.046 28.7784 99.4052 30.1131C98.288 28.3291 94.6328 28.0211 92.7396 28.0024C90.2942 27.9784 87.8281 28.1398 85.4156 28.1611C86.4869 28.6184 87.7474 28.7078 88.815 29.2291C89.551 29.5904 90.1588 30.1998 90.8349 30.5944C89.224 31.4131 87.3489 31.3158 85.6292 31.7238C83.7906 32.1598 81.974 32.9158 80.2734 33.7264C76.7802 35.3931 71.1734 38.3878 69.7734 42.2811C70.1032 41.3664 74.2161 40.7238 75.0718 40.7171C71.9532 42.2771 69.8073 47.7638 68.7552 50.8624C67.151 55.5838 66.3021 61.6438 68.125 66.4318C68.1421 66.4731 74.4609 60.0944 74.9286 59.5144C76.2917 57.8251 77.0745 59.0758 78.2656 60.1291C80.8532 62.4184 83.9088 63.7544 87.3202 64.2278C87.1552 64.2051 87.1994 60.0158 87.2906 59.6158C87.5224 60.3984 88.1068 61.0771 88.8453 61.5491C91.1708 63.0344 93.7865 63.9424 96.426 64.6918C97.3021 64.9398 102.888 65.6811 103.27 66.2864C101.819 63.9798 101.728 60.8318 101.478 58.2038C101.646 59.9678 110.909 62.9171 110.909 62.9171L109.825 56.6624C117.538 61.2384 130.115 64.1891 130.25 64.5531C129.202 61.7278 128.647 58.7558 128.169 55.7864Z" stroke="#1F1F20" stroke-width="2.18275" stroke-miterlimit="10" stroke-linecap="round" stroke-linejoin="round"/>
<path d="M87.2932 69.1798H76.6109C74.5339 69.1798 72.8505 70.8625 72.8505 72.9385V79.7225C72.8505 81.8001 74.5339 83.4839 76.6109 83.4839H87.2932C89.3699 83.4839 91.0536 81.8001 91.0536 79.7225V72.9385C91.0536 70.8625 89.3699 69.1798 87.2932 69.1798Z" fill="#1F1F20"/>
<path d="M118.596 69.1798H107.914C105.837 69.1798 104.154 70.8625 104.154 72.9385V79.7225C104.154 81.8001 105.837 83.4839 107.914 83.4839H118.596C120.673 83.4839 122.357 81.8001 122.357 79.7225V72.9385C122.357 70.8625 120.673 69.1798 118.596 69.1798Z" fill="#1F1F20"/>
<path d="M90.5849 78.9984C92.5407 76.9359 95.301 75.4064 98.236 75.8678C101.031 76.3051 102.856 78.8984 104.555 80.937C105.546 82.1266 107.236 80.4198 106.253 79.2396C104.051 76.5971 101.687 73.6531 97.9964 73.4011C94.4948 73.1624 91.2437 74.8158 88.8855 77.3C87.8219 78.4208 89.5172 80.1224 90.5849 78.9984Z" fill="#1F1F20"/>
<path d="M76.8219 79.0172C79.0041 76.7396 81.1849 74.4638 83.3672 72.1864C84.6631 70.8344 82.6093 68.7744 81.3099 70.1291C79.1276 72.4064 76.9469 74.6838 74.7645 76.9599C73.4688 78.312 75.5224 80.373 76.8219 79.0172Z" fill="#F8A20D"/>
<path d="M81.1797 81.7744C83.362 79.4968 85.5442 77.2214 87.7254 74.9438C89.0208 73.5931 86.9677 71.5331 85.6682 72.8864C83.4869 75.1638 81.3046 77.4396 79.1224 79.7172C77.827 81.0692 79.8817 83.1302 81.1797 81.7744Z" fill="#F8A20D"/>
<path d="M108.925 79.3958C111.106 77.1182 113.288 74.8424 115.47 72.5651C116.766 71.2144 114.711 69.1544 113.413 70.5078C111.231 72.7851 109.048 75.0611 106.867 77.3386C105.572 78.6906 107.625 80.7515 108.925 79.3958Z" fill="#F8A20D"/>
<path d="M113.283 82.1547C115.465 79.8771 117.646 77.6011 119.828 75.3238C121.124 73.9718 119.069 71.9104 117.771 73.2664C115.588 75.5438 113.408 77.8198 111.225 80.0968C109.93 81.4479 111.983 83.5078 113.283 82.1547Z" fill="#F8A20D"/>
<path d="M81.1953 125.176C81.3333 140.521 83.6369 155.757 83.2984 171.116C83.263 172.661 85.6656 172.661 85.7005 171.116C86.039 155.757 83.736 140.521 83.5978 125.176C83.5849 123.63 81.1822 123.627 81.1953 125.176Z" fill="#1F1F20"/>
<path d="M114.208 125.445C114.07 140.792 111.767 156.027 112.107 171.385C112.141 172.929 114.543 172.936 114.508 171.385C114.169 156.027 116.473 140.792 116.611 125.445C116.624 123.898 114.223 123.897 114.208 125.445Z" fill="#1F1F20"/>
<path d="M128.989 130.948C126.526 133.603 114.479 145.432 115.046 147.228C115.254 147.888 123.299 155.653 123.687 156.312C124.503 157.693 123.596 158.903 122.624 159.877C119.942 162.565 115.365 165.01 113.806 168.604" stroke="#1F1F20" stroke-width="2.40211" stroke-miterlimit="10" stroke-linecap="round" stroke-linejoin="round"/>
<path d="M69.3828 130.948C71.8453 133.603 83.8906 145.432 83.3245 147.228C83.1172 147.888 75.0718 155.653 74.6822 156.312C73.8672 157.693 74.775 158.903 75.7474 159.877C78.4286 162.565 83.0052 165.01 84.5641 168.604" stroke="#1F1F20" stroke-width="2.40211" stroke-miterlimit="10" stroke-linecap="round" stroke-linejoin="round"/>
<path d="M82.2032 138.927C83.8063 143.148 89.7839 144.17 93.7385 144.516C100.601 145.115 109.664 143.842 115.531 140.092C116.831 139.262 115.628 137.181 114.319 138.017C110.148 140.684 103.923 141.74 99.1328 142.094C96.0041 142.325 86.1484 142.576 84.5199 138.288C83.9755 136.857 81.6527 137.477 82.2032 138.927Z" fill="#1F1F20"/>
<path d="M87.3297 148.943C93.9374 151.249 104.072 152.452 110.305 148.376C111.594 147.532 110.392 145.451 109.093 146.301C103.475 149.976 93.8532 148.68 87.9677 146.627C86.5052 146.117 85.8765 148.436 87.3297 148.943Z" fill="#1F1F20"/>
</svg>
