<svg width="200" height="200" viewBox="0 0 200 200" fill="none" xmlns="http://www.w3.org/2000/svg">
<rect width="200" height="200" fill="white"/>
<path d="M129.289 133.948L129.435 133.355L122.693 131.724L122.607 132.09C122.607 145.504 116.107 154.927 109.831 160.897C103.356 167.055 93.068 166.538 87.2707 159.74C82.4227 154.057 77.5933 145.26 76.5627 132.012L76.5227 131.811L70.5773 133.048L70.7707 133.948C72.188 145.935 65.8027 164.317 62.716 170.426H98.3093H137.345C134.257 164.317 127.871 145.935 129.289 133.948Z" fill="#F8A20D"/>
<path d="M165.456 166.927C158.152 149.864 147.508 137.169 130.34 133.004L121.129 130.769C117.456 129.878 114.517 127.14 113.349 123.545C112.785 121.805 112.224 119.933 111.772 117.326C111.204 114.04 111.916 110.61 111.916 107.247" stroke="#1F1F20" stroke-width="2.40211" stroke-miterlimit="10" stroke-linecap="round" stroke-linejoin="round"/>
<path d="M33 166.927C40.3013 149.864 50.9467 137.169 68.1147 133.004L77.372 131.076C80.4507 130.435 82.964 128.226 83.9907 125.254C84.7613 123.021 85.6147 120.483 86.1267 118.754C87.2533 114.951 87.4507 110.587 87.3013 107.266" stroke="#1F1F20" stroke-width="2.40211" stroke-miterlimit="10" stroke-linecap="round" stroke-linejoin="round"/>
<path d="M76.592 131.451C77.7533 146.36 83.7266 155.633 89.1213 161.171C94.1946 166.38 102.416 166.786 107.943 162.06C114.735 156.252 122.639 146.316 122.639 131.527" stroke="#1F1F20" stroke-width="2.40211" stroke-miterlimit="10" stroke-linecap="round" stroke-linejoin="round"/>
<path d="M129.328 133.383C127.909 145.367 134.289 163.748 137.377 169.866" stroke="#1F1F20" stroke-width="2.40211" stroke-miterlimit="10" stroke-linecap="round" stroke-linejoin="round"/>
<path d="M70.8027 133.383C72.2213 145.367 65.8413 163.748 62.7533 169.866" stroke="#1F1F20" stroke-width="2.40211" stroke-miterlimit="10" stroke-linecap="round" stroke-linejoin="round"/>
<path d="M85.3893 124.378C94.5347 128.979 103.572 129.139 112.836 124.779C115.631 123.462 113.195 119.321 110.411 120.629C102.783 124.222 95.328 124.009 87.8133 120.23C85.0586 118.843 82.6227 122.987 85.3893 124.378Z" fill="#1F1F20"/>
<path d="M98.676 126.302C97.4133 128.595 95.3453 130.298 95.6506 133.168C95.8986 135.505 97.9093 137.319 100.283 137.267C102.319 137.223 103.987 135.679 104.361 133.71C104.867 131.055 102.632 128.788 101.651 126.502C101.043 125.086 98.972 126.309 99.576 127.715C100.217 129.204 104.185 134.543 100.321 134.852C98.236 135.021 97.6706 132.73 98.3386 131.176C98.9146 129.833 100.047 128.792 100.749 127.514C101.496 126.159 99.4226 124.945 98.676 126.302Z" fill="#1F1F20"/>
<path d="M150.623 106.831C149.072 104.956 147.091 103.515 145.217 102.002C143.896 100.945 140.808 99.6231 140.64 97.7496C140.376 95.0001 145.18 92.2616 146.849 90.5668C149.276 88.0935 151.547 85.0189 151.067 81.3908C150.117 74.3309 143.643 69.6696 138.491 65.5736C136.136 63.7123 133.339 61.7669 131.333 59.5323C131.524 60.9256 131.584 62.2949 131.489 63.6403C130.299 63.3523 129.075 63.1963 127.825 63.0763C128.115 64.9856 128.271 66.9549 128.293 68.9856H128.305C131.609 68.9856 134.288 72.6483 134.288 77.1643C134.288 80.7205 132.629 83.7455 130.312 84.8627L125.483 85.6309L123.585 90.1001L123.563 90.0872C120.344 97.0173 117.212 102.068 112.203 105.912C112.203 105.912 113.844 108.986 114.536 115.73C114.643 116.774 112.584 120.738 112.704 121.159C111.936 124.102 111.996 127.152 113.269 130.226C114.793 133.926 117.509 137.002 118.783 140.843C119.323 142.478 119.611 144.219 119.719 146.009C120.091 151.522 118.951 157.551 119.275 162.763C120.055 159.304 121.508 155.75 123.681 152.902C125.508 150.524 127.813 148.843 130.239 147.329C133.915 145.023 137.867 143.126 140.845 139.835C141.481 139.126 142.021 138.381 142.395 137.602C143.344 135.704 143.379 133.65 141.925 131.633C139.86 128.762 136.809 128.28 134.419 126.227C139.5 122.6 146.969 121.051 151.353 116.319C154.453 112.967 153.156 109.892 150.623 106.831Z" fill="#F35B5A"/>
<path d="M128.037 52.2429C126.984 54.0856 129.912 58.1856 131.181 59.6429C133.191 61.9496 136.079 63.9349 138.488 65.8496C143.639 69.9469 150.117 74.6083 151.065 81.6684C151.552 85.2897 149.272 88.3763 146.845 90.8403C145.176 92.5361 140.383 95.2711 140.635 98.0241C140.808 99.9028 143.901 101.216 145.219 102.28C147.087 103.791 149.069 105.228 150.619 107.102C153.155 110.171 154.456 113.239 151.356 116.591C146.971 121.333 139.5 122.876 134.415 126.502C136.815 128.562 139.863 129.043 141.927 131.905C143.973 134.747 143.065 137.666 140.848 140.114C135.912 145.572 128.268 147.193 123.683 153.181C121.503 156.028 120.052 159.58 119.275 163.039C118.84 156.131 120.991 147.807 118.78 141.115C117.511 137.274 114.797 134.196 113.269 130.505C111.579 126.424 112.028 122.391 113.711 118.593C115.184 115.262 112.705 110.81 112.424 107.29" stroke="#1F1F20" stroke-width="2.40211" stroke-miterlimit="10" stroke-linecap="round" stroke-linejoin="round"/>
<path d="M129.005 52.9096C130.683 50.8003 132.433 48.8909 135.339 49.9349C138.683 51.1349 141.4 55.8389 139.539 59.1496C137.995 61.8963 133.297 63.8856 130.893 61.3696C128.689 59.0643 129.704 55.3776 128.751 52.9096" fill="#F8A20D"/>
<path d="M129.005 52.9096C130.683 50.8003 132.433 48.8909 135.339 49.9349C138.683 51.1349 141.4 55.8389 139.539 59.1496C137.995 61.8963 133.297 63.8856 130.893 61.3696C128.689 59.0643 129.704 55.3776 128.751 52.9096" stroke="#1F1F20" stroke-width="3.04075" stroke-miterlimit="10" stroke-linecap="round" stroke-linejoin="round"/>
<path d="M47.884 106.831C49.4333 104.956 51.4147 103.515 53.2893 102.002C54.6107 100.945 57.6973 99.6231 57.8653 97.7496C58.1293 95.0001 53.3253 92.2616 51.656 90.5668C49.2307 88.0935 46.9587 85.0189 47.44 81.3908C48.3893 74.3309 54.8627 69.6696 60.0147 65.5736C62.3693 63.7123 65.168 61.7669 67.1733 59.5323C66.9813 60.9256 66.9213 62.2949 67.016 63.6403C68.2067 63.3523 69.4307 63.1963 70.68 63.0763C70.392 64.9856 70.236 66.9549 70.212 68.9856H70.2C66.8973 68.9856 64.2187 72.6483 64.2187 77.1643C64.2187 80.7205 65.876 83.7455 68.1933 84.8627L73.0227 85.6309L74.92 90.1001L74.944 90.0872C78.1626 97.0173 81.2933 102.068 86.3027 105.912C86.3027 105.912 84.6627 108.986 83.9693 115.73C83.8627 116.774 85.9213 120.738 85.8013 121.159C86.5693 124.102 86.5107 127.152 85.236 130.226C83.712 133.926 80.9973 137.002 79.724 140.843C79.1827 142.478 78.896 144.219 78.788 146.009C78.4147 151.522 79.556 157.551 79.232 162.763C78.452 159.304 76.9987 155.75 74.824 152.902C72.9987 150.524 70.692 148.843 68.2667 147.329C64.5907 145.023 60.6386 143.126 57.6613 139.835C57.024 139.126 56.484 138.381 56.112 137.602C55.1627 135.704 55.1267 133.65 56.58 131.633C58.6453 128.762 61.696 128.28 64.0867 126.227C59.0067 122.6 51.536 121.051 47.152 116.319C44.0533 112.967 45.3493 109.892 47.884 106.831Z" fill="#F35B5A"/>
<path d="M70.468 52.2429C71.5213 54.0856 68.5933 58.1856 67.324 59.6429C65.3147 61.9496 62.4267 63.9349 60.0173 65.8496C54.8667 69.9469 48.3893 74.6083 47.4413 81.6684C46.9547 85.2897 49.2347 88.3763 51.6613 90.8403C53.3307 92.5361 58.1227 95.2711 57.8707 98.0241C57.6973 99.9028 54.6053 101.216 53.288 102.28C51.4187 103.791 49.436 105.228 47.888 107.102C45.3507 110.171 44.0507 113.239 47.1493 116.591C51.5347 121.333 59.0067 122.876 64.0907 126.502C61.6907 128.562 58.6427 129.043 56.5787 131.905C54.532 134.747 55.4413 137.666 57.6573 140.114C62.5933 145.572 70.2373 147.193 74.8227 153.181C77.004 156.028 78.4547 159.58 79.232 163.039C79.6667 156.131 77.5147 147.807 79.7267 141.115C80.996 137.274 83.708 134.196 85.236 130.505C86.9267 126.424 86.4773 122.391 84.7947 118.593C83.3213 115.262 85.8 110.81 86.0813 107.29" stroke="#1F1F20" stroke-width="2.40211" stroke-miterlimit="10" stroke-linecap="round" stroke-linejoin="round"/>
<path d="M68.072 55.1483C66.4333 53.0856 64.7227 51.2203 61.8827 52.2389C58.6133 53.4123 55.9586 58.0096 57.7773 61.2456C59.288 63.9309 63.8773 65.8749 66.228 63.4149C68.3813 61.1629 67.3893 57.5576 68.3213 55.1483" fill="#F8A20D"/>
<path d="M68.072 55.1483C66.4333 53.0856 64.7227 51.2203 61.8827 52.2389C58.6133 53.4123 55.9586 58.0096 57.7773 61.2456C59.288 63.9309 63.8773 65.8749 66.228 63.4149C68.3813 61.1629 67.3893 57.5576 68.3213 55.1483" stroke="#1F1F20" stroke-width="2.97184" stroke-miterlimit="10" stroke-linecap="round" stroke-linejoin="round"/>
<path d="M134.289 77.4455C134.289 81.9616 131.615 85.6335 128.307 85.6335C127.396 85.6335 126.532 85.3564 125.756 84.8482C120.808 99.6335 109.464 111.659 99.0693 111.659C89.8453 111.659 77.6867 99.672 72.1173 84.983C71.3973 85.4044 70.6013 85.6335 69.7667 85.6335C66.4587 85.6335 63.784 81.9616 63.784 77.4455C63.784 73.2363 66.104 69.775 69.0853 69.3043C69.1333 43.8656 82.1453 34.027 98.2653 34.027C114.259 34.027 128.057 48.8416 128.296 69.2563H128.307C131.615 69.2563 134.289 72.9203 134.289 77.4455Z" stroke="#1F1F20" stroke-width="2.40211" stroke-miterlimit="10" stroke-linecap="round" stroke-linejoin="round"/>
<path d="M121.832 60.2496C121.832 63.6696 122.029 67.1523 121.832 70.5656C121.663 73.5003 121.041 76.4189 121.017 79.4163C124.279 76.2711 126.76 73.0163 128.439 68.8576V62.2069" fill="#F35B5A"/>
<path d="M120.587 60.2496C120.632 66.7149 120.016 72.9843 119.773 79.4163C119.732 80.5121 121.153 81.0335 121.899 80.296C124.853 77.3695 128.904 73.1296 129.683 68.8576C130.06 66.7923 129.683 64.3123 129.683 62.2069C129.683 60.6056 127.193 60.6029 127.193 62.2069C127.193 64.1576 127.489 66.3576 127.193 68.2803C126.601 72.1256 122.789 75.9085 120.137 78.5361C120.845 78.8293 121.555 79.1231 122.263 79.4163C122.507 72.9816 123.123 66.7149 123.076 60.2496C123.067 58.6483 120.576 58.6443 120.587 60.2496Z" fill="#1F1F20"/>
<path d="M76.472 60.2496C76.472 63.6696 76.276 67.1523 76.472 70.5656C76.6413 73.5003 77.264 76.4189 77.2867 79.4163C74.0267 76.2711 71.5453 73.0163 69.8667 68.8576V62.2069" fill="#F35B5A"/>
<path d="M75.228 60.2496C75.1813 66.7149 75.7973 72.9843 76.0413 79.4163C76.7493 79.1231 77.4573 78.8293 78.1666 78.5361C75.46 75.8564 71.8213 72.1536 71.112 68.2803C70.7653 66.3923 71.112 64.1296 71.112 62.2069C71.112 60.6056 68.6227 60.6029 68.6227 62.2069C68.6227 64.3269 68.2427 66.7789 68.6227 68.8576C69.3987 73.1149 73.46 77.3788 76.4053 80.296C77.1493 81.0325 78.572 80.5137 78.5306 79.4163C78.288 72.9816 77.672 66.7149 77.7173 60.2496C77.7293 58.6469 75.2386 58.6456 75.228 60.2496Z" fill="#1F1F20"/>
<path d="M98.06 73.3523C98.06 74.495 97.9813 75.5872 97.9413 76.7148C97.8787 78.4643 98.1973 79.1482 96.784 80.3002C95.8973 81.0231 94.1466 82.007 94.3933 83.0564C94.696 84.3455 96.6133 85.6752 97.7053 86.2242" stroke="#1F1F20" stroke-width="2.40211" stroke-miterlimit="10" stroke-linecap="round" stroke-linejoin="round"/>
<path d="M86.108 67.4469C86.052 69.8909 86.3453 72.3963 86.3453 74.8883" stroke="#1F1F20" stroke-width="3.60316" stroke-miterlimit="10" stroke-linecap="round" stroke-linejoin="round"/>
<path d="M110.077 67.4469C110.021 69.8909 110.313 72.3963 110.313 74.8883" stroke="#1F1F20" stroke-width="3.60316" stroke-miterlimit="10" stroke-linecap="round" stroke-linejoin="round"/>
<path d="M97.0147 94.2992C100.312 94.1121 104.364 93.1992 106.287 89.9643" stroke="#1F1F20" stroke-width="2.40211" stroke-miterlimit="10" stroke-linecap="round" stroke-linejoin="round"/>
<path d="M116.505 80.4444C114.712 80.0028 108.644 79.5231 108.245 81.9804C107.741 85.0883 116.793 84.6992 118.583 83.419C121.413 81.3898 116.505 80.4444 116.505 80.4444Z" fill="#F35B5A"/>
<path d="M85.4213 80.4444C83.628 80.0028 77.5613 79.5231 77.1626 81.9804C76.6586 85.0883 85.7106 84.6992 87.5 83.419C90.3306 81.3898 85.4213 80.4444 85.4213 80.4444Z" fill="#F35B5A"/>
<path d="M73.576 65.1043C75.1933 66.1789 76.6547 67.0123 77.596 67.2576C77.4493 65.9576 76.5733 64.4976 76.3893 62.9789C76.2213 61.5949 76.2453 60.2043 76.2147 58.7869C78.6227 65.9416 91.1307 63.4109 96.1933 65.0003C95.8173 63.8416 94.2734 62.5616 93.616 61.2523C92.9534 59.9349 92.5907 58.4709 91.98 57.1216C94.2773 59.7443 99.888 61.2149 103.417 61.8283C107.661 62.5656 112.363 63.6216 116.672 63.3309C115.753 61.4696 113.755 59.6456 112.668 57.6389C114.816 59.6976 118.893 60.5056 121.652 61.2523C124.896 62.1296 128.316 61.9403 131.492 62.7016C131.531 62.1669 131.547 61.5763 131.543 60.9443C131.479 48.9336 125.015 37.8989 114.889 31.4389C113.677 30.6656 112.515 29.9749 111.468 29.4296C105.795 26.4683 90.4413 25.2709 79.8707 31.4029C74.7093 34.3976 70.7427 39.2229 68.0853 44.2296C64.2227 51.5056 66.7173 60.5416 73.576 65.1043Z" fill="#F35B5A"/>
<path d="M73.576 65.1043C75.1933 66.1789 76.6547 67.0123 77.596 67.2576C77.4493 65.9576 76.5733 64.4976 76.3893 62.9789C76.2213 61.5949 76.2453 60.2043 76.2147 58.7869C78.6227 65.9416 91.1307 63.4109 96.1933 65.0003C95.8173 63.8416 94.2734 62.5616 93.616 61.2523C92.9534 59.9349 92.5907 58.4709 91.98 57.1216C94.2773 59.7443 99.888 61.2149 103.417 61.8283C107.661 62.5656 112.363 63.6216 116.672 63.3309C115.753 61.4696 113.755 59.6456 112.668 57.6389C114.816 59.6976 118.893 60.5056 121.652 61.2523C124.896 62.1296 128.316 61.9403 131.492 62.7016C131.531 62.1669 131.547 61.5763 131.543 60.9443C131.479 48.9336 125.015 37.8989 114.889 31.4389C113.677 30.6656 112.515 29.9749 111.468 29.4296C105.795 26.4683 90.4413 25.2709 79.8707 31.4029C74.7093 34.3976 70.7427 39.2229 68.0853 44.2296C64.2227 51.5056 66.7173 60.5416 73.576 65.1043Z" stroke="#1F1F20" stroke-width="2.40211" stroke-miterlimit="10" stroke-linecap="round" stroke-linejoin="round"/>
<path d="M126.8 81.1627C125.424 84.1778 125.333 90.2096 129.039 91.6815C130.608 92.3054 132.379 91.6616 133.292 90.2539C134.543 88.3283 133.872 86.0351 132.879 84.1659C132.152 82.7992 130.077 84.0111 130.804 85.3778C131.333 86.3711 131.967 87.7575 131.312 88.8294C130.467 90.2138 129.184 89.1283 128.725 88.0283C128.139 86.6326 128.252 83.7387 128.875 82.3747C129.512 80.9788 127.443 79.7564 126.8 81.1627Z" fill="#1F1F20"/>
<path d="M69.5293 81.8496C69.3067 83.0659 69.7987 84.0763 70.2133 85.2028C70.788 86.7616 70.832 88.4268 70.8974 90.0752C70.9094 90.4293 71.1067 91.3053 70.9214 91.6096C70.2187 92.7643 69.5934 90.7017 69.44 90.2872C69.1414 89.4856 68.308 87.3216 68.9347 86.6205C69.9614 85.472 68.2694 83.7684 67.2347 84.9231C65.1347 87.2736 67.1347 94.7777 70.8467 94.4575C73.024 94.2711 73.356 92.2992 73.3174 90.5017C73.2854 89.0309 73.2214 87.5028 72.964 86.0549C72.7827 85.0257 71.6613 83.4935 71.8453 82.4883C72.1227 80.9763 69.808 80.3293 69.5293 81.8496Z" fill="#1F1F20"/>
</svg>
