<svg width="163" height="163" viewBox="0 0 163 163" fill="none" xmlns="http://www.w3.org/2000/svg">
<path d="M163 81.6874C163 92.13 161.019 102.121 157.422 111.297C155.84 115.345 153.93 119.236 151.706 122.937C150.038 125.77 148.177 128.479 146.161 131.086C145.345 132.165 144.493 133.205 143.592 134.231C138.588 140.138 132.732 145.318 126.216 149.556C124.479 150.687 122.705 151.764 120.88 152.753C114.59 156.21 107.797 158.853 100.64 160.521C94.6453 161.944 88.4075 162.693 81.9786 162.693C80.606 162.693 79.2489 162.657 77.9127 162.587C68.1287 162.101 58.8172 159.894 50.2842 156.228C50.06 156.141 49.8498 156.056 49.6257 155.95C47.9906 155.256 46.3921 154.49 44.8109 153.674C42.1716 152.318 39.6174 150.807 37.1675 149.175C36.8356 148.949 36.5072 148.723 36.1753 148.478C33.2215 146.482 30.4068 144.273 27.7675 141.86C27.6632 141.773 27.5745 141.704 27.5241 141.634C27.3156 141.459 27.1072 141.269 26.8987 141.061C25.0743 139.393 23.3367 137.619 21.6861 135.779C21.6148 135.692 21.5297 135.603 21.4602 135.516C20.2421 134.144 19.0623 132.738 17.9312 131.296C7.31486 117.604 0.974609 100.383 0.974609 81.6874C0.974609 36.9458 37.2527 0.665994 81.9786 0.665994C126.72 0.665994 163 36.9458 163 81.6874Z" fill="#F7F5FF"/>
<path d="M100.501 160.521C94.5063 161.944 88.2686 162.693 81.8397 162.693C80.467 162.693 79.11 162.657 77.7739 162.587C65.87 161.996 54.6646 158.853 44.6738 153.674L54.715 100.175L75.2196 90.5488L98.9718 93.7824L100.501 160.521Z" fill="#FFAF45"/>
<path d="M63.6477 89.786L49.4867 155.95C47.8535 155.256 46.2531 154.49 44.6737 153.674C42.0309 152.318 39.4785 150.807 37.0286 149.175C36.6967 148.949 36.3683 148.723 36.0364 148.478C33.0844 146.482 30.2696 144.273 27.6268 141.86C27.5243 141.773 27.4374 141.704 27.3852 141.634C27.1767 141.459 26.9682 141.269 26.758 141.061C24.9353 139.393 23.1978 137.619 21.5454 135.779C21.4759 135.692 21.3907 135.603 21.3212 135.516C20.1032 134.144 18.9234 132.738 17.7923 131.296C25.2307 116.473 40.0154 104.397 44.8475 100.192C54.854 91.4871 63.6477 89.786 63.6477 89.786Z" fill="#ADA4F7"/>
<path d="M59.9675 36.6747C59.9675 36.6747 60.282 21.8049 82.4252 19.7737C104.567 17.7425 112.069 38.1186 110.884 40.2888C109.703 42.4589 107.84 43.2548 107.84 43.2548C107.84 43.2548 108.375 58.1159 99.3731 60.7987C90.3744 63.4832 80.3071 57.7198 80.3071 57.7198L59.9675 36.6747Z" fill="#FFAF45"/>
<path d="M86.552 73.3646L86.5398 91.6295C86.5398 91.6295 83.242 96.8804 72.5561 97.7422C64.5947 98.3833 61.799 96.5833 61.799 96.5833L62.9145 87.3326L64.0144 78.3113L83.3115 74.0787L86.552 73.3646Z" fill="#B55C4D"/>
<path d="M83.3113 74.0787C83.2662 74.5774 83.0767 75.1664 82.7813 75.8406C78.6877 84.9626 67.5136 86.9226 62.9144 87.3326L64.0142 78.3113L83.3113 74.0787Z" fill="black"/>
<path d="M59.9674 36.6747C59.9674 36.6747 50.3659 59.5702 54.138 72.2959C57.9085 85.0234 69.5239 82.8376 76.4532 80.2643C83.3825 77.6893 86.5535 73.3698 86.5535 73.3698C86.5535 73.3698 93.0919 75.4791 97.3558 69.363C101.618 63.2469 98.8344 56.3367 95.097 54.8007C91.3561 53.263 86.9775 56.0117 86.9775 56.0117L90.3413 49.3483C90.3413 49.3483 75.2717 15.9685 59.9674 36.6747Z" fill="#B55C4D"/>
<path d="M61.4324 65.7054C61.0692 65.7054 60.7287 65.4761 60.607 65.113C58.9755 60.2148 62.3324 55.1377 62.4766 54.924C62.7442 54.5244 63.2811 54.4202 63.6807 54.6877C64.0804 54.9536 64.1846 55.4939 63.9187 55.8918C63.8892 55.937 60.8972 60.4841 62.2559 64.5621C62.4071 65.0174 62.1603 65.5108 61.7068 65.662C61.6147 65.6915 61.5227 65.7054 61.4324 65.7054Z" fill="black"/>
<path d="M88.1573 66.8019C87.9488 66.8019 87.7421 66.7289 87.5753 66.5777C87.2191 66.2563 87.193 65.7072 87.5127 65.351L93.5506 58.6702C93.8721 58.3157 94.4229 58.288 94.7773 58.6094C95.1335 58.9309 95.1614 59.4799 94.8399 59.8361L88.802 66.5169C88.6317 66.7063 88.3953 66.8019 88.1573 66.8019Z" fill="black"/>
<path d="M94.6626 64.9062C94.6244 64.9062 94.5879 64.9044 94.5479 64.8992L90.2614 64.3449C89.7871 64.2824 89.4517 63.8463 89.5126 63.3719C89.5751 62.8941 89.9991 62.5692 90.4856 62.6213L94.7721 63.1756C95.2464 63.2381 95.5835 63.6743 95.5227 64.1486C95.4636 64.5865 95.0918 64.9062 94.6626 64.9062Z" fill="black"/>
<path d="M71.557 57.0004C71.5257 57.0004 71.4962 56.9987 71.4632 56.9952C70.9871 56.9448 70.6396 56.5174 70.6917 56.0396L71.1382 51.7913C71.1903 51.3134 71.5952 50.9659 72.0939 51.0181C72.5717 51.0684 72.9174 51.4959 72.867 51.972L72.4188 56.222C72.3702 56.6685 71.9949 57.0004 71.557 57.0004Z" fill="black"/>
<path d="M58.9545 56.2602C58.9163 56.2602 58.8816 56.2585 58.8451 56.255C58.369 56.1942 58.0319 55.7598 58.091 55.2837L58.6191 51.0441C58.68 50.5663 59.1369 50.2379 59.5887 50.29C60.0648 50.3491 60.4036 50.7835 60.3445 51.2596L59.8146 55.4991C59.7608 55.9387 59.3854 56.2602 58.9545 56.2602Z" fill="black"/>
<path d="M75.3291 48.7905C75.0216 48.7905 74.7226 48.6254 74.5645 48.3353C73.5307 46.4344 70.8132 47.0616 70.7872 47.0669C70.3146 47.1763 69.8506 46.8896 69.7412 46.424C69.6282 45.9566 69.9167 45.4892 70.3841 45.3762C70.5457 45.3363 74.4325 44.4467 76.0918 47.5082C76.3212 47.9304 76.1648 48.4569 75.7426 48.6863C75.6123 48.7575 75.4699 48.7905 75.3291 48.7905Z" fill="black"/>
<path d="M56.8643 47.8766C56.6575 47.8766 56.4525 47.8053 56.2892 47.6594C55.9312 47.3414 55.8948 46.7958 56.2127 46.4362C57.2136 45.2963 59.6982 43.6109 61.9413 45.371C62.3167 45.6681 62.381 46.2137 62.0856 46.5908C61.7885 46.9713 61.2412 47.0321 60.8641 46.7368C59.3542 45.55 57.5906 47.5012 57.5141 47.5864C57.3421 47.7793 57.1024 47.8766 56.8643 47.8766Z" fill="black"/>
<path d="M81.5269 95.2245C81.3514 94.771 80.8475 94.5278 80.3975 94.7015C70.9957 98.2652 62.1359 95.7788 62.0491 95.7458C61.8041 95.6763 61.5626 95.7093 61.3541 95.8309C61.1438 95.9699 61.0048 96.1628 60.9527 96.4043L48.5137 155.515C48.8264 155.673 49.1566 155.812 49.4867 155.95C49.7109 156.056 49.9211 156.141 50.1452 156.228L62.4644 97.638C65.0533 98.2114 72.7332 99.445 81.0038 96.3348C81.4573 96.1628 81.6833 95.6589 81.5269 95.2245Z" fill="white"/>
<path d="M90.6924 57.6433C90.6924 57.6433 83.4625 56.3176 81.1654 51.2075C77.7373 43.5884 82.3035 40.3374 82.3035 40.3374C82.3035 40.3374 77.0579 41.5137 72.7401 39.2445C67.3989 36.4366 66.5076 32.178 66.5076 32.178L59.9675 36.6747C59.9675 36.6747 58.0318 27.0262 64.0628 25.2487C70.0956 23.4712 77.1482 29.0052 77.1482 29.0052L99.2567 45.8141L97.1786 56.3332C97.1786 56.3332 95.9415 55.8571 90.6924 57.6433Z" fill="black"/>
<path d="M66.4155 69.7453C66.8516 70.2249 67.5015 70.7861 68.2643 70.9373C68.8689 71.0572 69.4701 70.8956 70.0973 70.4369C71.6611 69.2936 72.1112 67.8097 72.2137 66.7776L66.4155 69.7453ZM68.6587 72.7148C68.412 72.7148 68.1652 72.6905 67.9168 72.6401C65.7657 72.2074 64.4052 69.9886 64.3496 69.8948C64.2245 69.688 64.1915 69.4395 64.2575 69.2067C64.3235 68.9756 64.4817 68.7827 64.6972 68.6715L72.6446 64.604C72.8861 64.4823 73.1746 64.4789 73.4178 64.5953C73.6646 64.7152 73.8383 64.941 73.8904 65.2086C73.9234 65.3737 74.6515 69.2623 71.1226 71.8408C70.3268 72.4211 69.4997 72.7148 68.6587 72.7148Z" fill="black"/>
<path d="M68.6674 25.5788C68.6674 25.5788 78.4132 26.6943 84.3452 39.6806C89.1946 50.2952 90.6924 57.6433 90.6924 57.6433L99.3732 60.7986L101.966 39.9795L82.0638 24.1905C82.0638 24.1905 73.8574 21.4243 68.6674 25.5788Z" fill="#FCB35B"/>
<path d="M151.567 122.937C149.899 125.77 148.038 128.479 146.024 131.086C145.206 132.165 144.355 133.205 143.453 134.231C138.449 140.138 132.593 145.318 126.077 149.556C124.34 150.687 122.568 151.764 120.741 152.753C109.189 159.096 95.9485 162.693 81.8397 162.693C80.4671 162.693 79.1101 162.657 77.7739 162.587C75.496 132.041 75.463 95.6051 86.5485 84.9192C92.8383 78.8552 127.728 92.9466 151.567 122.937Z" fill="#ADA4F7"/>
<path d="M91.4257 58.267C90.9983 58.267 90.6247 57.9508 90.5674 57.5147C90.5031 57.0386 90.8367 56.6025 91.3128 56.5382C91.3667 56.5295 96.826 55.7511 100.819 51.6505C104.645 47.7202 106.442 43.9984 106.461 43.9602C106.667 43.5275 107.185 43.3451 107.618 43.5518C108.052 43.7569 108.235 44.2764 108.028 44.7091C107.951 44.8707 106.089 48.7297 102.065 52.8616C97.6374 57.407 91.7889 58.2271 91.5422 58.2601C91.5022 58.2653 91.4657 58.267 91.4257 58.267Z" fill="#8758E7"/>
<path d="M88.8489 49.8661C88.4806 49.8661 88.14 49.6315 88.0201 49.2614C87.8741 48.8045 88.1278 48.3162 88.583 48.1703C88.6647 48.1442 96.8503 45.5066 101.052 42.7109C105.557 39.7137 109.809 39.4965 109.99 39.4895C110.42 39.4565 110.872 39.8405 110.893 40.3183C110.916 40.7962 110.544 41.201 110.066 41.2253C110.026 41.2271 106.097 41.4425 102.016 44.1583C97.6113 47.0877 89.457 49.7132 89.1129 49.8244C89.0243 49.8522 88.9375 49.8661 88.8489 49.8661Z" fill="#8758E7"/>
<path d="M84.9343 40.1081C84.6824 40.1081 84.4339 39.9987 84.2619 39.7867C83.9578 39.4166 84.0135 38.8692 84.3836 38.5652C84.7971 38.2298 94.602 30.3588 108.283 32.7027C108.756 32.7827 109.072 33.2327 108.994 33.7053C108.912 34.1779 108.466 34.4907 107.988 34.4142C95.132 32.2145 85.579 39.8353 85.4834 39.9118C85.3236 40.0421 85.1272 40.1081 84.9343 40.1081Z" fill="#8758E7"/>
<path d="M77.1483 29.874C76.8721 29.874 76.6027 29.7437 76.4324 29.5004C76.1597 29.106 76.2587 28.5656 76.6514 28.291C77.0771 27.9957 87.2226 21.1046 101.731 24.6422C102.197 24.7552 102.483 25.226 102.369 25.6917C102.256 26.1574 101.78 26.4458 101.321 26.3294C87.5944 22.9846 77.7409 29.6516 77.6419 29.7193C77.4924 29.8236 77.3186 29.874 77.1483 29.874Z" fill="#8758E7"/>
<path d="M86.4598 123.903C87.0436 128.104 90.1224 145.985 101.35 145.523C112.479 145.048 113.193 126.008 113.206 121.566L86.4598 123.903ZM100.89 147.271C87.1495 147.271 84.7187 124.194 84.6197 123.199C84.5988 122.969 84.6701 122.738 84.8178 122.559C84.9637 122.382 85.1791 122.269 85.4085 122.248L113.991 119.753C114.226 119.741 114.462 119.809 114.643 119.969C114.822 120.127 114.928 120.351 114.936 120.587C114.971 121.652 115.675 146.65 101.425 147.26C101.246 147.267 101.065 147.271 100.89 147.271Z" fill="white"/>
</svg>
