<svg width="200" height="200" viewBox="0 0 200 200" fill="none" xmlns="http://www.w3.org/2000/svg">
<rect width="200" height="200" fill="white"/>
<path d="M85.4827 173.073C86.076 171.781 85.648 169.077 85.6334 167.549C85.612 165.525 85.192 163.645 85.0294 161.656C84.684 157.44 84.7867 153.208 84.5827 148.928C84.4707 146.604 84.0227 144.388 84.1547 142.016C86.1854 142.676 88.1134 144.016 90.288 144.593C92.1734 145.095 94.3507 145.127 96.292 145.149C100.74 145.197 105.113 145.093 109.504 144.704C111.793 144.503 113.847 142.243 115.925 141.343C114.457 149.448 114.309 160.003 114.309 168.273C114.309 170.239 114.319 172.487 113.685 174.26C108.876 173.076 103.641 173.269 98.6987 173.224C96.0907 173.2 93.4827 173.248 90.876 173.224C89.392 173.209 87.0254 173.288 85.7827 172.773" fill="#F35B5A"/>
<path d="M134.932 83.2241C134.932 87.7397 132.248 91.4121 128.948 91.4121C127.884 91.4121 126.877 91.0293 126.015 90.3679C121.949 105.441 112.091 117.705 98.9173 117.437C84.888 117.149 76.0373 105.345 72.4987 90.8945C71.848 91.2309 71.1387 91.4121 70.4 91.4121C67.0907 91.4121 64.416 87.7397 64.416 83.2241C64.416 78.6987 67.0907 75.0347 70.4 75.0347C70.524 75.0347 70.64 75.0347 70.7533 75.0453C70.7453 74.9107 70.7533 74.7853 70.7533 74.652C71.2813 49.108 83.5453 39.4707 99.6933 39.8053C115.563 40.1213 128.037 54.9653 128.057 75.1307C128.345 75.0627 128.643 75.0347 128.948 75.0347C132.248 75.0347 134.932 78.6987 134.932 83.2241Z" stroke="#1F1F20" stroke-width="2.40211" stroke-miterlimit="10" stroke-linecap="round" stroke-linejoin="round"/>
<path d="M98.6973 77.772C98.6973 77.772 97.732 83.7585 93.9226 88.0788C93.0466 89.0721 97.2507 90.0945 98.3427 90.644" stroke="#1F1F20" stroke-width="2.40211" stroke-miterlimit="10" stroke-linecap="round" stroke-linejoin="round"/>
<path d="M86.7454 73.2267C86.6894 75.6707 86.98 78.176 86.98 80.6678" stroke="#1F1F20" stroke-width="3.60316" stroke-miterlimit="10" stroke-linecap="round" stroke-linejoin="round"/>
<path d="M110.715 73.2267C110.659 75.6707 110.951 78.176 110.951 80.6678" stroke="#1F1F20" stroke-width="3.60316" stroke-miterlimit="10" stroke-linecap="round" stroke-linejoin="round"/>
<path d="M93.94 98.8788C97.2547 99.3003 106.287 99.9549 106.179 97.0679" stroke="#1F1F20" stroke-width="2.40211" stroke-miterlimit="10" stroke-linecap="round" stroke-linejoin="round"/>
<path d="M117.143 88.6252C115.349 88.184 109.281 87.7039 108.883 90.1612C108.379 93.2705 117.431 92.8815 119.219 91.6003C122.051 89.5721 117.143 88.6252 117.143 88.6252Z" fill="#F35B5A"/>
<path d="M86.0587 88.6252C84.2653 88.184 78.1987 87.7039 77.8 90.1612C77.296 93.2705 86.348 92.8815 88.136 91.6003C90.968 89.5721 86.0587 88.6252 86.0587 88.6252Z" fill="#F35B5A"/>
<path d="M165.381 173.404C165.381 173.404 158.095 149.568 147.321 142.364C142.301 139.005 136.367 136.277 130.953 133.584C127.625 131.928 115.375 127.057 115.375 127.057C112.155 126.099 109.769 123.348 109.333 120.017C109.076 118.044 108.989 116.081 109.109 114.948" stroke="#1F1F20" stroke-width="2.40211" stroke-miterlimit="10" stroke-linecap="round" stroke-linejoin="round"/>
<path d="M34 173.404C34 173.404 41.2867 149.568 52.06 142.364C57.0813 139.005 63.0147 136.277 68.428 133.584C71.032 132.288 81.5933 128.223 86.0747 126.511C87.3653 126.017 88.3467 124.951 88.7227 123.622C89.42 121.167 90.4347 117.251 90.332 115.632" stroke="#1F1F20" stroke-width="2.40211" stroke-miterlimit="10" stroke-linecap="round" stroke-linejoin="round"/>
<path d="M121.264 50.6666C121.199 50.6666 121.131 50.6666 121.064 50.6666C119.519 50.6666 119.516 53.068 121.064 53.068C121.131 53.068 121.199 53.068 121.264 53.068C122.809 53.068 122.812 50.6666 121.264 50.6666Z" fill="#1F1F20"/>
<path d="M82.1973 127.464C82.3347 142.81 84.6387 158.045 84.2987 173.404C84.264 174.949 86.6667 174.949 86.7 173.404C87.04 158.045 84.7373 142.81 84.5987 127.464C84.5853 125.918 82.1827 125.915 82.1973 127.464Z" fill="#1F1F20"/>
<path d="M115.208 127.734C115.071 143.08 112.767 158.315 113.107 173.673C113.141 175.217 115.543 175.224 115.509 173.673C115.169 158.315 117.473 143.08 117.611 127.734C117.625 126.187 115.223 126.185 115.208 127.734Z" fill="#1F1F20"/>
<path d="M83.2027 141.215C84.808 145.436 90.784 146.459 94.7387 146.804C101.6 147.403 110.664 146.13 116.532 142.38C117.831 141.551 116.628 139.469 115.32 140.305C111.148 142.972 104.923 144.028 100.133 144.383C97.004 144.613 87.148 144.864 85.52 140.576C84.976 139.145 82.652 139.765 83.2027 141.215Z" fill="#1F1F20"/>
<path d="M88.3293 151.231C94.9387 153.537 105.073 154.74 111.307 150.664C112.593 149.82 111.392 147.739 110.092 148.589C104.476 152.264 94.8547 150.968 88.968 148.915C87.5053 148.405 86.876 150.724 88.3293 151.231Z" fill="#1F1F20"/>
<path d="M128.411 42.1813C128.411 42.1813 125.377 45.34 125.001 47.4107C124.091 44.6333 119.271 32.9787 117.391 31C116.737 32.4707 116.957 34.5213 116.987 36.196C116.248 34.1333 112.881 25.1867 111.412 24.7467C109.841 24.2773 102.328 28.6773 101.021 29.9907C100.796 27.312 101.835 24.3747 102.525 22C100.029 22.188 96.3773 24.3893 94.228 25.9293C91.4573 27.912 88.256 30.1187 86.7226 33.8453C86.7373 32.2867 87.276 30.476 87.1773 29.14C84.108 30.7107 81.2613 33.6707 79.0347 36.7747C77.0507 39.5413 75.72 43.436 73.9146 46.4893C73.852 45.0773 73.8867 43.6173 73.8947 42.192C73.3347 45.1373 71.4907 48.2133 70.6107 51.1253C70.5987 51.164 70.5867 51.2027 70.576 51.2427C68.42 58.4573 68.6786 66.2 71.2853 73.2653C72.592 76.8133 74.04 80.2429 75.2027 81.7345C75.3653 78.0907 75.0987 74.4133 75.4427 70.796C75.492 70.2707 75.5587 69.748 75.6387 69.2267C77.408 69.6747 79.2093 70.028 80.6653 69.624C80.0213 68.684 79.9453 67.4173 79.516 66.308C79.024 65.036 78.2347 64.1627 78.192 62.6627C80.828 63.788 83.804 64.068 86.5293 65.028C87.448 63.1147 87.2533 60.396 87.8733 58.28C88.608 55.7707 89.1533 56.4067 91.0107 57.2573C92.4053 57.8947 95.416 60.2027 96.712 59.3693C98.384 58.2947 99.404 54.8893 100.869 53.3427C101.733 55.5653 104.115 59.5107 106.015 59.7307C109.16 60.0947 112.625 57.2093 115.757 58.4213C115.068 60.9427 113.921 63.3893 113.283 65.9213C116.18 66.1147 119.125 66.1333 122.044 66.1333C122.4 67.6693 122.699 69.2187 122.849 70.796C123.193 74.4133 122.925 78.0907 123.088 81.7345C123.631 81.0397 124.32 79.7919 125.083 78.228C130.54 67.032 131.655 54.208 128.411 42.1813Z" fill="#F8A20D"/>
<path d="M128.411 42.1813C128.411 42.1813 125.377 45.34 125.001 47.4107C124.091 44.6333 119.271 32.9787 117.391 31C116.737 32.4707 116.957 34.5213 116.987 36.196C116.248 34.1333 112.881 25.1867 111.412 24.7467C109.841 24.2773 102.328 28.6773 101.021 29.9907C100.796 27.312 101.835 24.3747 102.525 22C100.029 22.188 96.3773 24.3893 94.228 25.9293C91.4573 27.912 88.256 30.1187 86.7226 33.8453C86.7373 32.2867 87.276 30.476 87.1773 29.14C84.108 30.7107 81.2613 33.6707 79.0347 36.7747C77.0507 39.5413 75.72 43.436 73.9146 46.4893C73.852 45.0773 73.8867 43.6173 73.8947 42.192C73.3347 45.1373 71.4907 48.2133 70.6107 51.1253C70.5987 51.164 70.5867 51.2027 70.576 51.2427C68.42 58.4573 68.6786 66.2 71.2853 73.2653C72.592 76.8133 74.04 80.2429 75.2027 81.7345C75.3653 78.0907 75.0987 74.4133 75.4427 70.796C75.492 70.2707 75.5587 69.748 75.6387 69.2267C77.408 69.6747 79.2093 70.028 80.6653 69.624C80.0213 68.684 79.9453 67.4173 79.516 66.308C79.024 65.036 78.2347 64.1627 78.192 62.6627C80.828 63.788 83.804 64.068 86.5293 65.028C87.448 63.1147 87.2533 60.396 87.8733 58.28C88.608 55.7707 89.1533 56.4067 91.0107 57.2573C92.4053 57.8947 95.416 60.2027 96.712 59.3693C98.384 58.2947 99.404 54.8893 100.869 53.3427C101.733 55.5653 104.115 59.5107 106.015 59.7307C109.16 60.0947 112.625 57.2093 115.757 58.4213C115.068 60.9427 113.921 63.3893 113.283 65.9213C116.18 66.1147 119.125 66.1333 122.044 66.1333C122.4 67.6693 122.699 69.2187 122.849 70.796C123.193 74.4133 122.925 78.0907 123.088 81.7345C123.631 81.0397 124.32 79.7919 125.083 78.228C130.54 67.032 131.655 54.208 128.411 42.1813Z" stroke="#1F1F20" stroke-width="2.18275" stroke-miterlimit="10" stroke-linecap="round" stroke-linejoin="round"/>
<path d="M86.8493 119.272C86.8493 119.272 88.2027 117.861 88.3693 116.939C88.7773 118.176 90.928 123.379 91.7667 124.261C92.0587 123.605 91.9613 122.689 91.9467 121.943C92.2773 122.863 93.78 126.856 94.436 127.052C95.1373 127.263 98.4893 125.297 99.0733 124.712C99.1733 125.906 98.7093 127.218 98.4027 128.279C99.516 128.193 101.144 127.212 102.104 126.524C103.341 125.64 104.769 124.655 105.455 122.992C105.448 123.687 105.207 124.496 105.252 125.092C106.621 124.391 107.892 123.069 108.884 121.684C109.771 120.449 110.365 118.712 111.171 117.348C111.199 117.979 111.183 118.63 111.179 119.267C111.428 117.952 112.252 116.579 112.644 115.28C112.649 115.263 112.655 115.245 112.66 115.227C113.623 112.006 113.507 108.552 112.344 105.399C111.76 103.816 111.115 102.284 110.595 101.618C110.524 103.245 110.643 104.887 110.488 106.501C110.467 106.735 110.436 106.968 110.401 107.201C109.612 107.001 108.808 106.843 108.157 107.023C108.445 107.444 108.479 108.008 108.671 108.503C108.891 109.071 109.243 109.461 109.261 110.13C108.085 109.628 106.756 109.503 105.54 109.075C105.131 109.928 105.217 111.141 104.94 112.087C104.613 113.206 104.368 112.923 103.54 112.542C102.919 112.259 101.575 111.228 100.996 111.6C100.251 112.08 99.7947 113.6 99.1413 114.289C98.7547 113.297 97.692 111.537 96.8453 111.44C95.44 111.277 93.8933 112.564 92.496 112.023C92.804 110.898 93.3147 109.806 93.6 108.676C92.308 108.589 90.9933 108.581 89.6907 108.581C89.532 107.896 89.3987 107.205 89.3307 106.501C89.1787 104.887 89.2973 103.245 89.224 101.618C88.9827 101.929 88.6747 102.485 88.3347 103.184C85.8987 108.18 85.4013 113.904 86.8493 119.272Z" fill="#F8A20D"/>
<path d="M86.8493 119.272C86.8493 119.272 88.2027 117.861 88.3693 116.939C88.7773 118.176 90.928 123.379 91.7667 124.261C92.0587 123.605 91.9613 122.689 91.9467 121.943C92.2773 122.863 93.78 126.856 94.436 127.052C95.1373 127.263 98.4893 125.297 99.0733 124.712C99.1733 125.906 98.7093 127.218 98.4027 128.279C99.516 128.193 101.144 127.212 102.104 126.524C103.341 125.64 104.769 124.655 105.455 122.992C105.448 123.687 105.207 124.496 105.252 125.092C106.621 124.391 107.892 123.069 108.884 121.684C109.771 120.449 110.365 118.712 111.171 117.348C111.199 117.979 111.183 118.63 111.179 119.267C111.428 117.952 112.252 116.579 112.644 115.28C112.649 115.263 112.655 115.245 112.66 115.227C113.623 112.006 113.507 108.552 112.344 105.399C111.76 103.816 111.115 102.284 110.595 101.618C110.524 103.245 110.643 104.887 110.488 106.501C110.467 106.735 110.436 106.968 110.401 107.201C109.612 107.001 108.808 106.843 108.157 107.023C108.445 107.444 108.479 108.008 108.671 108.503C108.891 109.071 109.243 109.461 109.261 110.13C108.085 109.628 106.756 109.503 105.54 109.075C105.131 109.928 105.217 111.141 104.94 112.087C104.613 113.206 104.368 112.923 103.54 112.542C102.919 112.259 101.575 111.228 100.996 111.6C100.251 112.08 99.7947 113.6 99.1413 114.289C98.7547 113.297 97.692 111.537 96.8453 111.44C95.44 111.277 93.8933 112.564 92.496 112.023C92.804 110.898 93.3147 109.806 93.6 108.676C92.308 108.589 90.9933 108.581 89.6907 108.581C89.532 107.896 89.3987 107.205 89.3307 106.501C89.1787 104.887 89.2973 103.245 89.224 101.618C88.9827 101.929 88.6747 102.485 88.3347 103.184C85.8987 108.18 85.4013 113.904 86.8493 119.272Z" stroke="#1F1F20" stroke-width="2.18275" stroke-miterlimit="10" stroke-linecap="round" stroke-linejoin="round"/>
</svg>
