<svg width="163" height="163" viewBox="0 0 163 163" fill="none" xmlns="http://www.w3.org/2000/svg">
<path d="M162.609 81.3749C162.609 92.2502 160.472 102.623 156.58 112.093C147.18 135.013 127.563 152.682 103.394 159.408C101.744 159.875 100.058 160.292 98.3554 160.641C92.9516 161.786 87.3393 162.379 81.6054 162.379C78.7385 162.379 75.9063 162.238 73.1089 161.945C71.2845 161.752 69.4775 161.491 67.6878 161.178C65.3248 160.761 63.0138 160.257 60.7203 159.649C57.6275 158.833 54.5867 157.825 51.6503 156.643C44.8565 153.95 38.5146 150.353 32.7633 146.01C23.6065 139.096 15.9787 130.267 10.4533 120.138C4.1634 108.618 0.584106 95.4142 0.584106 81.3749C0.584106 36.6333 36.8638 0.369212 81.6054 0.369212C126.347 0.369212 162.609 36.6333 162.609 81.3749Z" fill="#F7F5FF"/>
<path d="M103.394 159.408C96.4615 161.352 89.1464 162.379 81.6055 162.379C76.862 162.379 72.2055 161.978 67.6879 161.178C65.3248 160.761 63.0139 160.257 60.7203 159.649C57.6275 158.833 54.5868 157.825 51.6503 156.643L57.4016 98.7312L88.7642 91.3293L101.24 95.0302L103.394 159.408Z" fill="#8758E7"/>
<path d="M62.1364 40.0024C62.1364 40.0024 50.2343 25.3359 53.4522 23.3985C56.6701 21.4612 59.7143 24.4167 59.7143 24.4167C59.7143 24.4167 83.9686 20.5941 92.8213 23.1083C101.674 25.6226 107.597 40.1102 107.597 40.1102C107.597 40.1102 112.037 39.6984 113.913 45.7502C115.792 51.8021 102.732 81.573 94.3938 80.0162C86.0519 78.4576 62.1364 40.0024 62.1364 40.0024Z" fill="black"/>
<path d="M94.2947 75.2205L94.7048 95.4732C94.7048 95.4732 91.1707 101.369 79.3398 102.571C70.5287 103.468 67.3889 101.534 67.3889 101.534L68.4106 91.2527L69.4219 81.2254L90.7206 76.0876L94.2947 75.2205Z" fill="#FC907E"/>
<path d="M90.7207 76.0876C90.6824 76.6401 90.4843 77.2969 90.1733 78.0527C85.8468 88.2607 73.4999 90.6933 68.4106 91.2528L69.4219 81.2255L90.7207 76.0876Z" fill="black"/>
<path d="M63.9747 35.153C63.9747 35.153 53.857 60.7591 58.3329 74.7845C62.8088 88.8081 75.6353 86.1167 83.2579 83.102C90.884 80.0891 94.2982 75.224 94.2982 75.224C94.2982 75.224 101.599 77.4116 106.185 70.5327C110.768 63.6538 107.523 56.0555 103.342 54.4379C99.1598 52.8202 94.3677 55.9687 94.3677 55.9687L97.9436 48.5042C97.9436 48.5042 80.464 11.8422 63.9747 35.153Z" fill="#FC907E"/>
<path d="M63.9747 35.1529C63.9747 35.1529 71.8562 31.9802 75.2183 34.7603C78.5822 37.5386 82.5472 61.0162 94.3677 55.9686C106.19 50.9211 100.074 35.881 100.074 35.881C100.074 35.881 70.341 10.4208 63.9747 35.1529Z" fill="black"/>
<path d="M95.273 67.2627C95.0558 67.2627 94.8387 67.1827 94.6701 67.0194C94.3244 66.6858 94.3157 66.135 94.6493 65.791L101.031 59.1849C101.365 58.8391 101.912 58.8304 102.26 59.1622C102.604 59.4959 102.614 60.0467 102.281 60.3907L95.8985 66.9968C95.7283 67.174 95.5006 67.2627 95.273 67.2627Z" fill="black"/>
<path d="M103.905 65.6502C103.832 65.6502 103.759 65.6415 103.686 65.6224L98.1763 64.182C97.7124 64.0604 97.4344 63.586 97.556 63.1221C97.6759 62.6582 98.1537 62.3819 98.6142 62.5L104.124 63.9405C104.59 64.0621 104.868 64.5382 104.746 65.0004C104.643 65.3913 104.292 65.6502 103.905 65.6502Z" fill="black"/>
<path d="M62.3032 46.6537C62.1172 46.6537 61.9331 46.5963 61.7767 46.4765C61.4014 46.1863 61.3232 45.6581 61.6047 45.2776C61.6724 45.1855 63.33 43.0275 67.5123 43.6234C67.9866 43.6929 68.3168 44.1325 68.2491 44.6086C68.1796 45.0829 67.7261 45.4061 67.2639 45.3453C64.178 44.8953 63.0381 46.2662 62.9912 46.3253C62.8192 46.5408 62.5603 46.6537 62.3032 46.6537Z" fill="black"/>
<path d="M81.3796 46.8953C81.1832 46.8953 80.9869 46.8292 80.8235 46.6937C78.6116 44.8484 76.0905 45.4948 75.9828 45.5226C75.5275 45.6477 75.0445 45.3732 74.9177 44.9127C74.7926 44.4505 75.0636 43.9745 75.5223 43.8476C75.6648 43.8094 79.0113 42.9163 81.9373 45.361C82.3039 45.6668 82.3543 46.2159 82.0468 46.5825C81.8747 46.7893 81.628 46.8953 81.3796 46.8953Z" fill="black"/>
<path d="M63.1424 56.7471C62.5933 56.7054 62.2371 56.2866 62.2753 55.807L62.6594 51.0931C62.6959 50.6153 63.0955 50.266 63.5959 50.2973C64.072 50.3355 64.4282 50.7543 64.39 51.2339L64.006 55.9495C63.9712 56.403 63.5907 56.7471 63.1424 56.7471Z" fill="black"/>
<path d="M77.0896 57.3222C76.5388 57.2805 76.1827 56.8618 76.2209 56.3839L76.6049 51.6683C76.6431 51.1905 77.0445 50.8395 77.5414 50.8725C78.0192 50.9124 78.3754 51.3312 78.3354 51.809L77.9532 56.5247C77.9167 56.9782 77.5362 57.3222 77.0896 57.3222Z" fill="black"/>
<path d="M66.5271 68.0011C66.1953 68.0011 65.879 67.81 65.7348 67.4885C62.7793 60.872 67.2117 55.5395 67.4011 55.3153C67.7104 54.9539 68.2577 54.9053 68.6226 55.2163C68.9893 55.5256 69.0362 56.0729 68.7269 56.4395C68.5653 56.6289 64.8209 61.1795 67.3195 66.7796C67.5176 67.2175 67.3195 67.7317 66.8816 67.9264C66.7669 67.9785 66.647 68.0011 66.5271 68.0011Z" fill="black"/>
<path d="M72.0456 72.239C71.566 72.239 71.1768 71.8515 71.1768 71.3702C71.1768 70.8924 71.5644 70.5049 72.0422 70.5014C72.1673 70.5014 75.1089 70.4493 76.1671 67.9229C76.353 67.4781 76.8586 67.2713 77.3051 67.4572C77.7465 67.6414 77.955 68.1523 77.7691 68.5936C76.2609 72.199 72.2176 72.239 72.0456 72.239Z" fill="black"/>
<path d="M57.1062 119.682C57.1062 119.682 70.2003 122.018 84.5072 119.682C98.8141 117.351 107.212 113.373 107.212 113.373V126.853C107.212 126.853 93.2557 130.234 78.5683 131.181C63.8808 132.13 52.9014 130.782 52.9014 130.782L57.1062 119.682Z" fill="white"/>
<path d="M56.6145 140.416C56.6145 140.416 69.7086 142.752 84.0172 140.416C98.3241 138.085 106.723 134.107 106.723 134.107V147.589C106.723 147.589 92.7674 150.969 78.0782 151.917C63.3908 152.864 52.4096 151.516 52.4096 151.516L56.6145 140.416Z" fill="white"/>
<path d="M68.4176 91.2597C68.4176 91.2597 64.7167 125.421 60.7203 159.649C39.0533 153.898 20.9654 139.39 10.4533 120.138C16.8822 113.396 30.5567 101.372 39.4355 97.7755C54.9343 91.4856 68.4176 91.2597 68.4176 91.2597Z" fill="#ADA4F7"/>
<path d="M156.58 112.093C147.18 135.013 127.563 152.682 103.394 159.408C101.744 159.875 100.058 160.292 98.3554 160.641C95.8881 133.934 94.5849 87.0549 94.5849 87.0549C94.5849 87.0549 127.772 87.0254 156.58 112.093Z" fill="#ADA4F7"/>
<path d="M76.8065 103.617C71.5695 103.617 67.4967 102.47 67.1457 102.368C66.6853 102.236 66.4212 101.753 66.5532 101.292C66.687 100.832 67.17 100.568 67.6287 100.7C67.8042 100.752 84.9711 105.558 94.0428 94.9103C94.3573 94.5437 94.9046 94.5002 95.2678 94.813C95.6327 95.1223 95.6778 95.6713 95.3668 96.0362C90.1577 102.147 82.7367 103.617 76.8065 103.617Z" fill="#50447E"/>
</svg>
